<svg xmlns="http://www.w3.org/2000/svg" xmlns:xlink="http://www.w3.org/1999/xlink" width="741.5" height="555.137" viewBox="0 0 741.5 555.137"><defs><style>.a,.b,.d,.e,.f,.h{fill:#fff;}.a{font-size:64px;}.a,.e{font-family:OpenSans-Bold, Open Sans;font-weight:700;}.a,.b{letter-spacing:0.055em;}.b{font-size:40px;}.b,.d,.h{font-family:OpenSans-SemiBold, Open Sans;font-weight:600;}.c{font-size:23.332px;baseline-shift:13.332000418508848;}.d{font-size:38px;letter-spacing:0.025em;}.e{font-size:26px;}.f{font-size:22px;font-family:OpenSans-Regular, Open Sans;}.g,.j{fill:none;}.g{stroke:#fff;stroke-width:2px;}.h{font-size:27px;letter-spacing:0.075em;}.i{stroke:none;}.k{filter:url(#a);}</style><filter id="a" x="0" y="446.137" width="316" height="109" filterUnits="userSpaceOnUse"><feOffset dy="3" input="SourceAlpha"/><feGaussianBlur stdDeviation="7.5" result="b"/><feFlood flood-opacity="0.8"/><feComposite operator="in" in2="b"/><feComposite in="SourceGraphic"/></filter></defs><g transform="translate(22.847 100)"><text class="a" transform="translate(-0.347 -32)"><tspan x="0" y="0">2021 Sports Festival</tspan></text><text class="b" transform="translate(-0.347 54)"><tspan x="0" y="0">4</tspan><tspan class="c" y="0">th</tspan><tspan y="0" xml:space="preserve"> Feb to 5</tspan><tspan class="c" y="0">th</tspan><tspan y="0" xml:space="preserve"> March</tspan></text><text class="d" transform="translate(-0.347 111)"><tspan x="0" y="0">@SHABAB AL-AHLI CLUB</tspan></text><text class="e" transform="translate(-0.347 325)"><tspan x="0" y="0">Last Day of Entry 25th Jan</tspan></text><g transform="translate(0 126.829)"><text class="f" transform="translate(-0.347 13.807)"><tspan x="0" y="24">We recognize the dire need of releasing the built-up energy amongst </tspan><tspan x="0" y="54">athletes and promise to bring back happiness in the minds of </tspan><tspan x="0" y="84" xml:space="preserve">participants that include Inter-School (Boys &amp;  Girls) in 2 Age groups </tspan><tspan x="0" y="114">and Inter-Community (Gents &amp; Ladies) every Friday and Saturday</tspan></text></g><g transform="translate(-0.347 365.637)"><g class="k" transform="matrix(1, 0, 0, 1, -22.5, -465.64)"><g class="g" transform="translate(22.5 465.64)"><rect class="i" width="271" height="64" rx="32"/><rect class="j" x="1" y="1" width="269" height="62" rx="31"/></g></g><text class="h" transform="translate(136 43)"><tspan x="-97.648" y="0">Register Now</tspan></text></g></g></svg>