<svg xmlns="http://www.w3.org/2000/svg" xmlns:xlink="http://www.w3.org/1999/xlink" width="1628" height="750.5" viewBox="0 0 1628 750.5"><defs><style>.a,.c,.e{fill:#fff;}.b,.h{fill:none;}.b{stroke:#fff;}.b,.d{stroke-width:2px;}.c{font-size:27px;font-family:OpenSans-SemiBold, Open Sans;font-weight:600;}.c,.e{letter-spacing:0.075em;}.d{stroke:rgba(255,255,255,0.6);fill:url(#c);}.e{font-size:32px;font-family:OpenSans-Bold, Open Sans;font-weight:700;}.f{clip-path:url(#d);}.g{stroke:none;}.i{filter:url(#a);}</style><filter id="a" x="628.5" y="641.5" width="316" height="109" filterUnits="userSpaceOnUse"><feOffset dy="3" input="SourceAlpha"/><feGaussianBlur stdDeviation="7.5" result="b"/><feFlood flood-opacity="0.8"/><feComposite operator="in" in2="b"/><feComposite in="SourceGraphic"/></filter><linearGradient id="c" x1="0.056" y1="0.05" x2="0.958" y2="0.95" gradientUnits="objectBoundingBox"><stop offset="0" stop-color="#fff" stop-opacity="0.4"/><stop offset="1" stop-color="#fff" stop-opacity="0.051"/></linearGradient><clipPath id="d"><rect class="a" width="100" height="100" transform="translate(380 1215)"/></clipPath></defs><g transform="translate(-143 -1310)"><g transform="translate(794 1971)"><g class="i" transform="matrix(1, 0, 0, 1, -651, -661)"><g class="b" transform="translate(651 661)"><rect class="g" width="271" height="64" rx="32"/><rect class="h" x="1" y="1" width="269" height="62" rx="31"/></g></g><text class="c" transform="translate(136 43)"><tspan x="-97.648" y="0">Register Now</tspan></text></g><g transform="translate(-86 124)"><g class="d" transform="translate(229 1186)"><rect class="g" width="300" height="250" rx="40"/><rect class="h" x="1" y="1" width="298" height="248" rx="39"/></g><g transform="translate(-51 10)"><text class="e" transform="translate(431 1376)"><tspan x="-91.783" y="0">FOOTBALL</tspan></text><g class="f"><path class="a" d="M50,0a50,50,0,1,0,50,50A50,50,0,0,0,50,0ZM88.721,23.984l-3.465,14.73L67,44.8,51.667,32.533V14.461l17.5-7A46.949,46.949,0,0,1,88.721,23.984ZM89,75.575l-16.528,2.61-9-11.889,4.585-18.333L86.11,41.947l10.342,12.41A46.363,46.363,0,0,1,89,75.576ZM27.6,78.2,11,75.575A46.369,46.369,0,0,1,3.55,54.351l10.334-12.41,18.053,6.016L36.522,66.3ZM3.348,49.378a46.365,46.365,0,0,1,5.469-21.3l2.7,11.5ZM39.635,65,35.213,47.3,50,35.468,64.79,47.3,60.365,65ZM88.48,39.574l2.7-11.5a46.363,46.363,0,0,1,5.469,21.3ZM64.621,5.692,50,11.54,35.3,5.719a46.5,46.5,0,0,1,29.321-.027ZM30.754,7.5l17.58,6.967V32.533L33,44.8,14.744,38.713l-3.465-14.73A46.959,46.959,0,0,1,30.754,7.5ZM13.785,79.39l13.548,2.14,8.193,12.834A46.82,46.82,0,0,1,13.785,79.39Zm26.52,16.257L30.36,80.076l8.807-11.743H60.833l8.933,11.8L61.1,95.321a46.522,46.522,0,0,1-20.793.334ZM65.73,93.931l7.1-12.432,13.388-2.112A46.847,46.847,0,0,1,65.73,93.931Zm0,0" transform="translate(380 1215)"/></g></g></g><g transform="translate(246 124)"><g class="d" transform="translate(229 1186)"><rect class="g" width="300" height="250" rx="40"/><rect class="h" x="1" y="1" width="298" height="248" rx="39"/></g><g transform="translate(-51 10)"><text class="e" transform="translate(431 1376)"><tspan x="-110.12" y="0">BASKETBALL</tspan></text><g class="f"><g transform="translate(380 1215)"><path class="a" d="M50,0a50,50,0,1,0,50,50A50.057,50.057,0,0,0,50,0Zm0,96.667A46.667,46.667,0,1,1,96.667,50,46.72,46.72,0,0,1,50,96.667Z"/><path class="a" d="M96.343,65.03c-7.66-4.792-13.01-19.2-13.01-35.03A67.568,67.568,0,0,1,84.9,15.318a1.667,1.667,0,1,0-3.255-.725A71,71,0,0,0,80,30c0,17.19,5.858,32.4,14.577,37.855a1.666,1.666,0,1,0,1.767-2.825Z"/><path class="a" d="M37.587,1.913a1.676,1.676,0,0,0-1.072-.058A50,50,0,1,0,73.6,94.085a1.672,1.672,0,0,0,.847-1.142l.535-2.682.035-.218a100.143,100.143,0,0,0,1.652-15.877C76.667,40.357,60.962,11.32,37.587,1.913ZM71.723,89.518l-.392,1.993A46.669,46.669,0,1,1,36.867,5.22C58.7,14.35,73.333,41.96,73.333,74.167A97.52,97.52,0,0,1,71.723,89.518Z"/><path class="a" d="M38.87,86.757a43.289,43.289,0,0,1-9.628-4.82,1.667,1.667,0,1,0-1.818,2.793,46.528,46.528,0,0,0,10.372,5.18,1.69,1.69,0,0,0,.538.09,1.666,1.666,0,0,0,.537-3.244Z"/><path class="a" d="M21.3,75.623c-.39-.485-.817-.995-1.258-1.52a28.639,28.639,0,0,1-3.553-4.855,1.667,1.667,0,0,0-2.977,1.5,30.892,30.892,0,0,0,3.978,5.5c.425.505.837.995,1.21,1.46a1.666,1.666,0,1,0,2.6-2.085Z"/><path class="a" d="M96.667,35.69C47.875,35.3,19.1,51.655,3.542,65.5a1.666,1.666,0,1,0,2.215,2.49c15.118-13.455,43.18-29.362,90.878-28.967h.017a1.667,1.667,0,0,0,.015-3.333Z"/><path class="a" d="M15.168,16.667c-.508,0-1.013-.022-1.518-.047a1.667,1.667,0,0,0-.158,3.33c.557.027,1.115.05,1.677.05,22.057,0,40,21.308,40,47.5,0,11.663-2.832,21.987-8.188,29.853a1.667,1.667,0,0,0,2.757,1.877C55.47,90.807,58.5,79.835,58.5,67.5,58.5,39.47,39.062,16.667,15.168,16.667Z"/></g></g></g></g><g transform="translate(578 124)"><g class="d" transform="translate(229 1186)"><rect class="g" width="300" height="250" rx="40"/><rect class="h" x="1" y="1" width="298" height="248" rx="39"/></g><g transform="translate(-51 10)"><text class="e" transform="translate(431 1376)"><tspan x="-110.823" y="0">VOLLEYBALL</tspan></text><g class="f"><g transform="translate(377.143 1212.143)"><path class="a" d="M52.857,102.857a50,50,0,1,1,50-50A50,50,0,0,1,52.857,102.857Zm0-97.143A47.143,47.143,0,1,0,100,52.857,47.143,47.143,0,0,0,52.857,5.714Z"/><path class="a" d="M52.857,54.286a1.449,1.449,0,0,1-.429-.066,1.429,1.429,0,0,1-.933-1.793c8.179-25.9-13.21-44.867-13.424-45.056a1.429,1.429,0,0,1,1.871-2.16c.231.2,23.03,20.359,14.277,48.076a1.429,1.429,0,0,1-1.363,1Z"/><path class="a" d="M69.214,65.23a1.429,1.429,0,0,1-1.351-1.893C76.59,37.823,65.149,16.131,57.551,5.48a1.429,1.429,0,0,1,2.327-1.66c7.914,11.106,19.827,33.726,10.687,60.45a1.429,1.429,0,0,1-1.351.96Z"/><path class="a" d="M83.4,67.787a1.446,1.446,0,0,1-.56-.116,1.429,1.429,0,0,1-.753-1.876C91.741,43.2,83.129,22.54,77.143,12.233A1.429,1.429,0,1,1,79.611,10.8c6.257,10.774,15.246,32.383,5.1,56.121A1.429,1.429,0,0,1,83.4,67.787Z"/><path class="a" d="M8.173,73.32a1.429,1.429,0,0,1-1.3-2.021c5.66-12.407,19.293-34.034,47-39.481a1.429,1.429,0,0,1,.551,2.8c-26.456,5.2-39.52,25.95-44.953,37.863a1.429,1.429,0,0,1-1.3.836Z"/><path class="a" d="M4.294,52.857a1.429,1.429,0,0,1-1.237-2.143c6.2-10.809,20.419-29.4,46.05-32.483a1.429,1.429,0,0,1,.341,2.836C25.056,24.007,11.466,41.8,5.536,52.143a1.429,1.429,0,0,1-1.241.714Z"/><path class="a" d="M83.943,83.836c-14.19,0-34.4-3.687-49.817-21.344a1.432,1.432,0,0,1,2.16-1.88c17.733,20.314,42.237,21.259,55.269,20a1.429,1.429,0,0,1,.273,2.844C89.51,83.68,86.857,83.836,83.943,83.836Z"/><path class="a" d="M53.357,93.559a1.429,1.429,0,0,1-.439-.07c-1.3-.42-2.644-.919-4.109-1.526a1.429,1.429,0,0,1,1.094-2.64c1.393.571,2.666,1.051,3.891,1.447a1.429,1.429,0,0,1-.439,2.789Z"/><path class="a" d="M29.443,78.243a1.429,1.429,0,0,1-1.05-.459,54.328,54.328,0,0,1-3.639-4.373A1.429,1.429,0,1,1,27.04,71.7a51.075,51.075,0,0,0,3.446,4.143,1.429,1.429,0,0,1-1.049,2.4Z"/><path class="a" d="M40.441,87.471a1.417,1.417,0,0,1-.764-.223c-1.3-.823-2.464-1.624-3.563-2.449a1.429,1.429,0,0,1,1.714-2.286c1.039.779,2.143,1.539,3.38,2.323a1.429,1.429,0,0,1-.767,2.634Z"/><path class="a" d="M75.587,97.057a75.586,75.586,0,0,1-12.277-1,1.429,1.429,0,1,1,.466-2.82,72.856,72.856,0,0,0,12.117.967H75.9a1.429,1.429,0,1,1,0,2.857Z"/><path class="a" d="M19.457,89.563a1.467,1.467,0,0,1-.271-.026,1.429,1.429,0,0,1-1.133-1.673c.057-.3,6.114-30.124,34.5-36.4a1.429,1.429,0,0,1,.617,2.791C26.6,60.129,20.913,88.123,20.857,88.4a1.429,1.429,0,0,1-1.4,1.159Z"/><path class="a" d="M84.847,67.754c-9.919,0-22.75-2.689-33.044-13.933a1.429,1.429,0,0,1,2.109-1.929c18.341,20.034,45.46,11,45.731,10.9a1.428,1.428,0,1,1,.933,2.7A53.8,53.8,0,0,1,84.847,67.754Z"/></g></g></g></g><g transform="translate(910 124)"><g class="d" transform="translate(229 1186)"><rect class="g" width="300" height="250" rx="40"/><rect class="h" x="1" y="1" width="298" height="248" rx="39"/></g><g transform="translate(-51 10)"><text class="e" transform="translate(431 1376)"><tspan x="-70.742" y="0">HOCKEY</tspan></text><g class="f"><g transform="translate(380 1215)"><path class="a" d="M96.25.212a1.485,1.485,0,0,0-2.038.51L75.562,31.806a1.485,1.485,0,1,0,2.547,1.528L96.76,2.249A1.485,1.485,0,0,0,96.25.212Z"/><path class="a" d="M81.241.212A1.485,1.485,0,0,0,79.2.721L31.051,80.974A6.559,6.559,0,0,1,19.8,74.237,7.921,7.921,0,1,0,6.2,66.1a22.443,22.443,0,0,0-2.153,4.791,1.485,1.485,0,0,0,2.834.89,19.458,19.458,0,0,1,1.868-4.156,4.95,4.95,0,0,1,8.495,5.085A9.529,9.529,0,0,0,33.6,82.5L54.068,48.385l4.1,12.418-8.4,14a12.719,12.719,0,0,0-9.825,15.717,19.428,19.428,0,0,1-33.9-14.2,1.485,1.485,0,0,0-2.964-.191,22.4,22.4,0,0,0,38.093,17.4A12.717,12.717,0,1,0,53.343,74.611L75.087,38.372a1.485,1.485,0,0,0-2.547-1.528L65.3,48.9l-4.1-12.417L81.75,2.249A1.485,1.485,0,0,0,81.241.212ZM61.989,87.281a9.749,9.749,0,1,1-9.749-9.749A9.761,9.761,0,0,1,61.989,87.281Zm1.3-35.013-3.1,5.172-4.1-12.418,3.1-5.171Z"/></g></g></g></g><g transform="translate(1242 124)"><g class="d" transform="translate(229 1186)"><rect class="g" width="300" height="250" rx="40"/><rect class="h" x="1" y="1" width="298" height="248" rx="39"/></g><g transform="translate(-51 10)"><text class="e" transform="translate(431 1376)"><tspan x="-124.762" y="0">TABLE TENNIS</tspan></text><g class="f"><g transform="translate(380 1214.999)"><path class="a" d="M89.588,9.827C78.3-1.46,59.114-3.175,42.549,5.469a16.671,16.671,0,0,0-22.805,24.28,32.578,32.578,0,0,0-2.351,10.02,1.919,1.919,0,0,0-.075.365A30.6,30.6,0,0,0,17.5,45.55a.118.118,0,0,1,0,.023,31.548,31.548,0,0,0,.566,3.218c.025.11.05.22.077.33.245,1.026.537,2.047.886,3.063.043.128.1.257.14.385.367,1.031.774,2.057,1.248,3.076a12.777,12.777,0,0,1,1.008,8.382c-.067.27-.158.524-.237.787-.1.345-.192.7-.312,1.033-.113.319-.257.617-.389.924-.112.264-.209.536-.334.792-.169.349-.37.679-.564,1.014-.115.2-.214.407-.335.6-.227.36-.489.7-.746,1.048-.115.155-.215.319-.335.472-.3.372-.627.726-.959,1.081-.107.115-.2.235-.31.349-.357.362-.747.709-1.145,1.053-.11.1-.205.2-.32.294-.47.394-.978.774-1.5,1.148-.055.04-.1.082-.158.122q-.881.616-1.865,1.2A68.648,68.648,0,0,0,5.1,80.457L2.446,82.5a4.9,4.9,0,0,0-.477,7.344l8.724,8.724A4.89,4.89,0,0,0,14.153,100c.12,0,.24-.005.36-.013a4.894,4.894,0,0,0,3.57-1.962l2.746-3.692c.791-1.064,1.578-2.227,2.376-3.489.546-.864,1.1-1.765,1.657-2.741q.563-.978,1.156-1.854a19.841,19.841,0,0,1,5.162-5.34c.067-.045.128-.1.2-.147.36-.24.737-.447,1.113-.656.148-.083.29-.182.442-.26.332-.172.681-.312,1.026-.462.21-.092.41-.2.626-.28.3-.117.621-.205.933-.305.275-.088.542-.192.824-.269a12.173,12.173,0,0,1,7.077.355c.444.15.868.307,1.243.47l.048.018c.744.32,1.493.6,2.242.869.192.068.384.132.577.2q1.046.35,2.1.629c.065.017.13.038.2.055a30.876,30.876,0,0,0,9.423.951,1.846,1.846,0,0,0,.27-.055C68.3,81.452,77,77.137,84.934,69.209,102.288,51.851,104.422,24.659,89.588,9.827ZM22.244,8.674A13.347,13.347,0,0,1,41.12,27.548a13.144,13.144,0,0,1-.993.9c-.122.1-.252.185-.375.279-.225.17-.447.345-.681.5-.157.105-.32.194-.48.29-.209.127-.415.257-.629.372-.18.1-.365.175-.549.262-.2.1-.4.2-.607.282s-.4.148-.6.22-.4.147-.6.209-.422.115-.636.169c-.2.05-.389.1-.584.142-.224.047-.45.078-.676.113-.185.028-.37.06-.556.08-.242.027-.485.04-.729.053-.169.01-.337.022-.507.025-.264.005-.526,0-.787-.015-.148-.007-.3-.01-.442-.022-.285-.022-.571-.055-.856-.1-.12-.017-.24-.032-.359-.052-.31-.052-.619-.117-.926-.19-.088-.022-.177-.042-.265-.065-.335-.088-.669-.19-1-.305-.053-.018-.108-.037-.162-.057q-.538-.2-1.061-.437L26,30.173a13.373,13.373,0,0,1-3.192-2.114l-.362-.324c-.067-.065-.14-.12-.207-.187A13.364,13.364,0,0,1,22.244,8.674Zm-6.839,87.36a1.559,1.559,0,0,1-2.352.172L4.329,87.481a1.562,1.562,0,0,1,.152-2.339L7.136,83.1a64.78,64.78,0,0,1,6.48-4.284,29.5,29.5,0,0,0,4.052-2.86l0,0q.9-.763,1.7-1.58c.047-.048.083-.1.13-.147.477-.5.934-1.011,1.351-1.542.067-.083.118-.175.184-.26.384-.5.752-1.009,1.084-1.537.08-.128.143-.269.222-.4.3-.5.586-.993.838-1.512.077-.157.132-.324.2-.484.23-.506.457-1.013.647-1.542.062-.175.105-.362.164-.539.17-.517.342-1.034.477-1.573,0-.012,0-.023.007-.033a.024.024,0,0,1,0-.01,15.875,15.875,0,0,0-1.23-10.557c-.19-.409-.335-.819-.507-1.23a29.2,29.2,0,0,1-2.292-9.663L56.027,78.732h-.022c-.791-.047-1.582-.132-2.372-.247-.058-.008-.117-.013-.175-.023-.751-.113-1.5-.267-2.249-.442-.092-.022-.184-.037-.277-.06-.724-.179-1.446-.394-2.167-.629-.108-.035-.217-.062-.325-.1-.819-.279-1.637-.591-2.451-.943a18.45,18.45,0,0,0-3.564-1.126c-.155-.032-.31-.075-.464-.1s-.3-.038-.449-.062c-.3-.045-.594-.093-.888-.12-.055,0-.112,0-.167-.008-.387-.032-.772-.055-1.156-.058l-.035,0q-.638,0-1.268.047c-.12.01-.237.032-.355.045-.31.033-.619.065-.924.118-.347.06-.689.142-1.031.229-.072.018-.143.028-.215.048h0l-.02.005c-.661.18-1.3.394-1.92.627-.047.017-.1.03-.145.047-.619.237-1.215.507-1.8.8-.052.027-.108.045-.158.072-.552.282-1.081.6-1.6.933-.075.048-.157.087-.234.135-.539.355-1.059.746-1.57,1.158-.05.04-.1.072-.152.113a26.043,26.043,0,0,0-5.9,7.246,59.791,59.791,0,0,1-3.817,5.9ZM60.62,78.621c-.015-.015-.022-.035-.037-.05L20.82,38.806c-.005-.005-.013-.008-.018-.013a29.205,29.205,0,0,1,1.613-6.812,16.437,16.437,0,0,0,2.474,1.35c.035.015.068.033.1.048.37.162.746.305,1.124.44.1.037.207.073.312.108.344.113.689.215,1.039.305.145.038.29.072.435.107.325.075.652.145.981.2.174.03.349.052.524.075.31.043.621.085.934.11.2.017.4.02.6.028.249.012.5.035.747.035.047,0,.092-.007.137-.007.259,0,.517-.023.776-.037.414-.022.824-.058,1.236-.112.3-.038.607-.075.908-.13.214-.04.424-.093.636-.142.285-.063.569-.128.851-.207.212-.06.422-.13.632-.2.277-.09.552-.184.824-.289.207-.08.412-.165.616-.254q.408-.175.806-.374c.2-.1.39-.2.584-.3.272-.148.539-.31.806-.475.177-.11.354-.217.527-.334.289-.2.569-.407.848-.622.14-.108.284-.209.42-.322.41-.339.809-.694,1.193-1.078s.754-.8,1.1-1.215c.12-.147.224-.3.339-.449.214-.279.425-.556.619-.843.123-.185.234-.375.349-.564.162-.262.324-.524.469-.792.112-.207.212-.419.314-.631.125-.259.25-.517.362-.781.1-.224.179-.45.264-.677.1-.259.189-.517.272-.779.075-.237.143-.475.207-.716.068-.257.132-.514.189-.772s.1-.5.147-.747.078-.507.11-.761.062-.517.082-.776.027-.492.035-.739c.008-.269.018-.537.015-.8,0-.235-.02-.469-.033-.7-.017-.279-.028-.557-.058-.836-.023-.214-.06-.427-.092-.641-.043-.3-.082-.594-.14-.888-.032-.155-.077-.307-.112-.46a16.7,16.7,0,0,0-1.17-3.362c-.073-.155-.138-.314-.217-.469-.142-.277-.3-.546-.462-.816-.115-.187-.219-.375-.335-.557-.158-.247-.332-.485-.5-.726-.1-.143-.192-.292-.3-.432,15.077-7.494,32.225-5.863,42.3,4.214,13.552,13.552,11.422,38.585-4.655,54.661C75.564,73.857,68.143,77.795,60.62,78.621Z"/><path class="a" d="M25.011,18.11a6.68,6.68,0,0,1,6.674-6.674,1.668,1.668,0,0,0,0-3.337,10.02,10.02,0,0,0-10.01,10.01,1.668,1.668,0,1,0,3.337,0Z"/></g></g></g></g><g transform="translate(-86 474)"><g class="d" transform="translate(229 1186)"><rect class="g" width="300" height="250" rx="40"/><rect class="h" x="1" y="1" width="298" height="248" rx="39"/></g><g transform="translate(-51 10)"><text class="e" transform="translate(431 1376)"><tspan x="-72.302" y="0">CRICKET</tspan></text><g class="f"><g transform="translate(377.145 1212.144)"><path class="a" d="M44.557,64.085a1.428,1.428,0,0,1-1.01-.418L40.575,60.7a1.428,1.428,0,1,1,2.02-2.02l2.971,2.972a1.429,1.429,0,0,1-1.01,2.439Z"/><path class="a" d="M83.342,102.856a1.428,1.428,0,0,1-1.01-.418L60.661,80.782a1.429,1.429,0,0,1,2.019-2.023L83.822,99.881C93,97.982,98.265,92.722,99.9,83.829L45.8,29.714l-8.06,2.109-5.91,5.91L29.714,45.8,35.52,51.6a1.428,1.428,0,1,1-2.02,2.02l-6.386-6.386a1.429,1.429,0,0,1-.371-1.371l2.414-9.229a1.417,1.417,0,0,1,.371-.649l6.457-6.457a1.417,1.417,0,0,1,.649-.371l9.229-2.414a1.429,1.429,0,0,1,1.371.371l55.2,55.214a1.429,1.429,0,0,1,.4,1.234C101.121,94.322,94.649,100.8,83.6,102.832a1.33,1.33,0,0,1-.254.024Z"/><path class="a" d="M54.6,74.128a1.428,1.428,0,0,1-1.01-.418l-2.972-2.972a1.43,1.43,0,0,1,2.02-2.024l2.971,2.971a1.429,1.429,0,0,1-1.01,2.439Z"/><path class="a" d="M30.541,38.428a1.419,1.419,0,0,1-1.01-.419L4.614,13.1A6,6,0,1,1,13.1,4.614L38.015,29.531a1.429,1.429,0,0,1,0,2.02l-6.464,6.464a1.419,1.419,0,0,1-1.01.413ZM8.857,5.714a3.143,3.143,0,0,0-2.223,5.364L30.541,34.985l4.444-4.444L11.078,6.634a3.129,3.129,0,0,0-2.221-.92Z"/><path class="a" d="M78.749,47.117a10.491,10.491,0,1,1,7.419-3.073,10.491,10.491,0,0,1-7.419,3.073Zm0-18.127a7.636,7.636,0,1,0,5.393,2.237,7.636,7.636,0,0,0-5.393-2.237Z"/><path class="a" d="M67.828,87.342a1.429,1.429,0,0,1-1.01-2.439L84.9,66.818a1.428,1.428,0,1,1,2.02,2.02L68.838,86.924A1.429,1.429,0,0,1,67.828,87.342Z"/><path class="a" d="M74.214,93.728a1.429,1.429,0,0,1-1.01-2.439L91.285,73.2a1.428,1.428,0,1,1,2.02,2.02L75.219,93.309a1.429,1.429,0,0,1-1.006.419Z"/></g></g></g></g><g transform="translate(246 474)"><g class="d" transform="translate(229 1186)"><rect class="g" width="300" height="250" rx="40"/><rect class="h" x="1" y="1" width="298" height="248" rx="39"/></g><g transform="translate(-51 10)"><text class="e" transform="translate(431 1376)"><tspan x="-64.352" y="0">TENNIS</tspan></text><g class="f"><g transform="translate(375.994 1210.993)"><path class="a" d="M87.3,85.731a.028.028,0,0,0-.008-.024,1.445,1.445,0,0,0-.169-.274,11.589,11.589,0,0,0-19.295.015,1.462,1.462,0,0,0-.159.259v.007a11.506,11.506,0,0,0,0,12.32v.007a1.4,1.4,0,0,0,.16.261,11.582,11.582,0,0,0,19.4-.169c.019-.033.046-.059.062-.094a.193.193,0,0,0,.008-.024,11.5,11.5,0,0,0,0-12.29ZM69.64,95.52a8.547,8.547,0,0,1,0-7.28,20.581,20.581,0,0,0,15.672,0,8.541,8.541,0,0,1,0,7.277,20.748,20.748,0,0,0-15.672,0Zm13.924-9.774a17.734,17.734,0,0,1-12.182,0,8.631,8.631,0,0,1,12.182,0ZM71.385,98.011a17.733,17.733,0,0,1,12.181,0,8.631,8.631,0,0,1-12.181,0Z"/><path class="a" d="M91.51,63.283c.062-.062.13-.118.192-.181.008-.008.014-.019.024-.028,14.852-14.878,16.455-37.457,3.565-50.349C89.027,6.458,80.311,3.4,70.737,4.108A41.061,41.061,0,0,0,44.949,16.286c-.011.01-.024.017-.034.028-.074.073-.142.154-.215.229q-.759.768-1.469,1.567l-.019.023a41.863,41.863,0,0,0-9.12,16.35l-.007.018c-2.954,8.477-4.191,17.254-5.28,25-.834,5.934-1.575,11.174-2.905,14.276a1.471,1.471,0,0,0-1.519.349L4.444,94.06a1.476,1.476,0,0,0,0,2.089l7.426,7.426a1.476,1.476,0,0,0,2.089,0l15.559-15.56,4.376-4.376a1.452,1.452,0,0,0,.186-.228,1.39,1.39,0,0,0,.084-.164c.015-.03.035-.059.047-.09a1.454,1.454,0,0,0,.059-.193c.008-.028.019-.055.024-.084a1.435,1.435,0,0,0,.028-.282v0a1.49,1.49,0,0,0-.029-.287c-.005-.027-.017-.052-.024-.079s-.019-.072-.032-.107c3.1-1.331,8.342-2.072,14.276-2.905,7.744-1.089,16.52-2.323,25-5.279l.019-.007a41.882,41.882,0,0,0,16.36-9.13c.555-.492,1.094-.994,1.622-1.516ZM70.957,7.054Q72.2,6.96,73.43,6.961A27.483,27.483,0,0,1,93.2,14.814c11.746,11.747,10.136,32.471-3.59,46.2-.06.06-.122.116-.183.176-4.3,4.237-9.806,7.493-16.837,9.94a35.132,35.132,0,0,1-6.931,1.235c-8.692.646-16.6-2.11-22.247-7.763s-8.407-13.551-7.763-22.246a35.188,35.188,0,0,1,1.235-6.929c2.441-7.013,5.688-12.511,9.909-16.8.071-.072.137-.146.208-.217A38.115,38.115,0,0,1,70.957,7.054Zm-45.531,70.2,5.337,5.337-2.288,2.288-5.337-5.337ZM12.911,100.441,7.576,95.1,21.049,81.631l5.337,5.337Zm35.2-24.156c-6.905.971-12.5,1.762-15.93,3.544l-3.994-3.991c1.781-3.432,2.571-9.023,3.544-15.93.413-2.935.849-6.022,1.391-9.177A29.375,29.375,0,0,0,57.3,74.9C54.137,75.441,51.046,75.875,48.108,76.285Z"/><path class="a" d="M41.79,28.911a34.845,34.845,0,0,0-3.776,11.282,1.488,1.488,0,0,0-.071.458q-.2,1.475-.253,2.939a1.472,1.472,0,0,0-.01.443,27.544,27.544,0,0,0,1.91,10.994,1.54,1.54,0,0,0,.066.154,24.081,24.081,0,0,0,5.237,7.912c.005.005.009.013.015.019s.013.009.019.015a25.4,25.4,0,0,0,18.27,7.25c.309,0,.622-.011.934-.021h.054c.568-.019,1.138-.047,1.715-.1s1.159-.122,1.737-.2l.055-.008A36.486,36.486,0,0,0,88.117,59.523a36.494,36.494,0,0,0,10.53-20.434.291.291,0,0,1,.008-.053q.127-.867.2-1.738c.051-.581.084-1.165.1-1.743v-.008a25.562,25.562,0,0,0-7.241-19.233l-.005-.008-.006,0C86.381,10.979,78.929,8.439,70.72,9.157A36.169,36.169,0,0,0,48.5,19.9a38.387,38.387,0,0,0-6.548,8.726A1.422,1.422,0,0,0,41.79,28.911Zm7.774-5.861L53.716,27.2l-5.363,5.364L45,29.214a35.432,35.432,0,0,1,4.566-6.164Zm8.245-6.66,3.359,3.359L55.8,25.114l-4.152-4.152a35.648,35.648,0,0,1,6.158-4.571Zm15.606-4.4a24.78,24.78,0,0,1,7.03.992L76.96,16.462,72.795,12.3l.3-.3c.108,0,.215-.007.323-.007Zm15.127,5.4L83.22,22.717l-4.165-4.165,4.429-4.429a21.265,21.265,0,0,1,5.056,3.269ZM93.9,24.542,89.473,28.97,85.308,24.8l5.323-5.323a21.259,21.259,0,0,1,3.267,5.06ZM93.067,47.47l-2.705-2.706,5.228-5.232a31.444,31.444,0,0,1-2.526,7.937Zm-6.012,8.9L82.906,52.22l5.364-5.364,3.356,3.353a35.616,35.616,0,0,1-4.571,6.16Zm-8.246,6.659-3.356-3.356,5.364-5.364,4.149,4.149a35.611,35.611,0,0,1-6.158,4.566ZM56.185,66.434l3.476-3.478,4.165,4.165-.291.29a24.894,24.894,0,0,1-7.35-.982Zm-8.1-4.4,5.323-5.323,4.164,4.165L53.145,65.3a21.265,21.265,0,0,1-5.063-3.276ZM42.73,54.877l4.423-4.423,4.165,4.165L45.99,59.938a21.172,21.172,0,0,1-3.262-5.066ZM70.4,39.714l5.363-5.369,4.165,4.165-5.364,5.364Zm2.077,6.254-5.364,5.364-4.165-4.165L68.312,41.8ZM68.31,37.621l-4.165-4.164,5.365-5.365,4.164,4.165Zm-2.088,2.089-5.364,5.364-4.165-4.165,5.364-5.364ZM58.77,47.162l-5.364,5.364L49.24,48.361,54.6,43Zm2.089,2.088,4.165,4.166L59.661,58.78l-4.167-4.165ZM67.111,55.5l4.165,4.164-5.364,5.365-4.165-4.165ZM69.2,53.416l5.364-5.364,4.171,4.164-5.367,5.364Zm7.452-7.452L82.014,40.6l4.164,4.165-5.361,5.361ZM84.1,38.511l5.364-5.364,4.165,4.164-5.364,5.364Zm-2.088-2.089-4.165-4.165,5.364-5.364,4.17,4.161Zm-6.25-6.255L71.6,26l5.362-5.364L81.125,24.8ZM69.51,23.915l-4.165-4.169,5.364-5.364,4.166,4.165ZM67.424,26l-5.367,5.364L57.889,27.2l5.364-5.364Zm-7.453,7.453L54.6,38.817l-4.165-4.165L55.8,29.288Zm-7.453,7.452-5.364,5.364-4.168-4.164,5.367-5.364ZM40.611,44.484,40.9,44.2l4.164,4.164L41.6,51.827A25.042,25.042,0,0,1,40.611,44.484Zm27.527,22.5,5.228-5.232,2.705,2.705a31.42,31.42,0,0,1-7.933,2.527ZM96.015,34.93l-.292.292-4.164-4.168,3.476-3.476a24.931,24.931,0,0,1,.981,7.352ZM68.488,12.43l-5.232,5.232-2.708-2.709a31.437,31.437,0,0,1,7.94-2.523ZM46.263,34.656l-5.22,5.22a31.687,31.687,0,0,1,2.521-7.92Z"/></g></g></g></g><g transform="translate(578 474)"><g class="d" transform="translate(229 1186)"><rect class="g" width="300" height="250" rx="40"/><rect class="h" x="1" y="1" width="298" height="248" rx="39"/></g><g transform="translate(-51 10)"><text class="e" transform="translate(431 1376)"><tspan x="-111.631" y="0">BADMINTON</tspan></text><g class="f"><g transform="translate(377.138 1212.136)"><path class="a" d="M52.861,101.65A19.267,19.267,0,0,1,33.617,82.406V72.691a1.429,1.429,0,0,1,1.429-1.429H70.677a1.429,1.429,0,0,1,1.429,1.429v9.715A19.233,19.233,0,0,1,52.861,101.65ZM36.474,74.12v8.286a16.387,16.387,0,0,0,32.774,0V74.12Z"/><path class="a" d="M93.32,26.43a1.429,1.429,0,0,1-1.286-2.043l1.829-3.843a1.429,1.429,0,0,1,2.58,1.229l-1.829,3.843a1.429,1.429,0,0,1-1.294.814Z"/><path class="a" d="M70.677,74.12h-9.5a1.429,1.429,0,0,1-1.387-1.772L75.761,7.588a1.429,1.429,0,0,1,.874-.992,33.12,33.12,0,0,1,25.349.013,1.429,1.429,0,0,1,.737,1.934l-1.929,4.045a1.429,1.429,0,0,1-2.572-1.232L99.486,8.7a30.3,30.3,0,0,0-21.13.3L63,71.262h6.773L81.493,46.591a1.429,1.429,0,1,1,2.58,1.226L71.974,73.3a1.429,1.429,0,0,1-1.3.816Z"/><path class="a" d="M87.135,39.46a1.429,1.429,0,0,1-1.286-2.04l1.829-3.857a1.429,1.429,0,0,1,2.583,1.223l-1.829,3.857a1.429,1.429,0,0,1-1.3.817Z"/><path class="a" d="M61.176,74.12H52.861a1.429,1.429,0,0,1-1.429-1.429V7.929A1.429,1.429,0,0,1,52.344,6.6a33.092,33.092,0,0,1,25.349.01,1.429,1.429,0,0,1,.843,1.663L62.563,73.032A1.429,1.429,0,0,1,61.176,74.12ZM54.29,71.262h5.768L75.461,8.8a30.186,30.186,0,0,0-21.172.117Z"/><path class="a" d="M44.546,74.12h-9.5A1.429,1.429,0,0,1,33.76,73.3L3,8.542a1.429,1.429,0,0,1,.741-1.933A33.094,33.094,0,0,1,29.091,6.6a1.429,1.429,0,0,1,.874.991L45.938,72.35a1.429,1.429,0,0,1-1.387,1.77Zm-8.6-2.857h6.769L27.366,9a30.261,30.261,0,0,0-21.13-.3Z"/><path class="a" d="M52.861,74.12H44.546a1.429,1.429,0,0,1-1.387-1.087L27.186,8.271a1.429,1.429,0,0,1,.843-1.663A33.085,33.085,0,0,1,53.378,6.6a1.429,1.429,0,0,1,.911,1.332V72.691A1.429,1.429,0,0,1,52.861,74.12Zm-7.2-2.857h5.768V8.921A30.171,30.171,0,0,0,30.261,8.8Z"/><path class="a" d="M78.834,56.933H26.888a1.429,1.429,0,0,1,0-2.857H78.834a1.429,1.429,0,0,1,0,2.857Z"/><path class="a" d="M70.672,83.84H35.05a1.429,1.429,0,1,1,0-2.857H70.672a1.429,1.429,0,1,1,0,2.857Z"/></g></g></g></g><g transform="translate(910 474)"><g class="d" transform="translate(229 1186)"><rect class="g" width="300" height="250" rx="40"/><rect class="h" x="1" y="1" width="298" height="248" rx="39"/></g><g transform="translate(-51 10)"><text class="e" transform="translate(431 1376)"><tspan x="-98.041" y="0">SWIMMING</tspan></text><g class="f"><g transform="translate(380 1215)"><path class="a" d="M95.809,66.176,90.582,71.4a5.657,5.657,0,0,1-7.99,0,9.131,9.131,0,0,0-12.913,0l0,0a5.786,5.786,0,0,1-7.99,0,9.131,9.131,0,0,0-12.913,0l0,0a5.786,5.786,0,0,1-7.99,0,9.131,9.131,0,0,0-12.913,0l0,0a5.657,5.657,0,0,1-7.99,0,9.131,9.131,0,0,0-12.913,0l0,0L1.727,76.629l2.464,2.464,5.227-5.227a5.786,5.786,0,0,1,7.99,0,9.143,9.143,0,0,0,12.917,0,5.786,5.786,0,0,1,7.99,0,9.143,9.143,0,0,0,12.917,0,5.786,5.786,0,0,1,7.99,0,9.143,9.143,0,0,0,12.917,0,5.786,5.786,0,0,1,7.99,0,9.145,9.145,0,0,0,12.917,0l5.227-5.227Z"/><path class="a" d="M95.809,76.629l-5.227,5.227a5.659,5.659,0,0,1-7.99,0,9.131,9.131,0,0,0-12.913,0l0,0a5.786,5.786,0,0,1-7.99,0,9.131,9.131,0,0,0-12.913,0l0,0a5.786,5.786,0,0,1-7.99,0,9.131,9.131,0,0,0-12.913,0l0,0a5.659,5.659,0,0,1-7.99,0,9.131,9.131,0,0,0-12.913,0l0,0L1.727,87.083l2.464,2.464L9.418,84.32a5.786,5.786,0,0,1,7.99,0,9.143,9.143,0,0,0,12.917,0,5.786,5.786,0,0,1,7.99,0,9.143,9.143,0,0,0,12.917,0,5.786,5.786,0,0,1,7.99,0,9.143,9.143,0,0,0,12.917,0,5.786,5.786,0,0,1,7.99,0,9.145,9.145,0,0,0,12.917,0l5.227-5.227Z"/><path class="a" d="M95.809,87.083,90.582,92.31a5.657,5.657,0,0,1-7.99,0,9.131,9.131,0,0,0-12.913,0l0,0a5.786,5.786,0,0,1-7.99,0,9.131,9.131,0,0,0-12.913,0l0,0a5.786,5.786,0,0,1-7.99,0,9.131,9.131,0,0,0-12.913,0l0,0a5.657,5.657,0,0,1-7.99,0,9.131,9.131,0,0,0-12.913,0l0,0L1.727,97.536,4.191,100l5.227-5.227a5.786,5.786,0,0,1,7.99,0,9.143,9.143,0,0,0,12.917,0,5.786,5.786,0,0,1,7.99,0,9.143,9.143,0,0,0,12.917,0,5.786,5.786,0,0,1,7.99,0,9.143,9.143,0,0,0,12.917,0,5.786,5.786,0,0,1,7.99,0,9.145,9.145,0,0,0,12.917,0l5.227-5.227Z"/><path class="a" d="M73.881,50.5,50.43,27.047a2.052,2.052,0,0,1,0-2.9h0L64.3,10.276a6.063,6.063,0,0,0,0-8.561,6.2,6.2,0,0,0-8.563,0l-14.1,14.1a13.846,13.846,0,0,0,0,19.564L45.162,38.9,19.15,64.913l2.464,2.464L48.859,40.131a1.742,1.742,0,0,0,0-2.464L44.1,32.911a10.361,10.361,0,0,1,0-14.635l14.1-14.1a2.631,2.631,0,0,1,3.633,0,2.573,2.573,0,0,1,0,3.634L47.967,21.68a5.535,5.535,0,0,0,0,7.828l0,0L71.418,52.961,87.1,68.641l2.464-2.464Z"/><path class="a" d="M74.392,20.367A10.454,10.454,0,1,0,84.845,30.82,10.453,10.453,0,0,0,74.392,20.367Zm0,17.423a6.969,6.969,0,1,1,6.969-6.969A6.969,6.969,0,0,1,74.392,37.789Z"/><path class="a" d="M67.783,56.593a1.742,1.742,0,0,0-2.464,0l-7.84,7.84L59.943,66.9l6.608-6.608L73.16,66.9l2.464-2.464Z"/></g></g></g></g><g transform="translate(1242 474)"><g class="d" transform="translate(229 1186)"><rect class="g" width="300" height="250" rx="40"/><rect class="h" x="1" y="1" width="298" height="248" rx="39"/></g><g transform="translate(-51 10)"><text class="e" transform="translate(431 1376)"><tspan x="-79.637" y="0">KABADDI</tspan></text><g class="f"><g transform="translate(380 1215)"><path class="a" d="M99.422,69.5l-4.767-4.729A1.954,1.954,0,0,0,91.9,67.55l4.767,4.729A1.954,1.954,0,0,0,99.422,69.5Z"/><path class="a" d="M89.8,59.938a1.954,1.954,0,0,0-2.763,0l0,0a1.954,1.954,0,1,0,2.766,0Z"/><path class="a" d="M73.143,68.945,92.094,49.995a7.356,7.356,0,0,0-3.55-12.375,7.364,7.364,0,0,0-5.427-10.357,7.349,7.349,0,0,0-5.733-9.555A7.365,7.365,0,0,0,66.877,8.927l-.188-.2a13.036,13.036,0,0,0-9.512-4.142H41.836a1.954,1.954,0,0,0-1.954,1.954V9.1a8.875,8.875,0,0,0,.505,2.962,7.362,7.362,0,0,0-9.812,9.112,7.361,7.361,0,0,0-5.742,9.556,7.361,7.361,0,0,0-5.422,10.352,7.362,7.362,0,0,0-3.551,12.379l3.9,3.9L.572,76.541A1.954,1.954,0,1,0,3.335,79.3L22.706,59.933a7.357,7.357,0,0,0,10.989-6.7c.1,0,.2.007.3.007a7.355,7.355,0,0,0,7.361-7.358c0-.1,0-.2-.007-.3.1,0,.2.007.294.007A7.355,7.355,0,0,0,49,38.236c0-.1,0-.2-.007-.3.1,0,.2.007.294.007a7.358,7.358,0,0,0,5.694-12.024L67.949,12.955a3.454,3.454,0,1,1,4.885,4.885l-1.912,1.912-6.937,6.937a1.954,1.954,0,1,0,2.762,2.763l6.937-6.937A3.454,3.454,0,1,1,78.57,27.4l-1.912,1.912-5.025,5.025A1.954,1.954,0,1,0,74.4,37.1l5.025-5.025a3.454,3.454,0,1,1,4.885,4.885l-2.624,2.624-2.4,2.4a1.954,1.954,0,1,0,2.762,2.763l2.4-2.4a3.455,3.455,0,0,1,4.884,4.887L70.378,66.183A26.464,26.464,0,0,1,52.57,73.941a1.953,1.953,0,0,0-1.313.574L33.751,92.086a1.953,1.953,0,1,0,2.768,2.758L49.395,81.92a18.158,18.158,0,0,0,11.028,2.837L70.5,94.835a1.954,1.954,0,0,0,2.762-2.763L62.548,81.356a1.955,1.955,0,0,0-1.541-.566l-.619.051a14.26,14.26,0,0,1-8.152-1.774l1.255-1.26A30.354,30.354,0,0,0,73.143,68.945ZM28.787,55.975a3.454,3.454,0,0,1-4.885,0L18.623,50.7a3.455,3.455,0,1,1,4.885-4.886l5.279,5.278A3.459,3.459,0,0,1,28.787,55.975Zm7.648-7.648a3.459,3.459,0,0,1-4.886,0l-5.279-5.279-2.625-2.625a3.454,3.454,0,1,1,4.885-4.885l7.9,7.9h0a3.455,3.455,0,0,1,0,4.886Zm7.648-7.648a3.459,3.459,0,0,1-4.886,0l-9.815-9.815a3.454,3.454,0,0,1,4.884-4.887L38.74,30.45l5.343,5.343h0a3.455,3.455,0,0,1,0,4.885Zm7.648-7.648a3.458,3.458,0,0,1-4.885,0l-9.815-9.815,0,0L35.119,21.3A3.455,3.455,0,0,1,40,16.418L51.731,28.145a3.455,3.455,0,0,1,0,4.886Zm.514-9.9-5.366-5.366a8.938,8.938,0,0,0,1.871.2h.043l5.361-.025a1.954,1.954,0,0,0-.009-3.907h-.009l-5.361.025h-.024A4.962,4.962,0,0,1,43.789,9.1V8.489H57.175a9.117,9.117,0,0,1,6.653,2.9l.079.085Z"/></g></g></g></g></g></svg>