<svg xmlns="http://www.w3.org/2000/svg" xmlns:xlink="http://www.w3.org/1999/xlink" width="334" height="823.5" viewBox="0 0 334 823.5"><defs><style>.a,.c,.e{fill:#fff;}.b,.h{fill:none;}.b{stroke:#fff;}.b,.d{stroke-width:2px;}.c{font-size:18px;font-family:OpenSans-SemiBold, Open Sans;font-weight:600;}.c,.e{letter-spacing:0.075em;}.d{stroke:rgba(255,255,255,0.6);fill:url(#c);}.e{font-size:16px;font-family:OpenSans-Bold, Open Sans;font-weight:700;}.f{clip-path:url(#d);}.g{stroke:none;}.i{filter:url(#a);}</style><filter id="a" x="57.5" y="738.5" width="223" height="85" filterUnits="userSpaceOnUse"><feOffset dy="3" input="SourceAlpha"/><feGaussianBlur stdDeviation="7.5" result="b"/><feFlood flood-opacity="0.8"/><feComposite operator="in" in2="b"/><feComposite in="SourceGraphic"/></filter><linearGradient id="c" x1="0.056" y1="0.05" x2="0.958" y2="0.95" gradientUnits="objectBoundingBox"><stop offset="0" stop-color="#fff" stop-opacity="0.4"/><stop offset="1" stop-color="#fff" stop-opacity="0.051"/></linearGradient><clipPath id="d"><rect class="a" width="51" height="50" transform="translate(20.35 0.401)"/></clipPath></defs><g transform="translate(-38 -945)"><g transform="translate(118 1703)"><g class="i" transform="matrix(1, 0, 0, 1, -80, -758)"><g class="b" transform="translate(80 758)"><rect class="g" width="178" height="40" rx="20"/><rect class="h" x="1" y="1" width="176" height="38" rx="19"/></g></g><text class="c" transform="translate(89 27)"><tspan x="-65.099" y="0">Register Now</tspan></text></g><g transform="translate(-191 -241)"><g class="d" transform="translate(229 1186)"><rect class="g" width="151" height="126" rx="20"/><rect class="h" x="1" y="1" width="149" height="124" rx="19"/></g><g transform="translate(258.65 1205.599)"><text class="e" transform="translate(46.35 80.401)"><tspan x="-45.891" y="0">FOOTBALL</tspan></text><g class="f"><path class="a" d="M25,0A25,25,0,1,0,50,25,25,25,0,0,0,25,0ZM44.361,11.992l-1.733,7.365L33.5,22.4l-7.667-6.132V7.231l8.75-3.5a23.475,23.475,0,0,1,9.777,8.261Zm.139,25.8-8.264,1.3-4.5-5.944,2.292-9.167,9.027-3.008,5.171,6.2A23.181,23.181,0,0,1,44.5,37.788ZM13.8,39.1,5.5,37.788A23.184,23.184,0,0,1,1.775,27.176l5.167-6.2,9.027,3.008,2.292,9.172ZM1.674,24.689A23.182,23.182,0,0,1,4.408,14.04L5.76,19.79ZM19.817,32.5l-2.211-8.852L25,17.734l7.4,5.917L30.183,32.5ZM44.24,19.787l1.352-5.75a23.181,23.181,0,0,1,2.734,10.649ZM32.311,2.846,25,5.77,17.65,2.859a23.248,23.248,0,0,1,14.661-.013Zm-16.934.9,8.79,3.483v9.033L16.5,22.4,7.372,19.357,5.639,11.992A23.48,23.48,0,0,1,15.377,3.75ZM6.892,39.695l6.774,1.07,4.1,6.417A23.41,23.41,0,0,1,6.893,39.695Zm13.26,8.129L15.18,40.038l4.4-5.872H30.417l4.467,5.9L30.55,47.661a23.261,23.261,0,0,1-10.4.167Zm12.712-.858,3.552-6.216,6.694-1.056A23.423,23.423,0,0,1,32.865,46.966Zm0,0" transform="translate(20.85 0.401)"/></g></g></g><g transform="translate(-8 -241)"><g class="d" transform="translate(229 1186)"><rect class="g" width="151" height="126" rx="20"/><rect class="h" x="1" y="1" width="149" height="124" rx="19"/></g><g transform="translate(258.65 1205.599)"><text class="e" transform="translate(46.35 80.401)"><tspan x="-57.738" y="0">BASKET BALL</tspan></text><g class="f"><g transform="translate(20.85 0.401)"><path class="a" d="M25,0A25,25,0,1,0,50,25,25.028,25.028,0,0,0,25,0Zm0,48.333A23.333,23.333,0,1,1,48.333,25,23.36,23.36,0,0,1,25,48.333Z"/><path class="a" d="M48.172,32.515c-3.83-2.4-6.5-9.6-6.5-17.515a33.784,33.784,0,0,1,.781-7.341A.834.834,0,1,0,40.82,7.3,35.5,35.5,0,0,0,40,15c0,8.6,2.929,16.2,7.288,18.928a.833.833,0,1,0,.883-1.412Z"/><path class="a" d="M18.793.957a.838.838,0,0,0-.536-.029A25,25,0,1,0,36.8,47.042a.836.836,0,0,0,.423-.571l.267-1.341.017-.109a50.071,50.071,0,0,0,.826-7.938C38.333,20.178,30.481,5.66,18.793.957Zm17.068,43.8-.2,1A23.334,23.334,0,1,1,18.433,2.61C29.351,7.175,36.667,20.98,36.667,37.083A48.76,48.76,0,0,1,35.862,44.759Z"/><path class="a" d="M19.435,43.378a21.644,21.644,0,0,1-4.814-2.41.833.833,0,1,0-.909,1.4,23.264,23.264,0,0,0,5.186,2.59.845.845,0,0,0,.269.045.833.833,0,0,0,.268-1.622Z"/><path class="a" d="M10.65,37.812c-.2-.242-.408-.5-.629-.76a14.319,14.319,0,0,1-1.777-2.428.833.833,0,0,0-1.488.75,15.446,15.446,0,0,0,1.989,2.75c.213.253.418.5.6.73a.833.833,0,1,0,1.3-1.042Z"/><path class="a" d="M48.333,17.845c-24.4-.194-38.784,7.983-46.562,14.9A.833.833,0,1,0,2.878,34c7.559-6.728,21.59-14.681,45.439-14.483h.008a.833.833,0,0,0,.008-1.667Z"/><path class="a" d="M7.584,8.333c-.254,0-.507-.011-.759-.023a.833.833,0,0,0-.079,1.665c.278.013.558.025.838.025,11.028,0,20,10.654,20,23.75A26.39,26.39,0,0,1,23.49,48.677a.834.834,0,0,0,1.378.938A28.044,28.044,0,0,0,29.251,33.75C29.251,19.735,19.531,8.333,7.584,8.333Z"/></g></g></g></g><g transform="translate(-191 -91)"><g class="d" transform="translate(229 1186)"><rect class="g" width="151" height="126" rx="20"/><rect class="h" x="1" y="1" width="149" height="124" rx="19"/></g><g transform="translate(258.65 1205.599)"><text class="e" transform="translate(46.35 80.401)"><tspan x="-55.412" y="0">VOLLEYBALL</tspan></text><g class="f"><g transform="translate(19.422 -1.028)"><path class="a" d="M26.429,51.429a25,25,0,1,1,25-25A25,25,0,0,1,26.429,51.429Zm0-48.571A23.571,23.571,0,1,0,50,26.429,23.571,23.571,0,0,0,26.429,2.857Z"/><path class="a" d="M26.429,27.143a.724.724,0,0,1-.214-.033.714.714,0,0,1-.466-.9c4.089-12.951-6.6-22.434-6.712-22.528a.714.714,0,0,1,.936-1.08c.116.1,11.515,10.179,7.139,24.038a.714.714,0,0,1-.681.5Z"/><path class="a" d="M34.607,32.615a.714.714,0,0,1-.676-.946C38.3,18.911,32.574,8.066,28.776,2.74a.715.715,0,0,1,1.164-.83c3.957,5.553,9.914,16.863,5.344,30.225a.714.714,0,0,1-.676.48Z"/><path class="a" d="M41.7,33.894a.723.723,0,0,1-.28-.058.714.714,0,0,1-.376-.938c4.828-11.3.521-21.628-2.471-26.781A.714.714,0,1,1,39.806,5.4c3.129,5.387,7.623,16.191,2.551,28.061A.714.714,0,0,1,41.7,33.894Z"/><path class="a" d="M4.086,36.66a.714.714,0,0,1-.649-1.011c2.83-6.2,9.646-17.017,23.5-19.741a.714.714,0,0,1,.276,1.4c-13.228,2.6-19.76,12.975-22.476,18.931a.714.714,0,0,1-.65.418Z"/><path class="a" d="M2.147,26.429a.714.714,0,0,1-.619-1.071c3.1-5.4,10.209-14.7,23.025-16.241a.714.714,0,0,1,.171,1.418C12.528,12,5.733,20.9,2.768,26.071a.714.714,0,0,1-.621.357Z"/><path class="a" d="M41.971,41.918c-7.095,0-17.2-1.844-24.909-10.672a.716.716,0,0,1,1.08-.94c8.866,10.157,21.119,10.629,27.634,10a.714.714,0,0,1,.136,1.422C44.755,41.84,43.429,41.918,41.971,41.918Z"/><path class="a" d="M26.679,46.779a.714.714,0,0,1-.219-.035c-.65-.21-1.322-.459-2.054-.763a.714.714,0,0,1,.547-1.32c.7.286,1.333.526,1.946.724a.714.714,0,0,1-.219,1.394Z"/><path class="a" d="M14.721,39.121a.714.714,0,0,1-.525-.229,27.164,27.164,0,0,1-1.819-2.186.714.714,0,1,1,1.143-.857,25.538,25.538,0,0,0,1.723,2.071.714.714,0,0,1-.524,1.2Z"/><path class="a" d="M20.221,43.736a.709.709,0,0,1-.382-.111c-.649-.411-1.232-.812-1.781-1.224a.714.714,0,0,1,.857-1.143c.519.389,1.071.769,1.69,1.161a.714.714,0,0,1-.384,1.317Z"/><path class="a" d="M37.794,48.529a37.793,37.793,0,0,1-6.139-.5.715.715,0,1,1,.233-1.41,36.428,36.428,0,0,0,6.059.484h0a.714.714,0,1,1,0,1.429Z"/><path class="a" d="M9.729,44.781a.734.734,0,0,1-.136-.013.714.714,0,0,1-.566-.836c.029-.15,3.057-15.062,17.248-18.2a.715.715,0,0,1,.309,1.4C13.3,30.064,10.456,44.061,10.429,44.2a.714.714,0,0,1-.7.579Z"/><path class="a" d="M42.424,33.877A21.755,21.755,0,0,1,25.9,26.911a.714.714,0,0,1,1.054-.964c9.171,10.017,22.73,5.5,22.866,5.451a.714.714,0,1,1,.466,1.35A26.9,26.9,0,0,1,42.424,33.877Z"/></g></g></g></g><g transform="translate(-8 -91)"><g class="d" transform="translate(229 1186)"><rect class="g" width="151" height="126" rx="20"/><rect class="h" x="1" y="1" width="149" height="124" rx="19"/></g><g transform="translate(258.65 1205.599)"><text class="e" transform="translate(46.35 80.401)"><tspan x="-35.371" y="0">HOCKEY</tspan></text><g class="f"><g transform="translate(20.85 0.401)"><path class="a" d="M48.125.106a.743.743,0,0,0-1.019.255L37.781,15.9a.743.743,0,1,0,1.274.764L48.38,1.125A.742.742,0,0,0,48.125.106Z"/><path class="a" d="M40.62.106A.743.743,0,0,0,39.6.361L15.526,40.487A3.279,3.279,0,0,1,9.9,37.118,3.96,3.96,0,1,0,3.1,33.05a11.221,11.221,0,0,0-1.077,2.4.743.743,0,0,0,1.417.445,9.729,9.729,0,0,1,.934-2.078,2.475,2.475,0,0,1,4.247,2.543A4.764,4.764,0,0,0,16.8,41.25L27.034,24.193,29.082,30.4l-4.2,7a6.36,6.36,0,0,0-4.912,7.858,9.714,9.714,0,0,1-16.95-7.1.743.743,0,0,0-1.482-.1,11.2,11.2,0,0,0,19.046,8.7,6.358,6.358,0,1,0,6.087-9.461l10.872-18.12a.743.743,0,0,0-1.274-.764l-3.618,6.03L30.6,18.244,40.875,1.125A.743.743,0,0,0,40.62.106ZM30.994,43.64a4.875,4.875,0,1,1-4.875-4.875A4.88,4.88,0,0,1,30.994,43.64Zm.648-17.506L30.091,28.72l-2.048-6.209,1.551-2.585Z"/></g></g></g></g><g transform="translate(-191 59)"><g class="d" transform="translate(229 1186)"><rect class="g" width="151" height="126" rx="20"/><rect class="h" x="1" y="1" width="149" height="124" rx="19"/></g><g transform="translate(258.65 1205.599)"><text class="e" transform="translate(46.35 80.401)"><tspan x="-62.381" y="0">TABLE TENNIS</tspan></text><g class="f"><g transform="translate(20.85 0.401)"><path class="a" d="M44.794,4.913c-5.643-5.643-15.237-6.5-23.52-2.179a8.335,8.335,0,0,0-11.4,12.14A16.289,16.289,0,0,0,8.7,19.885a.96.96,0,0,0-.038.183,15.3,15.3,0,0,0,.091,2.708.059.059,0,0,1,0,.012A15.774,15.774,0,0,0,9.033,24.4c.013.055.025.11.038.165.123.513.269,1.024.443,1.532.022.064.048.128.07.193.184.516.387,1.029.624,1.538a6.388,6.388,0,0,1,.5,4.191c-.033.135-.079.262-.118.394-.051.173-.1.35-.156.516s-.128.309-.194.462c-.056.132-.1.268-.167.4-.084.174-.185.34-.282.507-.058.1-.107.2-.168.3-.113.18-.244.351-.373.524-.058.078-.108.159-.168.236-.148.186-.314.363-.48.541-.053.058-.1.118-.155.174-.179.181-.374.355-.572.526-.055.048-.1.1-.16.147-.235.2-.489.387-.752.574-.028.02-.051.041-.079.061q-.44.308-.933.6A34.324,34.324,0,0,0,2.55,40.229L1.223,41.25a2.448,2.448,0,0,0-.239,3.672l4.362,4.362A2.445,2.445,0,0,0,7.076,50c.06,0,.12,0,.18-.007a2.447,2.447,0,0,0,1.785-.981l1.373-1.846c.4-.532.789-1.114,1.188-1.744.273-.432.548-.883.828-1.371q.282-.489.578-.927a9.921,9.921,0,0,1,2.581-2.67c.033-.023.064-.051.1-.073.18-.12.369-.224.556-.328.074-.042.145-.091.221-.13.166-.086.34-.156.513-.231.105-.046.205-.1.313-.14.151-.058.31-.1.466-.153.138-.044.271-.1.412-.134a6.086,6.086,0,0,1,3.539.178c.222.075.434.153.621.235l.024.009c.372.16.747.3,1.121.435.1.034.192.066.289.1q.523.175,1.049.314l.1.028a15.438,15.438,0,0,0,4.711.475.923.923,0,0,0,.135-.028c4.393-.284,8.743-2.441,12.708-6.4C51.144,25.926,52.211,12.329,44.794,4.913ZM11.122,4.337a6.673,6.673,0,0,1,9.438,9.437,6.572,6.572,0,0,1-.5.448c-.061.05-.126.093-.188.139-.113.085-.224.173-.34.25-.078.053-.16.1-.24.145-.1.063-.208.128-.314.186-.09.048-.183.088-.274.131s-.2.1-.3.141-.2.074-.3.11-.2.073-.3.1-.211.058-.318.084-.194.051-.292.071-.225.039-.338.057c-.093.014-.185.03-.278.04-.121.013-.243.02-.365.027-.084.005-.169.011-.254.013-.132,0-.263,0-.394-.008-.074,0-.148-.005-.221-.011-.143-.011-.285-.028-.428-.048-.06-.008-.12-.016-.179-.026-.155-.026-.309-.058-.463-.1l-.133-.033c-.168-.044-.335-.1-.5-.153l-.081-.028q-.269-.1-.531-.219L13,15.086a6.686,6.686,0,0,1-1.6-1.057l-.181-.162c-.033-.033-.07-.06-.1-.093A6.682,6.682,0,0,1,11.122,4.337ZM7.7,48.017a.779.779,0,0,1-1.176.086L2.165,43.741a.781.781,0,0,1,.076-1.17L3.568,41.55a32.39,32.39,0,0,1,3.24-2.142,14.747,14.747,0,0,0,2.026-1.43h0q.45-.382.848-.79c.023-.024.042-.05.065-.073.239-.25.467-.506.676-.771.033-.042.059-.088.092-.13.192-.25.376-.5.542-.768.04-.064.072-.134.111-.2.148-.248.293-.5.419-.756.038-.078.066-.162.1-.242.115-.253.229-.506.324-.771.031-.088.053-.181.082-.269.085-.259.171-.517.239-.787,0-.006,0-.012,0-.017a.012.012,0,0,1,0-.005,7.938,7.938,0,0,0-.615-5.279c-.1-.2-.168-.41-.254-.615a14.6,14.6,0,0,1-1.146-4.832L28.014,39.366H28c-.4-.023-.791-.066-1.186-.123-.029,0-.058-.007-.088-.012-.375-.057-.75-.133-1.124-.221-.046-.011-.092-.018-.138-.03-.362-.089-.723-.2-1.084-.314-.054-.018-.108-.031-.163-.049-.41-.139-.818-.3-1.225-.471a9.225,9.225,0,0,0-1.782-.563c-.078-.016-.155-.038-.232-.051s-.149-.019-.224-.031c-.148-.023-.3-.047-.444-.06-.028,0-.056,0-.083,0-.194-.016-.386-.028-.578-.029h-.018q-.319,0-.634.023c-.06.005-.118.016-.178.023-.155.017-.309.033-.462.059-.174.03-.345.071-.516.114-.036.009-.072.014-.108.024h0l-.01,0c-.33.09-.649.2-.96.314l-.073.023c-.309.118-.607.254-.9.4-.026.013-.054.023-.079.036-.276.141-.541.3-.8.466-.038.024-.078.043-.117.068-.269.178-.53.373-.785.579-.025.02-.052.036-.076.057a13.021,13.021,0,0,0-2.952,3.623A29.9,29.9,0,0,1,9.075,46.17ZM30.31,39.31c-.008-.008-.011-.018-.018-.025L10.41,19.4,10.4,19.4a14.6,14.6,0,0,1,.807-3.406,8.219,8.219,0,0,0,1.237.675l.052.024c.185.081.373.153.562.22l.156.054c.172.057.345.108.52.153.073.019.145.036.218.053.163.038.326.073.491.1.087.015.174.026.262.038.155.022.31.043.467.055.1.008.2.01.3.014.124.006.249.018.374.018.023,0,.046,0,.068,0,.129,0,.259-.012.388-.018.207-.011.412-.029.618-.056.152-.019.3-.038.454-.065.107-.02.212-.047.318-.071.143-.032.284-.064.425-.1.106-.03.211-.065.316-.1.138-.045.276-.092.412-.144.1-.04.206-.083.308-.127q.2-.088.4-.187c.1-.048.2-.1.292-.151.136-.074.269-.155.4-.238.088-.055.177-.108.264-.167.144-.1.284-.2.424-.311.07-.054.142-.1.21-.161.205-.169.4-.347.6-.539s.377-.4.549-.607c.06-.073.112-.15.169-.224.107-.139.213-.278.309-.421.062-.093.117-.188.174-.282.081-.131.162-.262.234-.4.056-.1.106-.209.157-.315.063-.129.125-.259.181-.39.048-.112.089-.225.132-.339.048-.129.094-.259.136-.39s.072-.238.1-.358.066-.257.094-.386.052-.249.073-.374.039-.254.055-.38.031-.259.041-.388.013-.246.018-.37.009-.269.008-.4c0-.118-.01-.234-.017-.352-.008-.139-.014-.279-.029-.418-.012-.107-.03-.214-.046-.32-.022-.148-.041-.3-.07-.444-.016-.078-.038-.153-.056-.23a8.351,8.351,0,0,0-.585-1.681c-.037-.078-.069-.157-.108-.234-.071-.138-.152-.273-.231-.408-.058-.093-.109-.188-.168-.279-.079-.123-.166-.243-.252-.363-.051-.072-.1-.146-.15-.216C30,.239,38.577,1.054,43.615,6.093c6.776,6.776,5.711,19.292-2.327,27.331C37.782,36.929,34.072,38.9,30.31,39.31Z"/><path class="a" d="M12.505,9.055a3.34,3.34,0,0,1,3.337-3.337.834.834,0,0,0,0-1.668,5.01,5.01,0,0,0-5.005,5.005.834.834,0,1,0,1.668,0Z"/></g></g></g></g><g transform="translate(-8 59)"><g class="d" transform="translate(229 1186)"><rect class="g" width="151" height="126" rx="20"/><rect class="h" x="1" y="1" width="149" height="124" rx="19"/></g><g transform="translate(258.65 1205.599)"><text class="e" transform="translate(46.35 80.401)"><tspan x="-36.151" y="0">CRICKET</tspan></text><g class="f"><g transform="translate(19.423 -1.027)"><path class="a" d="M22.278,32.043a.714.714,0,0,1-.5-.209l-1.486-1.486a.714.714,0,1,1,1.01-1.01l1.486,1.486a.714.714,0,0,1-.5,1.219Z"/><path class="a" d="M41.671,51.428a.714.714,0,0,1-.5-.209L30.33,40.391A.714.714,0,0,1,31.34,39.38L41.911,49.94c4.586-.949,7.221-3.579,8.04-8.026L22.9,14.857l-4.03,1.054-2.955,2.955L14.857,22.9l2.9,2.9a.714.714,0,1,1-1.01,1.01l-3.193-3.193a.714.714,0,0,1-.186-.686l1.207-4.614a.709.709,0,0,1,.186-.324l3.229-3.229a.709.709,0,0,1,.324-.186l4.614-1.207a.714.714,0,0,1,.686.186l27.6,27.607a.714.714,0,0,1,.2.617c-.857,5.378-4.093,8.619-9.619,9.633a.665.665,0,0,1-.127.012Z"/><path class="a" d="M27.3,37.064a.714.714,0,0,1-.5-.209l-1.486-1.486a.715.715,0,0,1,1.01-1.012L27.8,35.843a.714.714,0,0,1-.5,1.219Z"/><path class="a" d="M15.271,19.214a.709.709,0,0,1-.5-.209L2.307,6.549A3,3,0,1,1,6.549,2.307L19.008,14.766a.714.714,0,0,1,0,1.01l-3.232,3.232a.709.709,0,0,1-.5.206ZM4.429,2.857A1.571,1.571,0,0,0,3.317,5.539L15.271,17.493l2.222-2.222L5.539,3.317a1.564,1.564,0,0,0-1.111-.46Z"/><path class="a" d="M39.375,23.558a5.246,5.246,0,1,1,3.709-1.536,5.246,5.246,0,0,1-3.709,1.536Zm0-9.064a3.818,3.818,0,1,0,2.7,1.119,3.818,3.818,0,0,0-2.7-1.119Z"/><path class="a" d="M33.914,43.671a.714.714,0,0,1-.5-1.219l9.043-9.043a.714.714,0,1,1,1.01,1.01l-9.043,9.043A.714.714,0,0,1,33.914,43.671Z"/><path class="a" d="M37.107,46.864a.714.714,0,0,1-.5-1.219L45.643,36.6a.714.714,0,1,1,1.01,1.01L37.61,46.655a.714.714,0,0,1-.5.209Z"/></g></g></g></g><g transform="translate(-191 209)"><g class="d" transform="translate(229 1186)"><rect class="g" width="151" height="126" rx="20"/><rect class="h" x="1" y="1" width="149" height="124" rx="19"/></g><g transform="translate(258.65 1205.599)"><text class="e" transform="translate(46.35 80.401)"><tspan x="-32.176" y="0">TENNIS</tspan></text><g class="f"><g transform="translate(18.847 -1.603)"><path class="a" d="M43.649,42.865a.014.014,0,0,0,0-.012.723.723,0,0,0-.084-.137,5.794,5.794,0,0,0-9.647.008.731.731,0,0,0-.08.13v0a5.753,5.753,0,0,0,0,6.16v0a.7.7,0,0,0,.08.13,5.791,5.791,0,0,0,9.7-.084c.01-.016.023-.03.031-.047l0-.012a5.749,5.749,0,0,0,0-6.145ZM34.82,47.76a4.273,4.273,0,0,1,0-3.64,10.29,10.29,0,0,0,7.836,0,4.27,4.27,0,0,1,0,3.639,10.374,10.374,0,0,0-7.836,0Zm6.962-4.887a8.867,8.867,0,0,1-6.091,0,4.315,4.315,0,0,1,6.091,0Zm-6.089,6.132a8.866,8.866,0,0,1,6.091,0,4.315,4.315,0,0,1-6.091,0Z"/><path class="a" d="M45.755,31.641c.031-.031.065-.059.1-.09,0,0,.007-.01.012-.014C53.289,24.1,54.09,12.808,47.645,6.363A15.409,15.409,0,0,0,35.369,2.054,20.531,20.531,0,0,0,22.474,8.143c-.005.005-.012.008-.017.014-.037.037-.071.077-.108.114q-.38.384-.735.784l-.01.011a20.931,20.931,0,0,0-4.56,8.175l0,.009a65.113,65.113,0,0,0-2.64,12.5,33.093,33.093,0,0,1-1.453,7.138.735.735,0,0,0-.759.174L2.222,47.03a.738.738,0,0,0,0,1.044l3.713,3.713a.738.738,0,0,0,1.044,0l7.78-7.78,2.188-2.188a.726.726,0,0,0,.093-.114.7.7,0,0,0,.042-.082c.008-.015.017-.03.024-.045a.727.727,0,0,0,.03-.1c0-.014.009-.027.012-.042a.718.718,0,0,0,.014-.141v0a.745.745,0,0,0-.014-.143c0-.014-.008-.026-.012-.04s-.01-.036-.016-.054a33.1,33.1,0,0,1,7.138-1.453,64.984,64.984,0,0,0,12.5-2.64l.01,0a20.941,20.941,0,0,0,8.18-4.565c.278-.246.547-.5.811-.758ZM35.478,3.527q.624-.047,1.237-.046A13.741,13.741,0,0,1,46.6,7.407c5.873,5.874,5.068,16.235-1.795,23.1-.03.03-.061.058-.092.088a21.948,21.948,0,0,1-8.418,4.97,17.566,17.566,0,0,1-3.465.618A13.957,13.957,0,0,1,21.708,32.3a13.964,13.964,0,0,1-3.882-11.123,17.594,17.594,0,0,1,.617-3.464,21.972,21.972,0,0,1,4.954-8.4c.035-.036.068-.073.1-.108A19.057,19.057,0,0,1,35.478,3.527Zm-22.766,35.1L15.381,41.3,14.238,42.44l-2.669-2.669ZM6.456,50.221,3.788,47.551l6.737-6.736,2.669,2.669Zm17.6-12.078c-3.453.486-6.249.881-7.965,1.772l-2-2c.89-1.716,1.286-4.512,1.772-7.965.206-1.467.424-3.011.7-4.588A14.687,14.687,0,0,0,28.649,37.448C27.068,37.72,25.523,37.937,24.054,38.142Z"/><path class="a" d="M20.9,14.456A17.423,17.423,0,0,0,19.007,20.1a.744.744,0,0,0-.035.229q-.1.738-.127,1.47a.736.736,0,0,0-.005.222,13.772,13.772,0,0,0,.955,5.5.77.77,0,0,0,.033.077,12.041,12.041,0,0,0,2.618,3.956l.008.009.009.008A12.7,12.7,0,0,0,31.6,35.189c.154,0,.311-.005.467-.011h.027c.284-.009.569-.024.857-.049s.58-.061.868-.1l.027,0a18.243,18.243,0,0,0,10.213-5.262,18.247,18.247,0,0,0,5.265-10.217.145.145,0,0,1,0-.027q.063-.434.1-.869c.025-.29.042-.583.05-.871v0a12.781,12.781,0,0,0-3.621-9.617l0,0,0,0A12.935,12.935,0,0,0,35.36,4.578a18.084,18.084,0,0,0-11.111,5.37,19.194,19.194,0,0,0-3.274,4.363A.711.711,0,0,0,20.9,14.456Zm3.887-2.93L26.858,13.6l-2.681,2.682L22.5,14.607a17.716,17.716,0,0,1,2.283-3.082ZM28.9,8.2l1.68,1.679L27.9,12.557l-2.076-2.076A17.824,17.824,0,0,1,28.9,8.2Zm7.8-2.2a12.39,12.39,0,0,1,3.515.5L38.48,8.231,36.4,6.148,36.546,6c.054,0,.108,0,.162,0Zm7.563,2.7L41.61,11.358,39.527,9.276l2.215-2.214A10.633,10.633,0,0,1,44.27,8.7Zm2.679,3.575-2.214,2.214L42.654,12.4l2.662-2.662a10.63,10.63,0,0,1,1.633,2.53Zm-.417,11.464-1.353-1.353,2.614-2.616a15.722,15.722,0,0,1-1.263,3.969Zm-3.006,4.45L41.453,26.11l2.682-2.682L45.813,25.1a17.808,17.808,0,0,1-2.286,3.08ZM39.4,31.514l-1.678-1.678,2.682-2.682,2.075,2.075A17.806,17.806,0,0,1,39.4,31.512Zm-11.312,1.7,1.738-1.739,2.083,2.083-.146.145a12.447,12.447,0,0,1-3.675-.491Zm-4.051-2.2L26.7,28.354l2.082,2.083L26.573,32.65a10.632,10.632,0,0,1-2.532-1.638Zm-2.677-3.577,2.211-2.211,2.083,2.083L23,29.969a10.586,10.586,0,0,1-1.631-2.533ZM35.2,19.857l2.681-2.684,2.083,2.083-2.682,2.682Zm1.038,3.127-2.682,2.682-2.083-2.083L34.156,20.9ZM34.155,18.81l-2.083-2.082,2.683-2.683,2.082,2.083Zm-1.044,1.044-2.682,2.682-2.083-2.083,2.682-2.682Zm-3.726,3.726L26.7,26.263,24.62,24.181,27.3,21.5Zm1.044,1.044,2.083,2.083L29.83,29.39l-2.083-2.083Zm3.126,3.127,2.083,2.082-2.682,2.683-2.083-2.083ZM34.6,26.708l2.682-2.682,2.086,2.082L36.683,28.79Zm3.726-3.726L41.007,20.3l2.082,2.083-2.681,2.681Zm3.726-3.726,2.682-2.682,2.083,2.082-2.682,2.682Zm-1.044-1.044-2.083-2.083,2.682-2.682,2.085,2.081Zm-3.125-3.127L35.8,13,38.48,10.32,40.563,12.4Zm-3.126-3.126L32.672,9.873l2.682-2.682,2.083,2.083ZM33.712,13l-2.683,2.682L28.944,13.6l2.682-2.682Zm-3.726,3.726L27.3,19.409,25.22,17.326,27.9,14.644Zm-3.726,3.726-2.682,2.682-2.084-2.082,2.683-2.682Zm-5.954,1.788.143-.143,2.082,2.082L20.8,25.914A12.521,12.521,0,0,1,20.305,22.242Zm13.763,11.25,2.614-2.616,1.353,1.353a15.71,15.71,0,0,1-3.967,1.263ZM48.007,17.465l-.146.146-2.082-2.084,1.738-1.738a12.465,12.465,0,0,1,.49,3.676ZM34.244,6.215,31.628,8.831,30.274,7.477a15.719,15.719,0,0,1,3.97-1.262ZM23.131,17.328l-2.61,2.61a15.843,15.843,0,0,1,1.26-3.96Z"/></g></g></g></g><g transform="translate(-8 209)"><g class="d" transform="translate(229 1186)"><rect class="g" width="151" height="126" rx="20"/><rect class="h" x="1" y="1" width="149" height="124" rx="19"/></g><g transform="translate(258.65 1205.599)"><text class="e" transform="translate(46.35 80.401)"><tspan x="-55.816" y="0">BADMINTON</tspan></text><g class="f"><g transform="translate(18.891 -1.56)"><path class="a" d="M26.959,51.842a9.826,9.826,0,0,1-9.815-9.815V37.072a.729.729,0,0,1,.729-.729H36.045a.729.729,0,0,1,.729.729v4.955a9.809,9.809,0,0,1-9.815,9.815ZM18.6,37.8v4.226a8.357,8.357,0,0,0,16.715,0V37.8Z"/><path class="a" d="M47.593,13.48a.729.729,0,0,1-.656-1.042l.933-1.96a.729.729,0,1,1,1.316.627l-.933,1.96a.729.729,0,0,1-.66.415Z"/><path class="a" d="M36.045,37.8H31.2a.729.729,0,0,1-.707-.9L38.638,3.87a.729.729,0,0,1,.446-.506,16.891,16.891,0,0,1,12.928.007.729.729,0,0,1,.376.987L51.4,6.42a.729.729,0,0,1-1.312-.628l.645-1.353a15.453,15.453,0,0,0-10.776.152L32.132,36.344h3.454l5.975-12.583a.729.729,0,1,1,1.316.625l-6.171,13a.729.729,0,0,1-.662.416Z"/><path class="a" d="M44.439,20.125a.729.729,0,0,1-.656-1.04l.933-1.967a.729.729,0,1,1,1.317.624L45.1,19.708a.729.729,0,0,1-.662.417Z"/><path class="a" d="M31.2,37.8H26.959a.729.729,0,0,1-.729-.729V4.044a.729.729,0,0,1,.465-.679,16.877,16.877,0,0,1,12.928.005.729.729,0,0,1,.43.848L31.907,37.247A.729.729,0,0,1,31.2,37.8Zm-3.512-1.457h2.941L38.485,4.49a15.4,15.4,0,0,0-10.8.06Z"/><path class="a" d="M22.719,37.8H17.873a.729.729,0,0,1-.656-.416L1.53,4.356a.729.729,0,0,1,.378-.986,16.878,16.878,0,0,1,12.928-.007.729.729,0,0,1,.446.506L23.428,36.9a.729.729,0,0,1-.707.9Zm-4.385-1.457h3.452L13.957,4.59A15.433,15.433,0,0,0,3.18,4.437Z"/><path class="a" d="M26.959,37.8H22.719a.729.729,0,0,1-.707-.554L13.865,4.218a.729.729,0,0,1,.43-.848,16.873,16.873,0,0,1,12.928-.005.729.729,0,0,1,.465.679V37.072A.729.729,0,0,1,26.959,37.8Zm-3.67-1.457H26.23V4.55a15.387,15.387,0,0,0-10.8-.06Z"/><path class="a" d="M40.205,29.036H13.713a.729.729,0,1,1,0-1.457H40.205a.729.729,0,1,1,0,1.457Z"/><path class="a" d="M36.043,42.759H17.875a.729.729,0,1,1,0-1.457H36.043a.729.729,0,1,1,0,1.457Z"/></g></g></g></g><g transform="translate(-191 359)"><g class="d" transform="translate(229 1186)"><rect class="g" width="151" height="126" rx="20"/><rect class="h" x="1" y="1" width="149" height="124" rx="19"/></g><g transform="translate(258.65 1205.599)"><text class="e" transform="translate(46.35 80.401)"><tspan x="-49.02" y="0">SWIMMING</tspan></text><g class="f"><g transform="translate(20.85 0.401)"><path class="a" d="M47.9,33.088,45.291,35.7a2.828,2.828,0,0,1-3.995,0,4.566,4.566,0,0,0-6.457,0l0,0a2.893,2.893,0,0,1-3.995,0,4.566,4.566,0,0,0-6.457,0l0,0a2.893,2.893,0,0,1-3.995,0,4.566,4.566,0,0,0-6.457,0l0,0a2.828,2.828,0,0,1-3.995,0,4.566,4.566,0,0,0-6.457,0l0,0L.864,38.315,2.1,39.546l2.613-2.613a2.893,2.893,0,0,1,3.995,0,4.572,4.572,0,0,0,6.459,0,2.893,2.893,0,0,1,3.995,0,4.572,4.572,0,0,0,6.459,0,2.893,2.893,0,0,1,3.995,0,4.572,4.572,0,0,0,6.459,0,2.893,2.893,0,0,1,3.995,0,4.573,4.573,0,0,0,6.459,0l2.613-2.613Z"/><path class="a" d="M47.9,38.315l-2.613,2.613a2.829,2.829,0,0,1-3.995,0,4.566,4.566,0,0,0-6.457,0l0,0a2.893,2.893,0,0,1-3.995,0,4.566,4.566,0,0,0-6.457,0l0,0a2.893,2.893,0,0,1-3.995,0,4.566,4.566,0,0,0-6.457,0l0,0a2.829,2.829,0,0,1-3.995,0,4.566,4.566,0,0,0-6.457,0l0,0L.864,43.541,2.1,44.773,4.709,42.16a2.893,2.893,0,0,1,3.995,0,4.572,4.572,0,0,0,6.459,0,2.893,2.893,0,0,1,3.995,0,4.572,4.572,0,0,0,6.459,0,2.893,2.893,0,0,1,3.995,0,4.572,4.572,0,0,0,6.459,0,2.893,2.893,0,0,1,3.995,0,4.573,4.573,0,0,0,6.459,0l2.613-2.613Z"/><path class="a" d="M47.9,43.541l-2.613,2.613a2.828,2.828,0,0,1-3.995,0,4.566,4.566,0,0,0-6.457,0l0,0a2.893,2.893,0,0,1-3.995,0,4.566,4.566,0,0,0-6.457,0l0,0a2.893,2.893,0,0,1-3.995,0,4.566,4.566,0,0,0-6.457,0l0,0a2.828,2.828,0,0,1-3.995,0,4.566,4.566,0,0,0-6.457,0l0,0L.864,48.768,2.1,50l2.613-2.613a2.893,2.893,0,0,1,3.995,0,4.572,4.572,0,0,0,6.459,0,2.893,2.893,0,0,1,3.995,0,4.572,4.572,0,0,0,6.459,0,2.893,2.893,0,0,1,3.995,0,4.572,4.572,0,0,0,6.459,0,2.893,2.893,0,0,1,3.995,0,4.573,4.573,0,0,0,6.459,0l2.613-2.613Z"/><path class="a" d="M36.941,25.249,25.215,13.523a1.026,1.026,0,0,1,0-1.451h0L32.15,5.138a3.032,3.032,0,0,0,0-4.281,3.1,3.1,0,0,0-4.282,0l-7.05,7.048a6.923,6.923,0,0,0,0,9.782l1.762,1.762L9.575,32.456l1.232,1.232L24.429,20.065a.871.871,0,0,0,0-1.232l-2.378-2.378a5.181,5.181,0,0,1,0-7.317L29.1,2.089a1.315,1.315,0,0,1,1.816,0,1.287,1.287,0,0,1,0,1.817L23.983,10.84a2.768,2.768,0,0,0,0,3.914h0L35.709,26.48l7.84,7.84,1.232-1.232Z"/><path class="a" d="M37.2,10.183a5.227,5.227,0,1,0,5.227,5.227A5.227,5.227,0,0,0,37.2,10.183Zm0,8.711A3.485,3.485,0,1,1,40.68,15.41,3.485,3.485,0,0,1,37.2,18.895Z"/><path class="a" d="M33.892,28.3a.871.871,0,0,0-1.232,0l-3.92,3.92,1.232,1.232,3.3-3.3,3.3,3.3,1.232-1.232Z"/></g></g></g></g><g transform="translate(-8 359)"><g class="d" transform="translate(229 1186)"><rect class="g" width="151" height="126" rx="20"/><rect class="h" x="1" y="1" width="149" height="124" rx="19"/></g><g transform="translate(258.65 1205.599)"><text class="e" transform="translate(46.35 80.401)"><tspan x="-39.819" y="0">KABADDI</tspan></text><g class="f"><g transform="translate(20.35 -0.099)"><path class="a" d="M50.705,35.447l-2.431-2.412a1,1,0,0,0-1.4,1.415L49.3,36.862a1,1,0,0,0,1.4-1.415Z"/><path class="a" d="M45.8,30.568a1,1,0,0,0-1.409,0l0,0a1,1,0,1,0,1.411,0Z"/><path class="a" d="M37.3,35.162,46.968,25.5a3.752,3.752,0,0,0-1.811-6.311A3.756,3.756,0,0,0,42.39,13.9a3.748,3.748,0,0,0-2.924-4.873,3.756,3.756,0,0,0-5.358-4.478l-.1-.1A6.648,6.648,0,0,0,29.16,2.337H21.336a1,1,0,0,0-1,1V4.64A4.526,4.526,0,0,0,20.6,6.15a3.755,3.755,0,0,0-5,4.647,3.754,3.754,0,0,0-2.928,4.874A3.754,3.754,0,0,0,9.9,20.951a3.755,3.755,0,0,0-1.811,6.313l1.988,1.988L.292,39.036A1,1,0,1,0,1.7,40.445l9.879-9.879a3.752,3.752,0,0,0,5.6-3.416c.051,0,.1,0,.152,0A3.751,3.751,0,0,0,21.09,23.4c0-.051,0-.1,0-.152.05,0,.1,0,.15,0A3.751,3.751,0,0,0,24.991,19.5c0-.051,0-.1,0-.152.05,0,.1,0,.15,0a3.752,3.752,0,0,0,2.9-6.132l6.613-6.613A1.762,1.762,0,1,1,37.145,9.1l-.975.975-3.538,3.538a1,1,0,1,0,1.409,1.409l3.538-3.538a1.762,1.762,0,1,1,2.492,2.492l-.975.975-2.563,2.563a1,1,0,1,0,1.409,1.409L40.5,16.358A1.762,1.762,0,1,1,43,18.85l-1.338,1.338-1.224,1.224a1,1,0,1,0,1.409,1.409L43.067,21.6a1.762,1.762,0,0,1,2.491,2.493l-9.665,9.665a13.5,13.5,0,0,1-9.082,3.956,1,1,0,0,0-.67.293l-8.928,8.961a1,1,0,1,0,1.411,1.406l6.567-6.591a9.26,9.26,0,0,0,5.624,1.447l5.14,5.14a1,1,0,1,0,1.409-1.409L31.9,41.492a1,1,0,0,0-.786-.289l-.316.026a7.273,7.273,0,0,1-4.157-.9l.64-.643A15.48,15.48,0,0,0,37.3,35.162ZM14.681,28.547a1.761,1.761,0,0,1-2.491,0L9.5,25.855a1.762,1.762,0,1,1,2.492-2.492l2.692,2.692A1.764,1.764,0,0,1,14.681,28.547Zm3.9-3.9a1.764,1.764,0,0,1-2.492,0L13.4,21.954,12.06,20.616a1.762,1.762,0,1,1,2.491-2.492l4.03,4.03h0a1.762,1.762,0,0,1,0,2.492Zm3.9-3.9a1.764,1.764,0,0,1-2.492,0L14.985,15.74a1.762,1.762,0,0,1,2.491-2.492l2.281,2.281,2.725,2.725h0a1.762,1.762,0,0,1,0,2.492Zm3.9-3.9a1.764,1.764,0,0,1-2.492,0L18.886,11.84l0,0-.973-.973A1.762,1.762,0,0,1,20.4,8.373l5.981,5.981a1.762,1.762,0,0,1,0,2.492Zm.262-5.047L23.908,9.062a4.559,4.559,0,0,0,.954.1h.022l2.734-.013a1,1,0,0,0,0-1.993h0l-2.734.013h-.012a2.53,2.53,0,0,1-2.53-2.531V4.33h6.827a4.65,4.65,0,0,1,3.393,1.477l.041.044Z"/></g></g></g></g></g></svg>