<svg xmlns="http://www.w3.org/2000/svg" xmlns:xlink="http://www.w3.org/1999/xlink" width="311" height="675" viewBox="0 0 311 675"><defs><style>.a,.c{fill:#fff;}.b{stroke:rgba(255,255,255,0.6);stroke-width:2px;fill:url(#a);}.c{font-size:14px;font-family:OpenSans-Bold, Open Sans;font-weight:700;letter-spacing:0.075em;}.d{clip-path:url(#b);}.e{clip-path:url(#d);}.f{clip-path:url(#f);}.g{clip-path:url(#h);}.h{clip-path:url(#j);}.i{clip-path:url(#l);}.j{clip-path:url(#n);}.k{clip-path:url(#p);}.l{clip-path:url(#r);}.m{clip-path:url(#t);}.n{stroke:none;}.o{fill:none;}</style><linearGradient id="a" x1="0.056" y1="0.05" x2="0.958" y2="0.95" gradientUnits="objectBoundingBox"><stop offset="0" stop-color="#fff" stop-opacity="0.4"/><stop offset="1" stop-color="#fff" stop-opacity="0.051"/></linearGradient><clipPath id="b"><rect class="a" width="48" height="47" transform="translate(0.219 -0.425)"/></clipPath><clipPath id="d"><rect class="a" width="47" height="47" transform="translate(-0.299 -0.425)"/></clipPath><clipPath id="f"><rect class="a" width="48" height="47" transform="translate(0.219 0.238)"/></clipPath><clipPath id="h"><rect class="a" width="47" height="47" transform="translate(-0.299 0.238)"/></clipPath><clipPath id="j"><rect class="a" width="48" height="46" transform="translate(0.219 -0.074)"/></clipPath><clipPath id="l"><rect class="a" width="47" height="46" transform="translate(-0.299 -0.074)"/></clipPath><clipPath id="n"><rect class="a" width="48" height="47" transform="translate(0.219 -0.412)"/></clipPath><clipPath id="p"><rect class="a" width="47" height="47" transform="translate(-0.299 -0.412)"/></clipPath><clipPath id="r"><rect class="a" width="48" height="47" transform="translate(0.219 0.25)"/></clipPath><clipPath id="t"><rect class="a" width="47" height="47" transform="translate(-0.299 0.25)"/></clipPath></defs><g transform="translate(0.01 -0.089)"><g transform="translate(0 0)"><g class="b" transform="translate(-0.01 0.089)"><rect class="n" width="140" height="117" rx="20"/><rect class="o" x="1" y="1" width="138" height="115" rx="19"/></g><g transform="translate(28.257 18.513)"><text class="c" transform="translate(39.732 73.575)"><tspan x="-40.155" y="0">FOOTBALL</tspan></text><g class="d" transform="translate(18.513 0)"><path class="a" d="M23.255,0A23.255,23.255,0,1,0,46.511,23.255,23.255,23.255,0,0,0,23.255,0Zm18.01,11.155-1.612,6.851-8.491,2.83-7.132-5.7V6.726L32.17,3.47a21.836,21.836,0,0,1,9.1,7.684Zm.129,24-7.687,1.214-4.186-5.53,2.132-8.527,8.4-2.8,4.81,5.772a21.563,21.563,0,0,1-3.466,9.869ZM12.838,36.37,5.116,35.151a21.566,21.566,0,0,1-3.465-9.871l4.806-5.772,8.4,2.8,2.132,8.531ZM1.557,22.966A21.564,21.564,0,0,1,4.1,13.06l1.257,5.349Zm16.877,7.266L16.378,22l6.877-5.5L30.134,22l-2.058,8.232ZM41.152,18.406l1.257-5.349a21.564,21.564,0,0,1,2.544,9.906ZM30.056,2.647l-6.8,2.72L16.418,2.66a21.625,21.625,0,0,1,13.637-.012ZM14.3,3.488l8.176,3.24v8.4l-7.132,5.7-8.491-2.83L5.246,11.155A21.841,21.841,0,0,1,14.3,3.488ZM6.411,36.925l6.3,1,3.811,5.969A21.776,21.776,0,0,1,6.411,36.925Zm12.335,7.561L14.12,37.244l4.1-5.462H28.294l4.155,5.488-4.031,7.064a21.638,21.638,0,0,1-9.671.155Zm11.825-.8,3.3-5.782,6.227-.982A21.789,21.789,0,0,1,30.571,43.688Zm0,0" transform="translate(0.377 0.263)"/></g></g></g><g transform="translate(170.518 0)"><g class="b" transform="translate(0.471 0.089)"><rect class="n" width="140" height="117" rx="20"/><rect class="o" x="1" y="1" width="138" height="115" rx="19"/></g><g transform="translate(16.564 18.513)"><text class="c" transform="translate(50.907 73.575)"><tspan x="-48.178" y="0">BASKETBALL</tspan></text><g class="e" transform="translate(30.206 0)"><g transform="translate(0.087 0.263)"><path class="a" d="M23.255,0A23.255,23.255,0,1,0,46.511,23.255,23.282,23.282,0,0,0,23.255,0Zm0,44.96a21.7,21.7,0,1,1,21.7-21.7A21.73,21.73,0,0,1,23.255,44.96Z"/><g transform="translate(37.208 6.181)"><path class="a" d="M47.6,30.71c-3.563-2.229-6.051-8.928-6.051-16.293a31.427,31.427,0,0,1,.726-6.829.776.776,0,1,0-1.514-.337A33.021,33.021,0,0,0,40,14.417c0,8,2.725,15.071,6.78,17.607A.775.775,0,1,0,47.6,30.71Z" transform="translate(-40 -6.645)"/></g><g transform="translate(0 0.834)"><path class="a" d="M17.482.952a.779.779,0,0,0-.5-.027,23.255,23.255,0,1,0,17.248,42.9.778.778,0,0,0,.394-.531l.249-1.247.016-.1a46.577,46.577,0,0,0,.768-7.384C35.658,18.833,28.354,5.328,17.482.952ZM33.359,41.7l-.182.927A21.706,21.706,0,1,1,17.147,2.49C27.3,6.737,34.108,19.578,34.108,34.558A45.357,45.357,0,0,1,33.359,41.7Z" transform="translate(0 -0.897)"/></g><g transform="translate(12.402 37.984)"><path class="a" d="M19.009,43.2a20.134,20.134,0,0,1-4.478-2.242.775.775,0,1,0-.846,1.3,21.641,21.641,0,0,0,4.824,2.409.786.786,0,0,0,.25.042.775.775,0,0,0,.25-1.509Z" transform="translate(-13.333 -40.833)"/></g><g transform="translate(6.201 31.781)"><path class="a" d="M10.372,37.557c-.181-.226-.38-.463-.585-.707a13.32,13.32,0,0,1-1.653-2.258.775.775,0,1,0-1.384.7A14.368,14.368,0,0,0,8.6,37.848c.2.235.389.463.563.679a.775.775,0,1,0,1.209-.97Z" transform="translate(-6.666 -34.165)"/></g><g transform="translate(1.388 16.596)"><path class="a" d="M45.064,17.845C22.371,17.664,8.987,25.27,1.751,31.71a.775.775,0,1,0,1.03,1.158C9.813,26.61,22.865,19.211,45.049,19.4h.008a.775.775,0,0,0,.007-1.55Z" transform="translate(-1.492 -17.842)"/></g><g transform="translate(5.537 7.73)"><path class="a" d="M7.47,8.332c-.236,0-.471-.01-.706-.022A.775.775,0,0,0,6.69,9.859c.259.012.519.023.78.023,10.259,0,18.6,9.911,18.6,22.092a24.548,24.548,0,0,1-3.808,13.885.776.776,0,0,0,1.282.873,26.087,26.087,0,0,0,4.077-14.758C27.625,18.938,18.583,8.332,7.47,8.332Z" transform="translate(-5.952 -8.31)"/></g></g></g></g></g><g transform="translate(0 139.338)"><g class="b" transform="translate(-0.01 -0.249)"><rect class="n" width="140" height="118" rx="20"/><rect class="o" x="1" y="1" width="138" height="116" rx="19"/></g><g transform="translate(19.488 18.514)"><text class="c" transform="translate(47.502 74.238)"><tspan x="-48.485" y="0">VOLLEYBALL</tspan></text><g class="f" transform="translate(27.283 0)"><g transform="translate(0.377 0.456)"><path class="a" d="M24.684,47.939A23.255,23.255,0,1,1,47.939,24.684,23.255,23.255,0,0,1,24.684,47.939Zm0-45.182A21.926,21.926,0,1,0,46.61,24.684,21.926,21.926,0,0,0,24.684,2.757Z" transform="translate(-1.429 -1.429)"/><path class="a" d="M25.9,25.418a.674.674,0,0,1-.2-.031.664.664,0,0,1-.434-.834c3.8-12.047-6.144-20.868-6.244-20.956a.665.665,0,0,1,.87-1c.108.094,10.711,9.469,6.64,22.36a.664.664,0,0,1-.634.464Z" transform="translate(-2.64 -1.499)"/><path class="a" d="M34.191,30.451a.664.664,0,0,1-.629-.88C37.621,17.7,32.3,7.615,28.766,2.661a.665.665,0,0,1,1.082-.772C33.53,7.054,39.071,17.575,34.819,30a.664.664,0,0,1-.629.447Z" transform="translate(-3.328 -1.441)"/><path class="a" d="M41.473,31.879a.672.672,0,0,1-.26-.054.664.664,0,0,1-.35-.872c4.491-10.507.485-20.118-2.3-24.912a.664.664,0,1,1,1.148-.668c2.91,5.011,7.091,15.061,2.373,26.1A.664.664,0,0,1,41.473,31.879Z" transform="translate(-4.013 -1.679)"/><path class="a" d="M4.037,35.211a.664.664,0,0,1-.6-.94c2.632-5.771,8.973-15.83,21.86-18.363a.665.665,0,0,1,.256,1.3C13.244,19.63,7.168,29.281,4.641,34.822a.664.664,0,0,1-.6.389Z" transform="translate(-1.564 -2.438)"/><path class="a" d="M2.1,25.22a.664.664,0,0,1-.575-1C4.4,19.2,11.019,10.549,22.94,9.115a.664.664,0,0,1,.159,1.319C11.754,11.8,5.433,20.077,2.675,24.888a.664.664,0,0,1-.577.332Z" transform="translate(-1.429 -1.965)"/><path class="a" d="M40.221,41.09c-6.6,0-16-1.715-23.17-9.927a.666.666,0,1,1,1-.874c8.248,9.448,19.645,9.887,25.706,9.3a.664.664,0,0,1,.127,1.323C42.81,41.018,41.576,41.09,40.221,41.09Z" transform="translate(-2.507 -3.427)"/><path class="a" d="M26.489,46.628a.664.664,0,0,1-.2-.033c-.6-.2-1.23-.427-1.911-.71a.665.665,0,0,1,.509-1.228c.648.266,1.24.489,1.81.673a.664.664,0,0,1-.2,1.3Z" transform="translate(-3.001 -4.442)"/><path class="a" d="M14.548,38.873a.664.664,0,0,1-.488-.213,25.268,25.268,0,0,1-1.692-2.034.664.664,0,1,1,1.063-.8,23.755,23.755,0,0,0,1.6,1.927.664.664,0,0,1-.488,1.116Z" transform="translate(-2.183 -3.811)"/><path class="a" d="M20.05,43.553a.659.659,0,0,1-.355-.1c-.6-.383-1.146-.755-1.657-1.139a.664.664,0,0,1,.8-1.063c.483.362,1,.716,1.572,1.08a.664.664,0,0,1-.357,1.225Z" transform="translate(-2.569 -4.198)"/><path class="a" d="M37.323,48.395a35.155,35.155,0,0,1-5.71-.465.665.665,0,1,1,.217-1.312,33.885,33.885,0,0,0,5.636.45h0a.664.664,0,0,1,0,1.329Z" transform="translate(-3.496 -4.582)"/><path class="a" d="M9.679,43.451a.683.683,0,0,1-.126-.012.664.664,0,0,1-.527-.778c.027-.14,2.844-14.011,16.044-16.931a.665.665,0,0,1,.287,1.3C13,29.761,10.356,42.781,10.33,42.912A.664.664,0,0,1,9.679,43.451Z" transform="translate(-1.958 -3.123)"/><path class="a" d="M41.257,33.307a20.236,20.236,0,0,1-15.369-6.48.665.665,0,0,1,.981-.9C35.4,35.248,48.013,31.046,48.139,31a.664.664,0,1,1,.434,1.256A25.022,25.022,0,0,1,41.257,33.307Z" transform="translate(-3.123 -3.123)"/></g></g></g></g><g transform="translate(170.518 139.338)"><g class="b" transform="translate(0.471 -0.249)"><rect class="n" width="140" height="118" rx="20"/><rect class="o" x="1" y="1" width="138" height="116" rx="19"/></g><g transform="translate(38.001 18.514)"><text class="c" transform="translate(31.47 74.238)"><tspan x="-30.95" y="0">HOCKEY</tspan></text><g class="g" transform="translate(8.769 0)"><g transform="translate(1.495 0.456)"><g transform="translate(33.638 0)"><path class="a" d="M47.4.1a.691.691,0,0,0-.948.237L37.774,14.793a.691.691,0,1,0,1.185.711L47.633,1.046A.691.691,0,0,0,47.4.1Z" transform="translate(-37.675 0)"/></g><g transform="translate(0 0)"><path class="a" d="M37.891.1a.691.691,0,0,0-.948.237l-22.4,37.326a3.05,3.05,0,0,1-5.235-3.134,3.684,3.684,0,1,0-6.322-3.784,10.438,10.438,0,0,0-1,2.229.691.691,0,0,0,1.318.414,9.05,9.05,0,0,1,.869-1.933,2.3,2.3,0,0,1,3.951,2.365,4.432,4.432,0,0,0,7.6,4.553L25.253,22.5l1.9,5.776-3.907,6.512a5.916,5.916,0,0,0-4.569,7.31A9.036,9.036,0,0,1,2.915,35.5a.691.691,0,0,0-1.379-.089,10.419,10.419,0,0,0,17.717,8.1,5.915,5.915,0,1,0,5.662-8.8L35.029,17.847a.691.691,0,0,0-1.185-.711l-3.366,5.61L28.573,16.97,38.128,1.046A.691.691,0,0,0,37.891.1Zm-8.954,40.5A4.535,4.535,0,1,1,24.4,36.06,4.54,4.54,0,0,1,28.937,40.595Zm.6-16.285L28.1,26.716l-1.9-5.776,1.443-2.4Z" transform="translate(-1.514 0)"/></g></g></g></g></g><g transform="translate(0 279.65)"><g class="b" transform="translate(-0.01 0.439)"><rect class="n" width="140" height="116" rx="20"/><rect class="o" x="1" y="1" width="138" height="114" rx="19"/></g><g transform="translate(13.642 18.513)"><text class="c" transform="translate(55.348 73.926)"><tspan x="-54.584" y="0">TABLE TENNIS</tspan></text><g class="h" transform="translate(33.129 0)"><g transform="translate(0.625 -0.324)"><g transform="translate(0 0)"><path class="a" d="M41.687,4.57C36.437-.679,27.513-1.477,19.808,2.544A7.754,7.754,0,0,0,9.2,13.836,15.152,15.152,0,0,0,8.108,18.5a.893.893,0,0,0-.035.17,14.234,14.234,0,0,0,.085,2.519.055.055,0,0,1,0,.011,14.673,14.673,0,0,0,.263,1.5c.012.051.023.1.036.154.114.477.25.952.412,1.425.02.06.044.119.065.179.171.48.36.957.58,1.431a5.943,5.943,0,0,1,.469,3.9c-.031.126-.074.244-.11.366-.047.161-.089.325-.145.48s-.119.287-.181.43c-.052.123-.1.249-.155.369-.078.162-.172.316-.262.472-.054.092-.1.189-.156.28-.106.168-.227.327-.347.487-.054.072-.1.148-.156.22-.137.173-.292.338-.446.5-.05.054-.092.109-.144.162-.166.168-.348.33-.532.49-.051.045-.1.092-.149.137-.219.183-.455.36-.7.534-.026.019-.047.038-.074.057q-.41.286-.868.558a31.928,31.928,0,0,0-3.168,2.1l-1.235.95a2.277,2.277,0,0,0-.222,3.416l4.058,4.058a2.274,2.274,0,0,0,1.609.667c.056,0,.112,0,.168-.006a2.276,2.276,0,0,0,1.661-.913l1.277-1.717c.368-.5.734-1.036,1.1-1.623.254-.4.51-.821.771-1.275q.262-.455.538-.862a9.228,9.228,0,0,1,2.4-2.484c.031-.021.06-.047.092-.068.168-.112.343-.208.518-.3.069-.039.135-.085.206-.121.154-.08.317-.145.477-.215.1-.043.191-.092.291-.13.14-.054.289-.1.434-.142.128-.041.252-.089.383-.125a5.662,5.662,0,0,1,3.292.165c.206.07.4.143.578.219l.023.009c.346.149.694.281,1.043.4.089.032.178.061.268.091q.487.163.976.293l.092.026a14.361,14.361,0,0,0,4.383.442.858.858,0,0,0,.126-.026c4.086-.264,8.133-2.27,11.821-5.958C47.593,24.116,48.586,11.469,41.687,4.57ZM10.365,4.034a6.208,6.208,0,1,1,8.779,8.779,6.114,6.114,0,0,1-.462.417c-.057.047-.117.086-.175.13-.1.079-.208.161-.317.233-.073.049-.149.09-.223.135-.1.059-.193.119-.293.173-.084.044-.17.081-.255.122s-.187.092-.282.131-.185.069-.278.1-.184.068-.277.1-.2.054-.3.078-.181.047-.272.066-.21.036-.314.053c-.086.013-.172.028-.258.037-.113.012-.226.019-.339.025-.078,0-.157.01-.236.012-.123,0-.244,0-.366-.007-.069,0-.137,0-.206-.01-.133-.01-.265-.026-.4-.044-.056-.008-.112-.015-.167-.024-.144-.024-.288-.054-.431-.088l-.123-.03c-.156-.041-.311-.088-.464-.142l-.075-.026q-.25-.091-.494-.2l-.03-.014a6.22,6.22,0,0,1-1.484-.983l-.168-.151c-.031-.03-.065-.056-.1-.087A6.216,6.216,0,0,1,10.365,4.034ZM7.184,44.666a.725.725,0,0,1-1.094.08L2.032,40.688A.727.727,0,0,1,2.1,39.6l1.235-.95a30.13,30.13,0,0,1,3.014-1.993,13.718,13.718,0,0,0,1.885-1.33h0q.419-.355.788-.735c.022-.022.039-.047.061-.068.222-.233.435-.47.629-.717.031-.039.055-.081.085-.121.178-.233.35-.469.5-.715.037-.06.067-.125.1-.185.137-.23.272-.462.39-.7.036-.073.061-.151.095-.225.107-.235.213-.471.3-.717.029-.081.049-.168.076-.251.079-.241.159-.481.222-.732,0-.005,0-.011,0-.016a.011.011,0,0,1,0,0,7.384,7.384,0,0,0-.572-4.91c-.088-.19-.156-.381-.236-.572a13.582,13.582,0,0,1-1.066-4.494L26.077,36.619h-.01c-.368-.022-.736-.061-1.1-.115-.027,0-.054-.006-.081-.011-.349-.053-.7-.124-1.046-.206-.043-.01-.085-.017-.129-.028-.337-.083-.673-.183-1.008-.293-.05-.016-.1-.029-.151-.046-.381-.13-.761-.275-1.14-.438a8.581,8.581,0,0,0-1.657-.524c-.072-.015-.144-.035-.216-.047s-.139-.018-.209-.029c-.138-.021-.276-.043-.413-.056-.026,0-.052,0-.078,0-.18-.015-.359-.026-.538-.027h-.016q-.3,0-.59.022c-.056,0-.11.015-.165.021-.144.016-.288.03-.43.055-.161.028-.32.066-.48.106-.033.009-.067.013-.1.023h0l-.009,0c-.307.084-.6.183-.893.292l-.068.022c-.288.11-.565.236-.836.372-.024.012-.05.021-.074.033-.257.131-.5.279-.746.434-.035.023-.073.04-.109.063-.251.165-.493.347-.73.539-.023.019-.048.033-.071.053a12.113,12.113,0,0,0-2.746,3.37A27.809,27.809,0,0,1,8.46,42.948Zm21.03-8.1c-.007-.007-.01-.016-.017-.023L9.7,18.049l-.009-.006a13.583,13.583,0,0,1,.75-3.168,7.645,7.645,0,0,0,1.151.628l.048.023c.172.075.347.142.523.2l.145.05c.16.053.32.1.483.142.068.018.135.033.2.05.151.035.3.068.456.093.081.014.162.024.244.035.144.02.289.04.435.051.092.008.185.009.277.013.116.005.231.016.348.016.022,0,.043,0,.064,0,.12,0,.241-.011.361-.017.192-.01.383-.027.575-.052.141-.018.282-.035.422-.061.1-.019.2-.043.3-.066.133-.029.265-.06.4-.1.1-.028.2-.061.294-.092.129-.042.257-.085.383-.134.1-.037.192-.077.286-.118q.19-.081.375-.174c.092-.045.182-.092.272-.14.126-.069.251-.144.375-.221.082-.051.165-.1.245-.155.134-.091.265-.189.394-.289.065-.05.132-.1.2-.15.191-.158.376-.323.555-.5s.351-.371.511-.565c.056-.068.1-.14.158-.209.1-.13.2-.258.288-.392.057-.086.109-.175.162-.262.075-.122.151-.244.218-.369.052-.1.1-.195.146-.293.058-.12.116-.241.168-.363.044-.1.083-.21.123-.315s.088-.241.126-.362.067-.221.1-.333.061-.239.088-.359.048-.231.068-.348.036-.236.051-.354.029-.241.038-.361.012-.229.016-.344.009-.25.007-.374-.009-.218-.016-.327c-.008-.13-.013-.259-.027-.389-.011-.1-.028-.2-.043-.3-.02-.138-.038-.276-.065-.413-.015-.072-.036-.143-.052-.214A7.768,7.768,0,0,0,21.761,5.1c-.034-.072-.064-.146-.1-.218-.066-.129-.141-.254-.215-.379-.054-.087-.1-.175-.156-.259-.074-.115-.154-.226-.234-.338-.047-.067-.089-.136-.14-.2C27.928.222,35.9.981,40.589,5.668c6.3,6.3,5.312,17.946-2.165,25.423C35.164,34.351,31.712,36.183,28.213,36.567Z" transform="translate(-0.267 0)"/><path class="a" d="M12.389,8.706a3.107,3.107,0,0,1,3.1-3.1.776.776,0,0,0,0-1.552,4.661,4.661,0,0,0-4.656,4.656.776.776,0,1,0,1.552,0Z" transform="translate(-1.004 -0.283)"/></g></g></g></g></g><g transform="translate(170.518 279.65)"><g class="b" transform="translate(0.471 0.439)"><rect class="n" width="140" height="116" rx="20"/><rect class="o" x="1" y="1" width="138" height="114" rx="19"/></g><g transform="translate(37.027 18.513)"><text class="c" transform="translate(32.445 73.926)"><tspan x="-31.632" y="0">CRICKET</tspan></text><g class="i" transform="translate(9.744 0)"><g transform="translate(0.088 -0.324)"><path class="a" d="M22.125,31.839a.664.664,0,0,1-.47-.195l-1.382-1.382a.664.664,0,1,1,.94-.94l1.382,1.382a.664.664,0,0,1-.47,1.134Z" transform="translate(-2.73 -3.361)"/><path class="a" d="M39.694,48.771a.664.664,0,0,1-.47-.195L29.145,38.5a.665.665,0,1,1,.939-.941l9.834,9.824c4.266-.883,6.717-3.329,7.479-7.466L22.232,14.752l-3.749.981-2.749,2.749-.983,3.751,2.7,2.7a.664.664,0,1,1-.94.94l-2.97-2.97a.664.664,0,0,1-.173-.638l1.123-4.292a.659.659,0,0,1,.173-.3l3-3a.659.659,0,0,1,.3-.173l4.292-1.123a.664.664,0,0,1,.638.173l25.674,25.68a.664.664,0,0,1,.187.574c-.8,5-3.807,8.017-8.948,8.961a.619.619,0,0,1-.118.011Z" transform="translate(-2.26 -2.26)"/><path class="a" d="M27.146,36.861a.664.664,0,0,1-.47-.195l-1.382-1.382a.665.665,0,1,1,.94-.941l1.382,1.382a.664.664,0,0,1-.47,1.134Z" transform="translate(-3.08 -3.712)"/><path class="a" d="M14.3,17.973a.66.66,0,0,1-.47-.195L2.246,6.192A2.79,2.79,0,1,1,6.192,2.246L17.781,13.835a.664.664,0,0,1,0,.94l-3.007,3.007a.66.66,0,0,1-.47.192ZM4.219,2.757A1.462,1.462,0,0,0,3.185,5.252L14.3,16.372,16.372,14.3,5.252,3.185a1.455,1.455,0,0,0-1.033-.428Z" transform="translate(-1.428 -1.428)"/><path class="a" d="M39.009,22.826a4.88,4.88,0,1,1,3.45-1.429,4.88,4.88,0,0,1-3.45,1.429Zm0-8.431a3.551,3.551,0,1,0,2.508,1.04,3.551,3.551,0,0,0-2.508-1.04Z" transform="translate(-3.71 -2.24)"/><path class="a" d="M33.864,42.94a.664.664,0,0,1-.47-1.134l8.412-8.412a.664.664,0,1,1,.94.94l-8.412,8.412A.664.664,0,0,1,33.864,42.94Z" transform="translate(-3.646 -3.646)"/><path class="a" d="M37.057,46.133A.664.664,0,0,1,36.587,45L45,36.587a.664.664,0,1,1,.94.94l-8.412,8.412a.664.664,0,0,1-.468.195Z" transform="translate(-3.868 -3.868)"/></g></g></g></g><g transform="translate(0 418.987)"><g class="b" transform="translate(-0.01 0.102)"><rect class="n" width="140" height="117" rx="20"/><rect class="o" x="1" y="1" width="138" height="115" rx="19"/></g><g transform="translate(40.925 18.513)"><text class="c" transform="translate(28.065 73.588)"><tspan x="-28.154" y="0">TENNIS</tspan></text><g class="j" transform="translate(5.846 0)"><g transform="translate(0.379 -0.13)"><path class="a" d="M42.9,42.675a.013.013,0,0,0,0-.011.672.672,0,0,0-.078-.128,5.39,5.39,0,0,0-8.974.007.68.68,0,0,0-.074.12v0a5.351,5.351,0,0,0,0,5.73v0a.652.652,0,0,0,.075.121,5.387,5.387,0,0,0,9.025-.078c.009-.015.022-.027.029-.044l0-.011a5.348,5.348,0,0,0,0-5.716Zm-8.213,4.553a3.975,3.975,0,0,1,0-3.386,9.572,9.572,0,0,0,7.289,0,3.972,3.972,0,0,1,0,3.385,9.65,9.65,0,0,0-7.289,0Zm6.476-4.546a8.248,8.248,0,0,1-5.666,0,4.014,4.014,0,0,1,5.666,0Zm-5.664,5.7a8.248,8.248,0,0,1,5.665,0,4.014,4.014,0,0,1-5.665,0Z" transform="translate(-4.164 -4.665)"/><path class="a" d="M42.7,29.573c.029-.029.06-.055.089-.084,0,0,.007-.009.011-.013,6.908-6.92,7.653-17.422,1.658-23.417A14.334,14.334,0,0,0,33.04,2.05,19.1,19.1,0,0,0,21.046,7.715c-.005,0-.011.008-.016.013-.035.034-.066.072-.1.106q-.353.357-.683.729l-.009.011A19.471,19.471,0,0,0,16,16.178l0,.008a60.569,60.569,0,0,0-2.456,11.627,30.783,30.783,0,0,1-1.351,6.64.684.684,0,0,0-.706.162L2.207,43.888a.686.686,0,0,0,0,.971l3.454,3.454a.686.686,0,0,0,.971,0l7.237-7.237L15.9,39.04a.675.675,0,0,0,.086-.106.647.647,0,0,0,.039-.076c.007-.014.016-.027.022-.042a.676.676,0,0,0,.027-.09c0-.013.009-.026.011-.039a.668.668,0,0,0,.013-.131v0a.693.693,0,0,0-.013-.133c0-.013-.008-.024-.011-.037s-.009-.033-.015-.05a30.793,30.793,0,0,1,6.64-1.351,60.449,60.449,0,0,0,11.625-2.455l.009,0a19.48,19.48,0,0,0,7.609-4.246c.258-.229.509-.462.754-.7ZM33.142,3.421q.58-.044,1.15-.043a12.782,12.782,0,0,1,9.2,3.652c5.463,5.464,4.714,15.1-1.67,21.486-.028.028-.057.054-.085.082A20.417,20.417,0,0,1,33.9,33.221a16.34,16.34,0,0,1-3.223.575,12.983,12.983,0,0,1-10.347-3.611,12.99,12.99,0,0,1-3.611-10.347,16.367,16.367,0,0,1,.574-3.223A20.439,20.439,0,0,1,21.9,8.8c.033-.033.064-.068.1-.1A17.727,17.727,0,0,1,33.142,3.421ZM11.965,36.071l2.482,2.482-1.064,1.064L10.9,37.135ZM6.145,46.855,3.664,44.373,9.93,38.107l2.482,2.482ZM22.515,35.62c-3.212.452-5.813.82-7.409,1.648l-1.858-1.856c.828-1.6,1.2-4.2,1.648-7.409.192-1.365.395-2.8.647-4.268A13.662,13.662,0,0,0,26.79,34.974C25.319,35.228,23.882,35.43,22.515,35.62Z" transform="translate(-2.005 -2.004)"/><path class="a" d="M20.751,13.762a16.207,16.207,0,0,0-1.756,5.247.692.692,0,0,0-.033.213q-.092.686-.118,1.367a.685.685,0,0,0,0,.206,12.811,12.811,0,0,0,.889,5.113.717.717,0,0,0,.031.072,11.2,11.2,0,0,0,2.436,3.68l.007.009.009.007a11.814,11.814,0,0,0,8.5,3.372c.144,0,.289-.005.434-.01h.025c.264-.009.529-.022.8-.045s.539-.057.808-.095l.026,0A16.97,16.97,0,0,0,42.3,28a16.973,16.973,0,0,0,4.9-9.5.135.135,0,0,1,0-.025q.059-.4.095-.809c.024-.27.039-.542.046-.81v0A11.889,11.889,0,0,0,43.972,7.9l0,0,0,0a12.033,12.033,0,0,0-9.761-3.324,16.822,16.822,0,0,0-10.336,5,17.854,17.854,0,0,0-3.046,4.059A.661.661,0,0,0,20.751,13.762Zm3.616-2.726L26.3,12.967l-2.494,2.5L22.243,13.9a16.48,16.48,0,0,1,2.124-2.867Zm3.835-3.1L29.764,9.5l-2.5,2.5-1.931-1.931A16.58,16.58,0,0,1,28.2,7.939ZM35.46,5.893a11.525,11.525,0,0,1,3.27.461L37.109,7.972,35.171,6.035,35.31,5.9c.05,0,.1,0,.15,0ZM42.5,8.4,40.02,10.881,38.083,8.944l2.06-2.06A9.89,9.89,0,0,1,42.494,8.4Zm2.492,3.325-2.059,2.059-1.937-1.937,2.476-2.476a9.888,9.888,0,0,1,1.519,2.353ZM44.6,22.394l-1.258-1.259L45.774,18.7A14.625,14.625,0,0,1,44.6,22.394Zm-2.8,4.139-1.93-1.93,2.5-2.5,1.561,1.56A16.565,16.565,0,0,1,41.8,26.533Zm-3.835,3.1-1.561-1.561,2.5-2.495,1.93,1.93a16.563,16.563,0,0,1-2.864,2.124ZM27.446,31.214,29.063,29.6,31,31.534l-.135.135a11.578,11.578,0,0,1-3.419-.457Zm-3.768-2.048,2.476-2.476,1.937,1.937-2.059,2.059a9.89,9.89,0,0,1-2.355-1.524Zm-2.49-3.327,2.057-2.057,1.937,1.937L22.7,28.193a9.847,9.847,0,0,1-1.517-2.356Zm12.87-7.053,2.494-2.5,1.937,1.937-2.5,2.5Zm.966,2.909-2.5,2.5-1.937-1.937,2.5-2.5Zm-1.938-3.882-1.937-1.937,2.5-2.5,1.937,1.937Zm-.971.971-2.5,2.5-1.937-1.937,2.5-2.5Zm-3.466,3.466-2.5,2.5-1.937-1.937,2.5-2.5Zm.971.971,1.937,1.938-2.494,2.495-1.938-1.937Zm2.908,2.909,1.937,1.937-2.5,2.5-1.937-1.937Zm.97-.971,2.5-2.5,1.94,1.937-2.5,2.5Zm3.466-3.466,2.5-2.5L41.4,21.135,38.9,23.629Zm3.466-3.466,2.5-2.5,1.937,1.937-2.495,2.495Zm-.971-.971-1.937-1.937,2.495-2.5,1.939,1.935Zm-2.907-2.909L34.615,12.41l2.494-2.5,1.937,1.937Zm-2.908-2.908L31.707,9.5,34.2,7l1.938,1.937Zm-.97.971-2.5,2.5-1.939-1.937,2.5-2.5Zm-3.466,3.466-2.5,2.493-1.937-1.937,2.5-2.5Zm-3.466,3.466-2.5,2.5L21.307,19.9l2.5-2.5ZM20.2,21.005l.133-.133,1.937,1.937L20.664,24.42A11.647,11.647,0,0,1,20.2,21.005Zm12.8,10.465,2.431-2.433L36.7,30.3a14.614,14.614,0,0,1-3.69,1.175ZM45.971,16.561l-.136.136L43.9,14.759l1.617-1.617a11.6,11.6,0,0,1,.456,3.419ZM33.169,6.1,30.735,8.53,29.476,7.27A14.622,14.622,0,0,1,33.169,6.1ZM22.831,16.434,20.4,18.862a14.738,14.738,0,0,1,1.172-3.683Z" transform="translate(-3.18 -2.179)"/></g></g></g></g><g transform="translate(170.518 418.987)"><g class="b" transform="translate(0.471 0.102)"><rect class="n" width="140" height="117" rx="20"/><rect class="o" x="1" y="1" width="138" height="115" rx="19"/></g><g transform="translate(18.513 18.513)"><text class="c" transform="translate(48.958 73.588)"><tspan x="-48.839" y="0">BADMINTON</tspan></text><g class="k" transform="translate(28.257 0)"><g transform="translate(-0.378 -0.019)"><path class="a" d="M26.274,50.76a9.14,9.14,0,0,1-9.13-9.13V37.022a.678.678,0,0,1,.678-.678h16.9a.678.678,0,0,1,.678.678V41.63a9.124,9.124,0,0,1-9.13,9.13ZM18.5,37.7V41.63a7.774,7.774,0,0,0,15.548,0V37.7Z" transform="translate(-2.554 -4.471)"/><path class="a" d="M47.542,13.241a.678.678,0,0,1-.61-.969l.868-1.823a.678.678,0,0,1,1.224.583l-.868,1.823a.678.678,0,0,1-.614.386Z" transform="translate(-4.628 -2.637)"/><path class="a" d="M35.656,35.308H31.149a.678.678,0,0,1-.658-.84L38.068,3.745a.678.678,0,0,1,.415-.47,15.712,15.712,0,0,1,12.026.006.678.678,0,0,1,.35.918l-.915,1.919a.678.678,0,0,1-1.22-.584l.6-1.259A14.374,14.374,0,0,0,39.3,4.415L32.016,33.953H35.23l5.558-11.7a.678.678,0,1,1,1.224.582l-5.74,12.091a.678.678,0,0,1-.615.387Z" transform="translate(-3.484 -2.08)"/><path class="a" d="M44.388,19.886a.678.678,0,0,1-.61-.968l.868-1.83a.678.678,0,0,1,1.225.58L45,19.5a.678.678,0,0,1-.615.388Z" transform="translate(-4.408 -3.1)"/><path class="a" d="M30.853,35.308H26.908a.678.678,0,0,1-.678-.678V3.907a.678.678,0,0,1,.432-.632,15.7,15.7,0,0,1,12.026,0,.678.678,0,0,1,.4.789L31.511,34.792A.678.678,0,0,1,30.853,35.308Zm-3.267-1.356h2.736L37.63,4.322a14.321,14.321,0,0,0-10.044.056Z" transform="translate(-3.188 -2.08)"/><path class="a" d="M21.235,35.308H16.728a.678.678,0,0,1-.61-.387L1.525,4.2a.678.678,0,0,1,.352-.917A15.7,15.7,0,0,1,13.9,3.274a.678.678,0,0,1,.415.47l7.578,30.723a.678.678,0,0,1-.658.84Zm-4.079-1.356h3.211L13.085,4.415A14.356,14.356,0,0,0,3.06,4.273Z" transform="translate(-1.459 -2.08)"/><path class="a" d="M26.044,35.308H22.1a.678.678,0,0,1-.658-.516L13.864,4.069a.678.678,0,0,1,.4-.789,15.7,15.7,0,0,1,12.026,0,.678.678,0,0,1,.432.632V34.63A.678.678,0,0,1,26.044,35.308ZM22.63,33.953h2.736V4.377a14.313,14.313,0,0,0-10.044-.056Z" transform="translate(-2.324 -2.08)"/><path class="a" d="M38.306,28.934H13.662a.678.678,0,0,1,0-1.356H38.306a.678.678,0,0,1,0,1.356Z" transform="translate(-2.264 -3.86)"/><path class="a" d="M34.724,42.657h-16.9a.678.678,0,1,1,0-1.356h16.9a.678.678,0,0,1,0,1.356Z" transform="translate(-2.554 -4.817)"/></g></g></g></g><g transform="translate(0 558.325)"><g class="b" transform="translate(-0.01 -0.236)"><rect class="n" width="140" height="117" rx="20"/><rect class="o" x="1" y="1" width="138" height="115" rx="19"/></g><g transform="translate(25.334 18.513)"><text class="c" transform="translate(42.656 73.25)"><tspan x="-42.893" y="0">SWIMMING</tspan></text><g class="l" transform="translate(21.437 0)"><g transform="translate(1.18 0.064)"><g transform="translate(0 30.779)"><path class="a" d="M44.622,33.088l-2.431,2.431a2.631,2.631,0,0,1-3.716,0,4.247,4.247,0,0,0-6.006,0l0,0a2.691,2.691,0,0,1-3.716,0,4.247,4.247,0,0,0-6.006,0l0,0a2.691,2.691,0,0,1-3.716,0,4.247,4.247,0,0,0-6.006,0l0,0a2.631,2.631,0,0,1-3.716,0,4.247,4.247,0,0,0-6.006,0l0,0L.864,37.95,2.01,39.1l2.431-2.431a2.691,2.691,0,0,1,3.716,0,4.253,4.253,0,0,0,6.008,0,2.691,2.691,0,0,1,3.716,0,4.253,4.253,0,0,0,6.008,0,2.691,2.691,0,0,1,3.716,0,4.253,4.253,0,0,0,6.008,0,2.691,2.691,0,0,1,3.716,0,4.253,4.253,0,0,0,6.008,0l2.431-2.431Z" transform="translate(-0.864 -33.088)"/></g><g transform="translate(0 35.641)"><path class="a" d="M44.622,38.315l-2.431,2.431a2.632,2.632,0,0,1-3.716,0,4.247,4.247,0,0,0-6.006,0l0,0a2.691,2.691,0,0,1-3.716,0,4.247,4.247,0,0,0-6.006,0l0,0a2.691,2.691,0,0,1-3.716,0,4.247,4.247,0,0,0-6.006,0l0,0a2.632,2.632,0,0,1-3.716,0,4.247,4.247,0,0,0-6.006,0l0,0L.864,43.177,2.01,44.322l2.431-2.431a2.691,2.691,0,0,1,3.716,0,4.253,4.253,0,0,0,6.008,0,2.691,2.691,0,0,1,3.716,0,4.253,4.253,0,0,0,6.008,0,2.691,2.691,0,0,1,3.716,0,4.253,4.253,0,0,0,6.008,0,2.691,2.691,0,0,1,3.716,0,4.253,4.253,0,0,0,6.008,0l2.431-2.431Z" transform="translate(-0.864 -38.315)"/></g><g transform="translate(0 40.503)"><path class="a" d="M44.622,43.541l-2.431,2.431a2.631,2.631,0,0,1-3.716,0,4.247,4.247,0,0,0-6.006,0l0,0a2.691,2.691,0,0,1-3.716,0,4.247,4.247,0,0,0-6.006,0l0,0a2.691,2.691,0,0,1-3.716,0,4.247,4.247,0,0,0-6.006,0l0,0a2.631,2.631,0,0,1-3.716,0,4.247,4.247,0,0,0-6.006,0l0,0L.864,48.4,2.01,49.549l2.431-2.431a2.691,2.691,0,0,1,3.716,0,4.253,4.253,0,0,0,6.008,0,2.691,2.691,0,0,1,3.716,0,4.253,4.253,0,0,0,6.008,0,2.691,2.691,0,0,1,3.716,0,4.253,4.253,0,0,0,6.008,0,2.691,2.691,0,0,1,3.716,0,4.253,4.253,0,0,0,6.008,0l2.431-2.431Z" transform="translate(-0.864 -43.541)"/></g><g transform="translate(8.103 0)"><path class="a" d="M35.031,23.487,24.124,12.579a.955.955,0,0,1,0-1.35h0l6.451-6.45a2.82,2.82,0,0,0,0-3.982,2.886,2.886,0,0,0-3.983,0L20.034,7.354a6.44,6.44,0,0,0,0,9.1l1.639,1.639-12.1,12.1,1.146,1.146L23.393,18.665a.81.81,0,0,0,0-1.146l-2.212-2.212a4.819,4.819,0,0,1,0-6.807l6.558-6.557a1.224,1.224,0,0,1,1.69,0,1.2,1.2,0,0,1,0,1.69l-6.45,6.45a2.574,2.574,0,0,0,0,3.641h0L33.885,24.632l7.293,7.293,1.146-1.146Z" transform="translate(-9.575 0)"/></g><g transform="translate(28.934 9.473)"><path class="a" d="M36.831,10.183a4.862,4.862,0,1,0,4.862,4.862A4.862,4.862,0,0,0,36.831,10.183Zm0,8.1a3.241,3.241,0,1,1,3.241-3.241A3.241,3.241,0,0,1,36.831,18.287Z" transform="translate(-31.969 -10.183)"/></g><g transform="translate(25.931 26.085)"><path class="a" d="M33.532,28.279a.81.81,0,0,0-1.146,0L28.74,31.925l1.146,1.146L32.959,30l3.074,3.074,1.146-1.146Z" transform="translate(-28.74 -28.042)"/></g></g></g></g></g><g transform="translate(170.518 558.325)"><g class="b" transform="translate(0.471 -0.236)"><rect class="n" width="140" height="117" rx="20"/><rect class="o" x="1" y="1" width="138" height="115" rx="19"/></g><g transform="translate(33.129 18.513)"><text class="c" transform="translate(35.342 73.25)"><tspan x="-34.841" y="0">KABADDI</tspan></text><g class="m" transform="translate(13.641 0)"><g transform="translate(-0.378 1.772)"><g transform="translate(43.325 28.287)"><g transform="translate(0 0)"><path class="a" d="M50.417,35.259l-2.262-2.243a.927.927,0,1,0-1.305,1.316l2.262,2.243a.927.927,0,0,0,1.305-1.316Z" transform="translate(-46.576 -32.747)"/></g></g><g transform="translate(41.017 25.989)"><g transform="translate(0 0)"><path class="a" d="M45.678,30.548a.927.927,0,0,0-1.311,0l0,0a.927.927,0,1,0,1.312,0Z" transform="translate(-44.095 -30.276)"/></g></g><g transform="translate(0)"><path class="a" d="M34.7,32.871l8.99-8.99a3.49,3.49,0,0,0-1.684-5.871A3.494,3.494,0,0,0,39.431,13.1a3.486,3.486,0,0,0-2.72-4.533A3.494,3.494,0,0,0,31.727,4.4l-.089-.1a6.184,6.184,0,0,0-4.513-1.965H19.847a.927.927,0,0,0-.927.927V4.479a4.21,4.21,0,0,0,.24,1.405,3.493,3.493,0,0,0-4.655,4.323,3.492,3.492,0,0,0-2.724,4.534,3.492,3.492,0,0,0-2.572,4.911,3.493,3.493,0,0,0-1.685,5.873l1.849,1.849-9.1,9.1a.927.927,0,1,0,1.311,1.311l9.19-9.19a3.49,3.49,0,0,0,5.213-3.178c.047,0,.094,0,.141,0a3.489,3.489,0,0,0,3.492-3.491c0-.047,0-.094,0-.141.046,0,.093,0,.139,0A3.489,3.489,0,0,0,23.247,18.3c0-.047,0-.094,0-.141.046,0,.093,0,.139,0a3.49,3.49,0,0,0,2.7-5.7l6.152-6.152a1.639,1.639,0,1,1,2.318,2.318l-.907.907-3.291,3.291a.927.927,0,1,0,1.311,1.311l3.291-3.291a1.639,1.639,0,1,1,2.318,2.318l-.907.907-2.384,2.384a.927.927,0,1,0,1.311,1.311l2.384-2.384A1.639,1.639,0,1,1,40,17.7L38.75,18.942l-1.139,1.139a.927.927,0,1,0,1.311,1.311l1.14-1.14a1.639,1.639,0,0,1,2.317,2.319l-8.99,8.99a12.555,12.555,0,0,1-8.448,3.68.927.927,0,0,0-.623.272l-8.305,8.336a.927.927,0,1,0,1.313,1.308l6.109-6.131a8.614,8.614,0,0,0,5.232,1.346l4.781,4.781a.927.927,0,1,0,1.311-1.311l-5.083-5.084a.927.927,0,0,0-.731-.268l-.294.024a6.765,6.765,0,0,1-3.867-.842l.6-.6A14.4,14.4,0,0,0,34.7,32.871ZM13.657,26.718a1.639,1.639,0,0,1-2.318,0l-2.5-2.5A1.639,1.639,0,1,1,11.153,21.9l2.5,2.5A1.641,1.641,0,0,1,13.657,26.718Zm3.628-3.628a1.641,1.641,0,0,1-2.318,0l-2.5-2.5L11.218,19.34a1.639,1.639,0,1,1,2.318-2.318l3.749,3.749h0a1.639,1.639,0,0,1,0,2.318Zm3.628-3.628a1.641,1.641,0,0,1-2.318,0L13.939,14.8a1.639,1.639,0,0,1,2.317-2.318l2.122,2.122,2.535,2.535h0a1.639,1.639,0,0,1,0,2.318Zm3.628-3.628a1.641,1.641,0,0,1-2.318,0l-4.656-4.656h0l-.906-.906a1.639,1.639,0,0,1,2.318-2.318l5.563,5.563a1.639,1.639,0,0,1,0,2.318Zm.244-4.7L22.24,8.592a4.24,4.24,0,0,0,.887.094h.02l2.543-.012a.927.927,0,0,0,0-1.854h0l-2.543.012h-.011a2.354,2.354,0,0,1-2.354-2.354V4.19h6.351A4.325,4.325,0,0,1,30.28,5.565l.038.04Z" transform="translate(0 -2.337)"/></g></g></g></g></g></g></svg>