<svg xmlns="http://www.w3.org/2000/svg" width="61.947" height="50.131" viewBox="0 0 61.947 50.131"><defs><style>.a{fill:#fff;}</style></defs><g transform="translate(-35.928 -770.941)"><path class="a" d="M70.058,804.994h8.226c.01.218.029.434.029.65,0,2.218.021,4.437-.012,6.655-.008.56.17.692.7.68a25.289,25.289,0,0,0,5.794-.381c3.543-.908,4.7-3.625,4.338-6.747-.412-3.545-3.223-5.345-6.463-5.385-7.164-.088-14.329-.091-21.494-.141-3.5-.025-7.005.05-10.5-.146-6.086-.341-11.872-3.463-13.631-10.9a15.951,15.951,0,0,1,.577-9.955c1.734-4.2,5.052-6.52,9.319-7.638a27.192,27.192,0,0,1,6.8-.742c2.253-.011,4.506.005,6.758.008h3.773v16.035H55.916v-7.8c-1.663,0-3.267-.038-4.868.018a7.322,7.322,0,0,0-1.969.4,5.223,5.223,0,0,0-3.827,4.291,7.241,7.241,0,0,0,.525,4.558,5.3,5.3,0,0,0,4.509,3.063c1.869.175,3.753.243,5.631.259,7.881.065,15.764.046,23.645.16a27.144,27.144,0,0,1,7.72.706c5.715,1.758,9.252,5.494,10.343,11.445a16.274,16.274,0,0,1-.818,8.573c-1.371,3.8-4.24,5.973-7.964,7.143a28.731,28.731,0,0,1-8.928,1.273c-3.093-.028-6.185-.01-9.278,0-.4,0-.641-.041-.64-.553.017-5.032.01-10.064.012-15.1A4.224,4.224,0,0,1,70.058,804.994Z"/><path class="a" d="M96.011,793.348c-2.289-1.678-4.526-3.3-6.731-4.966-.184-.139-.209-.569-.206-.862.012-1.06.16-2.125.088-3.177a4.943,4.943,0,0,0-3.219-4.412,12.372,12.372,0,0,0-4.294-.887c-.466-.025-.935,0-1.457,0-.015-.272-.038-.49-.038-.707,0-2.177.019-4.354-.015-6.53-.01-.61.212-.733.774-.777a18.815,18.815,0,0,1,6.86.573c4.2,1.237,6.949,4.111,8.745,7.978,1.961,4.222,1.617,8.47-.05,12.695C96.333,792.613,96.182,792.948,96.011,793.348Z"/><path class="a" d="M37.987,798.71c2.148,1.564,4.286,3.113,6.408,4.685a.765.765,0,0,1,.2.555c0,1.349-.118,2.7-.027,4.045a4.367,4.367,0,0,0,3.7,4.175,43.083,43.083,0,0,0,4.539.6c.217.027.438.023.683.034.012.23.029.41.03.591,0,2.136-.017,4.272.014,6.407a.652.652,0,0,1-.61.777,13.265,13.265,0,0,1-9.955-1.69,13.75,13.75,0,0,1-6.892-10.623,14.584,14.584,0,0,1,1.577-9.1c.059-.108.119-.216.184-.32A.967.967,0,0,1,37.987,798.71Z"/><path class="a" d="M70.034,787.117V771.088h8.018v16.029Z"/><path class="a" d="M63.558,820.668h-8V804.6h8Z"/></g></svg>