<svg xmlns="http://www.w3.org/2000/svg" width="596.275" height="628.209" viewBox="0 0 596.275 628.209"><defs><style>.a{fill:none;}.b{fill:#851e5b;}.c,.s,.u{opacity:0.2;}.d{fill:#bcbaba;}.e,.g,.i,.v{opacity:0.3;}.f,.g,.t{fill:#fff;}.h{opacity:0.1;}.j,.r{opacity:0.15;}.k{opacity:0.07;}.l{fill:#ffbda7;}.m{fill:#263238;}.n{fill:#455a64;}.o{fill:#37474f;}.p{fill:#ebebeb;}.q{fill:#f0997a;}.t{opacity:0.4;}.u,.v{fill:#eb652b;}.w{fill:#ffa8a7;}.x{fill:#f28f8f;}.y{fill:#b16668;}.z{opacity:0.35;}.aa{opacity:0.05;}.ab{opacity:0.6;}.ac{fill:#9a4a4d;}</style></defs><g transform="translate(9.074 304.05)"><ellipse class="a" cx="293.019" cy="162.08" rx="293.019" ry="162.08"/></g><g transform="translate(74.755 352.438)"><path class="a" d="M437.5,530.118,518.09,483.54a1.754,1.754,0,0,0,0-3.321L177.988,283.89a6.364,6.364,0,0,0-5.752,0l-80.6,46.5a1.754,1.754,0,0,0,0,3.321l107.61,62.108a1.754,1.754,0,0,1,0,3.321l-5.035,2.91a1.754,1.754,0,0,0,0,3.321l113.429,65.47a6.5,6.5,0,0,0,5.779,0l5.181-2.883a6.5,6.5,0,0,1,5.779,0l107.371,61.989A6.364,6.364,0,0,0,437.5,530.118Z" transform="translate(-83.636 -283.203)"/><g transform="translate(0 106.439)"><path class="a" d="M336.289,463.119a9.857,9.857,0,0,0,3.879-.771l19.928-8.582a4.718,4.718,0,0,1,1.807-.332,5.02,5.02,0,0,1,1.01.093l23.568,4.61a10.853,10.853,0,0,0,2.072.2c3.016,0,5.7-1.329,6.815-3.242a4.225,4.225,0,0,0,0-4.4l-7.6-12.953,14.521-11.253a4.53,4.53,0,0,0,1.754-5.075c-.824-2.4-3.707-3.986-7.187-3.986l-24.976.186a3.866,3.866,0,0,1-2.245-.571l-14.375-11.731a8.807,8.807,0,0,0-5.553-1.754c-2.471,0-5.58.877-6.908,3.335l-7.387,13.71a3.241,3.241,0,0,1-1.262.452l-23.767,4.265c-3.149.571-5.314,2.418-5.513,4.809-.186,1.7.678,3.986,3.64,5.155l20.313,8.29a2.28,2.28,0,0,1,.359.173l-.319,13.95a4.637,4.637,0,0,0,1.329,3.308A8.623,8.623,0,0,0,336.289,463.119Z" transform="translate(-253.442 -350.103)"/><path class="a" d="M256.767,478.213a7.5,7.5,0,0,0,2.949-.585l13.378-5.752a2.257,2.257,0,0,1,.85-.159,2.141,2.141,0,0,1,.518,0l15.809,3.1a8.572,8.572,0,0,0,1.554.146,5.978,5.978,0,0,0,5.314-2.657,3.76,3.76,0,0,0,0-3.826l-4.716-7.971,9.061-7.028a3.892,3.892,0,0,0,1.475-4.411c-.678-2.006-2.909-3.295-5.659-3.295l-16.739.12a2.059,2.059,0,0,1-.97-.186l-9.618-7.852a6.736,6.736,0,0,0-4.278-1.328,5.965,5.965,0,0,0-5.407,2.657l-4.823,8.954a1.9,1.9,0,0,1-.359.093l-15.942,2.87c-2.511.452-4.2,1.979-4.411,3.986a4.251,4.251,0,0,0,2.976,4.358l13.285,5.434-.186,8.768a3.906,3.906,0,0,0,1.156,2.843A6.643,6.643,0,0,0,256.767,478.213Z" transform="translate(-59.216 -339.278)"/><path class="a" d="M392.4,400.545a6.816,6.816,0,0,0,2.657-.545l11.678-5.035a1.648,1.648,0,0,1,.624-.106h.385l13.8,2.657a8.45,8.45,0,0,0,1.422.133,5.58,5.58,0,0,0,4.955-2.458,3.653,3.653,0,0,0,0-3.68l-3.986-6.762,7.785-5.912a3.747,3.747,0,0,0,1.395-4.225A5.314,5.314,0,0,0,427.8,371.5l-14.614.106a1.687,1.687,0,0,1-.664-.106l-8.37-6.842a6.258,6.258,0,0,0-3.986-1.329,5.527,5.527,0,0,0-5.008,2.537L391,373.576h-.146l-13.843,2.6a4.557,4.557,0,0,0-4.132,3.786,3.986,3.986,0,0,0,2.816,4.145l11.4,4.65-.159,7.44a3.787,3.787,0,0,0,1.1,2.737,6.2,6.2,0,0,0,4.358,1.607Z" transform="translate(-372.87 -363.321)"/></g></g><g transform="translate(17.415 291.104)"><g transform="translate(469.927 124.538)"><path class="b" d="M50.287,430.3c.332-1.754,4.331-44.492,22.585-69.973,22.452-31.526,40.613-35.1,50.843-23.435,9.193,10.469-4.358,23.329-20.632,36.4-19.3,15.5-33.7,33.306-39.417,56.821Z" transform="translate(-50.287 -330.778)"/><path class="c" d="M50.287,430.3c.332-1.754,4.331-44.492,22.585-69.973,22.452-31.526,40.613-35.1,50.843-23.435,9.193,10.469-4.358,23.329-20.632,36.4-19.3,15.5-33.7,33.306-39.417,56.821Z" transform="translate(-50.287 -330.778)"/><path class="d" d="M59.822,425.065a.93.93,0,0,0,1-.8c7.227-50.085,45.236-79.379,55.027-84.467a.93.93,0,0,0,.385-1.328.917.917,0,0,0-1.249-.385c-9.964,5.195-48.664,34.98-56,85.849a.917.917,0,0,0,.784,1.05Z" transform="translate(-51.506 -328.412)"/><path class="b" d="M77.237,456.115c1.329-.093,2.657-.226,3.866-.372,4.251-.492,8.689-1.262,12.076-3.866s5.314-7.612,3.2-11.332c-1.063-1.847-2.976-3.175-3.72-5.181-1.1-2.923.731-6.257,3.295-7.971s5.713-2.418,8.7-3.321a22.332,22.332,0,0,0,10.788-6.337c2.657-3.228,3.879-8.051,1.926-11.8-1.408-2.657-4.3-4.849-4.211-7.891.08-2.816,2.763-4.862,4.53-6.736,2.272-2.418,4.849-4.557,6.5-7.52a10.309,10.309,0,0,0,.611-9.632,11.8,11.8,0,0,0-6.31-4.969,31.127,31.127,0,0,0-16.646-1.329,57.606,57.606,0,0,0-15.942,5.62A77.879,77.879,0,0,0,60.165,393.5a55.8,55.8,0,0,0-10.774,20.911A83.922,83.922,0,0,0,46.2,439.176c.252,5.633,1.063,10.854,6.643,13.6C60.431,456.314,69,456.766,77.237,456.115Z" transform="translate(-43.851 -318.783)"/><g class="e" transform="translate(2.333 48.507)"><path class="f" d="M77.237,456.115c1.329-.093,2.657-.226,3.866-.372,4.251-.492,8.689-1.262,12.076-3.866s5.314-7.612,3.2-11.332c-1.063-1.847-2.976-3.175-3.72-5.181-1.1-2.923.731-6.257,3.295-7.971s5.713-2.418,8.7-3.321a22.332,22.332,0,0,0,10.788-6.337c2.657-3.228,3.879-8.051,1.926-11.8-1.408-2.657-4.3-4.849-4.211-7.891.08-2.816,2.763-4.862,4.53-6.736,2.272-2.418,4.849-4.557,6.5-7.52a10.309,10.309,0,0,0,.611-9.632,11.8,11.8,0,0,0-6.31-4.969,31.127,31.127,0,0,0-16.646-1.329,57.606,57.606,0,0,0-15.942,5.62A77.879,77.879,0,0,0,60.165,393.5a55.8,55.8,0,0,0-10.774,20.911A83.922,83.922,0,0,0,46.2,439.176c.252,5.633,1.063,10.854,6.643,13.6C60.431,456.314,69,456.766,77.237,456.115Z" transform="translate(-46.184 -367.29)"/></g><path class="d" d="M55.829,443.736a.915.915,0,0,1-.266,0,.784.784,0,0,1-.478-1.01c19.3-55.293,63.264-68.3,63.7-68.419a.8.8,0,0,1,.983.545.784.784,0,0,1-.545.97C107.15,379.236,72.383,398,56.573,443.245a.771.771,0,0,1-.744.492Z" transform="translate(-49.705 -316.487)"/><path class="d" d="M59.695,402.777a.824.824,0,0,1-.651-.346.8.8,0,0,1,.2-1.1c11.505-8.091,30.556-6.35,40.507-2.524a.8.8,0,1,1-.571,1.475c-9.565-3.693-28.005-5.407-39.032,2.351A.8.8,0,0,1,59.695,402.777Z" transform="translate(-35.396 -309.484)"/></g><g transform="translate(0)"><g transform="translate(23.478)"><path class="b" d="M460.172,302.976a41.606,41.606,0,0,1-1.674,5.048c-1.887,4.8-4.278,9.486-4.942,14.614-.306,2.378-.266,4.916-1.475,6.988-2.8,4.769-6.018,1.262-7.971-1.647-4.6-7.094-9.154-13.923-17.045-17.563-3.919-1.793-8.064-3.2-11.558-5.739s-6.271-6.55-5.925-10.854c.213-2.577,1.528-5.048,1.249-7.626-.345-3.228-3.122-5.673-6.018-7.121s-6.124-2.272-8.835-4.065-4.862-5.022-3.986-8.157c1.169-4.451,7.533-6.39,7.852-10.987.332-4.969-6.882-8.157-6.284-13.1,1.089-9.061,14.361-5.314,19.131-2.657,4.211,2.391,8.117,5.46,12.714,7.015,5.792,1.953,12.86,1.661,16.979,6.191,4.69,5.181,2.657,13.445,5.048,20.021,2.657,7.426,10.788,12.036,12.953,19.635a19.065,19.065,0,0,1-.213,10Z" transform="translate(-391.794 -237.036)"/><path class="c" d="M460.172,302.976a41.606,41.606,0,0,1-1.674,5.048c-1.887,4.8-4.278,9.486-4.942,14.614-.306,2.378-.266,4.916-1.475,6.988-2.8,4.769-6.018,1.262-7.971-1.647-4.6-7.094-9.154-13.923-17.045-17.563-3.919-1.793-8.064-3.2-11.558-5.739s-6.271-6.55-5.925-10.854c.213-2.577,1.528-5.048,1.249-7.626-.345-3.228-3.122-5.673-6.018-7.121s-6.124-2.272-8.835-4.065-4.862-5.022-3.986-8.157c1.169-4.451,7.533-6.39,7.852-10.987.332-4.969-6.882-8.157-6.284-13.1,1.089-9.061,14.361-5.314,19.131-2.657,4.211,2.391,8.117,5.46,12.714,7.015,5.792,1.953,12.86,1.661,16.979,6.191,4.69,5.181,2.657,13.445,5.048,20.021,2.657,7.426,10.788,12.036,12.953,19.635a19.065,19.065,0,0,1-.213,10Z" transform="translate(-391.794 -237.036)"/><path class="d" d="M444.406,321.385h0a.651.651,0,0,0,.624-.7c-2.391-37.438-30.343-69.92-44.784-78.994a.664.664,0,0,0-.93.213.691.691,0,0,0,.213.93c14.228,8.941,41.8,40.985,44.16,77.931a.664.664,0,0,0,.717.624Z" transform="translate(-385.739 -235.543)"/></g><g transform="translate(0 38.696)"><path class="b" d="M478.158,341.354c-7.971-28.231-36.893-41.676-63.344-49.78-15.942-4.889-14.919-17.483-9.432-21.615,8.4-6.324,33.054-5.646,50.909,8.954S481,317.321,481.161,333.1Z" transform="translate(-401.74 -266.162)"/><path class="g" d="M478.158,341.354c-7.971-28.231-36.893-41.676-63.344-49.78-15.942-4.889-14.919-17.483-9.432-21.615,8.4-6.324,33.054-5.646,50.909,8.954S481,317.321,481.161,333.1Z" transform="translate(-401.74 -266.162)"/><path class="d" d="M467.849,328.393h.186a.677.677,0,0,0,.465-.837c-10.455-37.571-47.2-56.436-64.845-56.436a.671.671,0,0,0,0,1.342c17.271,0,53.274,18.533,63.556,55.452a.651.651,0,0,0,.638.478Z" transform="translate(-390.766 -264.534)"/></g></g></g><g transform="translate(77.361 452.292)"><g transform="translate(51.425 47.985)"><path class="b" d="M396.02,408.355c2.763,0,4.716,1.249,4.822,2.657.252.518.066,12.847,0,13.285a2.192,2.192,0,0,1-.93,1.422l-11.877,7.44,4.278,7.28a1.7,1.7,0,0,1,.239.717h0v.12c.066,1.156,0,12.794,0,13.112-.133,1.727-3.162,3.082-6.31,2.471l-23.555-4.61a7.7,7.7,0,0,0-4.384.4l-19.928,8.6c-3.175,1.329-7.679,0-7.626-2.245V444.65c0-.9-.731-1.767-2.006-2.285l-19.928-8.316c-1.528-.611-2.152-1.594-1.993-2.511s-.266-10.509,0-12.634a1.756,1.756,0,0,1,0-.452h0c.266-.97,1.408-1.86,3.295-2.205l23.767-4.265a4.344,4.344,0,0,0,3.135-1.807l7.387-13.724c1.169-2.179,6.164-2.657,8.449-.771l14.361,11.731a6.351,6.351,0,0,0,3.986,1.169Z" transform="translate(-306.702 -394.477)"/><path class="c" d="M396.02,408.355c2.763,0,4.716,1.249,4.822,2.657.252.518.066,12.847,0,13.285a2.192,2.192,0,0,1-.93,1.422l-11.877,7.44,4.278,7.28a1.7,1.7,0,0,1,.239.717h0v.12c.066,1.156,0,12.794,0,13.112-.133,1.727-3.162,3.082-6.31,2.471l-23.555-4.61a7.7,7.7,0,0,0-4.384.4l-19.928,8.6c-3.175,1.329-7.679,0-7.626-2.245V444.65c0-.9-.731-1.767-2.006-2.285l-19.928-8.316c-1.528-.611-2.152-1.594-1.993-2.511s-.266-10.509,0-12.634a1.756,1.756,0,0,1,0-.452h0c.266-.97,1.408-1.86,3.295-2.205l23.767-4.265a4.344,4.344,0,0,0,3.135-1.807l7.387-13.724c1.169-2.179,6.164-2.657,8.449-.771l14.361,11.731a6.351,6.351,0,0,0,3.986,1.169Z" transform="translate(-306.702 -394.477)"/><path class="b" d="M345.807,430.6c-.332,1.634-3.228,2.87-6.271,2.272l-23.568-4.6a8.13,8.13,0,0,0-2.777,0l-.146,13.02a7.784,7.784,0,0,1,2.936,0l23.555,4.61c3.149.611,6.178-.744,6.3-2.471C345.914,443,345.7,432.85,345.807,430.6Z" transform="translate(-259.971 -383.421)"/><path class="h" d="M345.807,430.6c-.332,1.634-3.228,2.87-6.271,2.272l-23.568-4.6a8.13,8.13,0,0,0-2.777,0l-.146,13.02a7.784,7.784,0,0,1,2.936,0l23.555,4.61c3.149.611,6.178-.744,6.3-2.471C345.914,443,345.7,432.85,345.807,430.6Z" transform="translate(-259.971 -383.421)"/><path class="b" d="M392.412,440.406l-7.971-13.6a1.873,1.873,0,0,1,.7-2.524l14.879-11.518c2.365-1.833.066-4.424-3.879-4.4l-24.883.186a6.351,6.351,0,0,1-3.986-1.169l-14.388-11.731c-2.285-1.86-7.28-1.408-8.449.77l-7.387,13.724a4.345,4.345,0,0,1-3.135,1.807l-23.767,4.265c-3.773.678-4.557,3.56-1.328,4.876l20.313,8.3c1.329.518,2.033,1.329,2.006,2.285l-.319,14.361c0,2.285,4.464,3.6,7.626,2.245l19.928-8.6a7.718,7.718,0,0,1,4.384-.4l23.568,4.61C390.087,444.63,393.687,442.571,392.412,440.406Z" transform="translate(-306.8 -394.484)"/><path class="b" d="M381.117,423.963h0a2.205,2.205,0,0,1,.983,1.7l-.332,14.348c0,1.089,1.01,1.966,2.431,2.431l-.08,12.887c-1.329-.465-2.365-1.329-2.338-2.378V438.6a1.913,1.913,0,0,0-.558-1.328h0a3.9,3.9,0,0,0-.877-.664,4.638,4.638,0,0,0-.571-.292l-19.928-8.3c-1.528-.638-2.139-1.608-1.993-2.524s-.226-10.708,0-12.7c0,.837.585,1.714,2.006,2.3l20.3,8.29.452.213h0Z" transform="translate(-357.747 -388.47)"/><path class="h" d="M381.117,423.963h0a2.205,2.205,0,0,1,.983,1.7l-.332,14.348c0,1.089,1.01,1.966,2.431,2.431l-.08,12.887c-1.329-.465-2.365-1.329-2.338-2.378V438.6a1.913,1.913,0,0,0-.558-1.328h0a3.9,3.9,0,0,0-.877-.664,4.638,4.638,0,0,0-.571-.292l-19.928-8.3c-1.528-.638-2.139-1.608-1.993-2.524s-.226-10.708,0-12.7c0,.837.585,1.714,2.006,2.3l20.3,8.29.452.213h0Z" transform="translate(-357.747 -388.47)"/></g><g transform="translate(175.553 95.803)"><path class="b" d="M296.587,439.777c1.86,0,3.162.837,3.242,1.767.159.345,0,8.609,0,8.9a1.528,1.528,0,0,1-.638.943l-7.971,5,2.9,4.876a1.2,1.2,0,0,1,.159.478h0v8.795c-.093,1.156-2.126,2.073-4.238,1.661l-15.849-3.016a5.182,5.182,0,0,0-2.936.266l-13.365,5.766c-2.126.917-5.141,0-5.115-1.5v-9.618c0-.611-.492-1.182-1.329-1.541l-13.4-5.567c-1.023-.425-1.435-1.076-1.328-1.687s-.186-7.041,0-8.463a1.128,1.128,0,0,1,0-.306h0c.173-.651.943-1.236,2.205-1.475l15.942-2.856a2.949,2.949,0,0,0,2.112-1.209l4.955-9.207c.784-1.448,4.132-1.767,5.66-.5l9.672,7.865a4.172,4.172,0,0,0,2.657.784Z" transform="translate(-236.647 -430.474)"/><path class="c" d="M296.587,439.777c1.86,0,3.162.837,3.242,1.767.159.345,0,8.609,0,8.9a1.528,1.528,0,0,1-.638.943l-7.971,5,2.9,4.876a1.2,1.2,0,0,1,.159.478h0v8.795c-.093,1.156-2.126,2.073-4.238,1.661l-15.849-3.016a5.182,5.182,0,0,0-2.936.266l-13.365,5.766c-2.126.917-5.141,0-5.115-1.5v-9.618c0-.611-.492-1.182-1.329-1.541l-13.4-5.567c-1.023-.425-1.435-1.076-1.328-1.687s-.186-7.041,0-8.463a1.128,1.128,0,0,1,0-.306h0c.173-.651.943-1.236,2.205-1.475l15.942-2.856a2.949,2.949,0,0,0,2.112-1.209l4.955-9.207c.784-1.448,4.132-1.767,5.66-.5l9.672,7.865a4.172,4.172,0,0,0,2.657.784Z" transform="translate(-236.647 -430.474)"/><path class="b" d="M262.93,454.663c-.226,1.1-2.179,1.926-4.211,1.528l-15.863-3.082a5.829,5.829,0,0,0-1.86,0l-.106,8.728a5.153,5.153,0,0,1,1.966,0l15.8,3.1c2.112.412,4.145-.5,4.225-1.661C262.957,463.006,262.784,456.2,262.93,454.663Z" transform="translate(-205.315 -423.067)"/><path class="h" d="M262.93,454.663c-.226,1.1-2.179,1.926-4.211,1.528l-15.863-3.082a5.829,5.829,0,0,0-1.86,0l-.106,8.728a5.153,5.153,0,0,1,1.966,0l15.8,3.1c2.112.412,4.145-.5,4.225-1.661C262.957,463.006,262.784,456.2,262.93,454.663Z" transform="translate(-205.315 -423.067)"/><path class="b" d="M294.083,461.263l-5.314-9.114a1.328,1.328,0,0,1,.465-1.7l9.977-7.719c1.581-1.222,0-2.976-2.657-2.949l-16.686.12a4.172,4.172,0,0,1-2.657-.784l-9.632-7.852c-1.528-1.262-4.876-.943-5.66.5l-4.955,9.207a2.909,2.909,0,0,1-2.112,1.209l-15.942,2.856c-2.524.465-3.056,2.391-.89,3.281l13.617,5.553c.863.359,1.328.93,1.328,1.528l-.213,9.632c0,1.541,2.976,2.418,5.1,1.5l13.378-5.752a5.181,5.181,0,0,1,2.936-.266l15.8,3.082C292.529,464.092,294.92,462.711,294.083,461.263Z" transform="translate(-236.614 -430.478)"/><path class="b" d="M286.49,450.243h0a1.435,1.435,0,0,1,.664,1.143L286.942,461c0,.731.664,1.329,1.621,1.621v8.649c-.917-.319-1.581-.877-1.568-1.594v-9.618a1.329,1.329,0,0,0-.385-.89h0a2.659,2.659,0,0,0-.585-.452,2.111,2.111,0,0,0-.385-.2l-13.4-5.567c-1.023-.425-1.435-1.076-1.328-1.687s-.146-7.187,0-8.516c0,.558.385,1.156,1.328,1.541l13.617,5.553.292.146h0Z" transform="translate(-270.764 -426.446)"/><path class="h" d="M286.49,450.243h0a1.435,1.435,0,0,1,.664,1.143L286.942,461c0,.731.664,1.329,1.621,1.621v8.649c-.917-.319-1.581-.877-1.568-1.594v-9.618a1.329,1.329,0,0,0-.385-.89h0a2.659,2.659,0,0,0-.585-.452,2.111,2.111,0,0,0-.385-.2l-13.4-5.567c-1.023-.425-1.435-1.076-1.328-1.687s-.146-7.187,0-8.516c0,.558.385,1.156,1.328,1.541l13.617,5.553.292.146h0Z" transform="translate(-270.764 -426.446)"/></g><path class="b" d="M427.164,366.5c1.621,0,2.763.731,2.83,1.554.146.292,0,7.52,0,7.772a1.329,1.329,0,0,1-.545.824l-6.961,4.357L425,385.274a1.478,1.478,0,0,1,.146.425h0v7.679c-.08,1.023-1.86,1.807-3.693,1.448l-13.8-2.657a4.663,4.663,0,0,0-2.577.226l-11.678,5.035c-1.86.8-4.49,0-4.464-1.328v-8.4c0-.531-.438-1.036-1.182-1.329l-11.718-4.862c-.89-.372-1.262-.943-1.156-1.475s-.159-6.151,0-7.4a.585.585,0,0,1,0-.266h0c.159-.571.824-1.089,1.926-1.328l13.923-2.5a2.55,2.55,0,0,0,1.833-1.063l4.331-7.971c.691-1.329,3.614-1.541,4.942-.452l8.423,6.868a3.653,3.653,0,0,0,2.311.678Z" transform="translate(-374.821 -358.365)"/><path class="c" d="M427.164,366.5c1.621,0,2.763.731,2.83,1.554.146.292,0,7.52,0,7.772a1.329,1.329,0,0,1-.545.824l-6.961,4.357L425,385.274a1.478,1.478,0,0,1,.146.425h0v7.679c-.08,1.023-1.86,1.807-3.693,1.448l-13.8-2.657a4.663,4.663,0,0,0-2.577.226l-11.678,5.035c-1.86.8-4.49,0-4.464-1.328v-8.4c0-.531-.438-1.036-1.182-1.329l-11.718-4.862c-.89-.372-1.262-.943-1.156-1.475s-.159-6.151,0-7.4a.585.585,0,0,1,0-.266h0c.159-.571.824-1.089,1.926-1.328l13.923-2.5a2.55,2.55,0,0,0,1.833-1.063l4.331-7.971c.691-1.329,3.614-1.541,4.942-.452l8.423,6.868a3.653,3.653,0,0,0,2.311.678Z" transform="translate(-374.821 -358.365)"/><path class="b" d="M397.716,379.506c-.2.957-1.9,1.674-3.68,1.328l-13.8-2.657a4.743,4.743,0,0,0-1.621,0l-.093,7.626a4.439,4.439,0,0,1,1.727,0l13.8,2.657c1.847.359,3.614-.438,3.68-1.448C397.743,386.786,397.65,380.848,397.716,379.506Z" transform="translate(-347.406 -351.879)"/><path class="h" d="M397.716,379.506c-.2.957-1.9,1.674-3.68,1.328l-13.8-2.657a4.743,4.743,0,0,0-1.621,0l-.093,7.626a4.439,4.439,0,0,1,1.727,0l13.8,2.657c1.847.359,3.614-.438,3.68-1.448C397.743,386.786,397.65,380.848,397.716,379.506Z" transform="translate(-347.406 -351.879)"/><path class="b" d="M425,385.27l-4.676-7.971a1.076,1.076,0,0,1,.4-1.475l8.715-6.749c1.395-1.076,0-2.591-2.272-2.577l-14.614.106a3.653,3.653,0,0,1-2.312-.678l-8.423-6.868c-1.328-1.089-4.251-.824-4.942.452l-4.331,7.971a2.551,2.551,0,0,1-1.833,1.063l-13.883,2.617c-2.205.4-2.657,2.086-.784,2.856L388,378.867c.744.319,1.2.81,1.182,1.328L389,388.618c0,1.329,2.657,2.112,4.464,1.329l11.678-5.022a4.49,4.49,0,0,1,2.564-.239l13.8,2.657C423.644,387.755,425.743,386.546,425,385.27Z" transform="translate(-374.821 -358.361)"/><path class="b" d="M418.346,375.616h0a1.329,1.329,0,0,1,.571,1.01l-.186,8.4c0,.638.585,1.156,1.421,1.422V394c-.8-.279-1.328-.77-1.328-1.408v-8.4a1.182,1.182,0,0,0-.332-.784h0a2.758,2.758,0,0,0-.518-.385,1.584,1.584,0,0,0-.332-.173l-11.718-4.862c-.89-.372-1.249-.943-1.169-1.475s-.133-6.271,0-7.44c0,.491.332,1,1.169,1.328l11.957,4.862.252.12h0Z" transform="translate(-404.623 -354.845)"/><path class="h" d="M418.346,375.616h0a1.329,1.329,0,0,1,.571,1.01l-.186,8.4c0,.638.585,1.156,1.421,1.422V394c-.8-.279-1.328-.77-1.328-1.408v-8.4a1.182,1.182,0,0,0-.332-.784h0a2.758,2.758,0,0,0-.518-.385,1.584,1.584,0,0,0-.332-.173l-11.718-4.862c-.89-.372-1.249-.943-1.169-1.475s-.133-6.271,0-7.44c0,.491.332,1,1.169,1.328l11.957,4.862.252.12h0Z" transform="translate(-404.623 -354.845)"/></g><g transform="translate(92.638 319.869)"><g transform="translate(0)"><path class="b" d="M429.88,389.83V362.9L324.94,302.32v26.929Z" transform="translate(-323.651 -244.354)"/><path class="i" d="M429.88,389.83V362.9L324.94,302.32v26.929Z" transform="translate(-323.651 -244.354)"/><path class="j" d="M267.89,314.287V302.33l104.953,60.581,75.779-43.748v11.957l-72.683,41.955a6.842,6.842,0,0,1-6.2,0Z" transform="translate(-266.601 -244.35)"/><path class="b" d="M260.42,308.138a2.232,2.232,0,0,1,1.329-1.807l81.239-46.9a6.842,6.842,0,0,1,6.217,0l101.831,58.8a2.166,2.166,0,0,1,1.329,1.794V333.5a2.178,2.178,0,0,1-1.329,1.794L369.8,382.19a6.842,6.842,0,0,1-6.217,0L261.749,323.4a2.205,2.205,0,0,1-1.329-1.793Z" transform="translate(-260.42 -258.688)"/><path class="c" d="M260.42,308.138a2.232,2.232,0,0,1,1.329-1.807l81.239-46.9a6.842,6.842,0,0,1,6.217,0l101.831,58.8a2.166,2.166,0,0,1,1.329,1.794V333.5a2.178,2.178,0,0,1-1.329,1.794L369.8,382.19a6.842,6.842,0,0,1-6.217,0L261.749,323.4a2.205,2.205,0,0,1-1.329-1.793Z" transform="translate(-260.42 -258.688)"/><path class="b" d="M261.768,306.332l81.239-46.9a6.842,6.842,0,0,1,6.217,0l101.831,58.8c1.714.983,1.714,2.591,0,3.587l-81.239,46.9a6.842,6.842,0,0,1-6.217,0L261.768,309.932C260.054,308.935,260.054,307.328,261.768,306.332Z" transform="translate(-260.479 -258.688)"/><path class="h" d="M261.768,306.332l81.239-46.9a6.842,6.842,0,0,1,6.217,0l101.831,58.8c1.714.983,1.714,2.591,0,3.587l-81.239,46.9a6.842,6.842,0,0,1-6.217,0L261.768,309.932C260.054,308.935,260.054,307.328,261.768,306.332Z" transform="translate(-260.479 -258.688)"/></g><ellipse class="k" cx="46.923" cy="27.089" rx="46.923" ry="27.089" transform="translate(26.717 22.854)"/></g><g transform="translate(96.729 68.466)"><g transform="translate(0)"><path class="l" d="M320.28,254.205l19.41-.345c-.292,12.953-2.351,27.328-2.657,39.5-.066,2.285,0,17.776-.81,22.492-1.328,7.068-9.7,6.111-10.137,1.873s.531-22.319.5-24.179c.08-7.8-3.574-20.964-5.487-34.953C320.984,257.9,320.36,254.883,320.28,254.205Z" transform="translate(-231.361 -8.871)"/><path class="m" d="M320.042,304.787c-.173,4.158.2,6.961,1.422,9.539a6.111,6.111,0,0,0,6.789,3.175c2.87-.425,6.643-1.953,7.812-5.447a22.864,22.864,0,0,0,1-9.844Z" transform="translate(-228.519 7.013)"/><path class="n" d="M334.266,282.47c1.142.2.93,5.792,1.036,11.412.12,6.032,1.647,8.675,1.793,13.617.173,5.646-.372,8.117-2.657,11.292s-9.552,5.792-12.475.611c-2.378-4.211-2.059-8.6-1.249-14.135a138.359,138.359,0,0,0,1.674-14.122c.2-4.2.319-8.277,1.329-8.635v2.019c0,.611-.093,2.737.545,2.83a7.894,7.894,0,0,0,.173-1.581,1.98,1.98,0,0,1,.452-1.328,2.139,2.139,0,0,1,1.329-.438,30.624,30.624,0,0,1,3.494-.186,10.749,10.749,0,0,1,1.727.093,4.822,4.822,0,0,1,1.448.359,1.049,1.049,0,0,1,.571.638,1.728,1.728,0,0,1,0,.638,4.21,4.21,0,0,0,0,1.156c0,.173.106.385.279.359s.213-.173.226-.319c.066-.664,0-1.169.08-1.953v-1.222C334.04,283.214,334.253,282.829,334.266,282.47Z" transform="translate(-228.582 0.528)"/><path class="o" d="M336.858,300.123c0,.824.186,6.217-1.329,7.028s-2.112-3.388-2.112-3.388-3.574-1.5-9.167.306c.186.89-.93,3.667-2.338,2.909s-1.329-6.908-1.329-6.988c-.757,5.314-1,9.565,1.329,13.657,2.923,5.181,10.176,2.564,12.475-.611s2.843-5.646,2.657-11.292C336.951,301.172,336.911,300.641,336.858,300.123Z" transform="translate(-228.45 6.284)"/><path class="m" d="M321.429,309.834c-.173,2.019,1.887,1.541,2.258-1.329s-.5-9.751,0-14.614c-.106-5.62.106-11.213-1.036-11.412v.2l-.133,2.843v1.209c-.385,4.118-.611,12.129-.624,15.942a64.792,64.792,0,0,1-.465,7.161Z" transform="translate(-216.966 0.531)"/><path class="m" d="M331.64,309.838a62.364,62.364,0,0,1-.385-7.187c0-3.773-.239-11.691-.624-15.823a10.632,10.632,0,0,1-.173-2.338V282.47c-.757.279-1.023,2.5-1.2,5.314,0,1.621,0,3.64.159,6.1.5,4.9-.385,11.85,0,14.693S331.813,311.857,331.64,309.838Z" transform="translate(-235.255 0.528)"/><path class="l" d="M368.679,283.607c.146-3.986-2.537-41.277-2.537-41.277l18.334,11.638c-3.986,23.555-4.783,29.108-4.862,32.961h0a2.855,2.855,0,0,1,.106,1c0,4.57-5.181,7.041-9.207,10.1a75.72,75.72,0,0,1-10.907,7.108c-2.923,1.475-8.861,1.608-9.605-.279,4.9-3.746,12.036-9.3,15.942-13.617C367.829,289.187,368.533,287.619,368.679,283.607Z" transform="translate(-315.63 -12.659)"/><path class="m" d="M351.969,295.666a3.547,3.547,0,0,0,.824,3.68,16.407,16.407,0,0,0,12.222,2.91c6.124-.8,9.433-2.524,11.877-4.57s5.872-4.942,8.635-5.553a16.539,16.539,0,0,0,6.191-2.524c.824-.784.7-4.318.7-4.318Z" transform="translate(-325.929 1.455)"/><path class="n" d="M390.052,275.06a1,1,0,0,1,.93.824c.186.97.4,3.8.8,5.407a28.3,28.3,0,0,1,.6,8.569c-.332,1.807-4.517,3.069-7.2,4.092a33.719,33.719,0,0,0-8.662,5.474,24.591,24.591,0,0,1-12.913,4.809c-4.7,0-10.017-1.568-11.239-3.746-1.5-2.657-.319-4.278,6.643-7.519,1.329-.611,5.978-3.361,7.559-4.358,4.278-2.657,8.529-6.457,10.5-11.226a2.657,2.657,0,0,1,1.01-1.461,2.152,2.152,0,0,1,1.329-.12,11.5,11.5,0,0,1,3.374,1.01c.93.452,2.272.97,2.245,2.165a4.28,4.28,0,0,1-.266,1.222c-.08.252-.146.571.066.717s.478,0,.651-.186a17.168,17.168,0,0,0,1.886-2.259,7.385,7.385,0,0,1,1.1-1.129,12.454,12.454,0,0,0,1.209-.771C390.145,276.149,390.039,275.618,390.052,275.06Z" transform="translate(-326.003 -1.906)"/><path class="o" d="M385.606,295.171a43.7,43.7,0,0,1,3.813-2.843h0s-8.224,5.009-11.545,2.737a2.989,2.989,0,0,1-1.076-3.813c0-.558-5.221-2.989-7.307-3.242h0c-.571.319-1.063.585-1.328.717-6.988,3.242-8.17,4.809-6.643,7.519,1.222,2.179,5.062,3.893,11.16,3.893C376.6,300.126,382.683,297.535,385.606,295.171Z" transform="translate(-335.094 2.348)"/><path class="m" d="M355.471,293.845c-4.344,1.74-2.484,2.551-1.328,2.723s8.542-4.105,13.006-7.626,7.586-7.719,9.3-9.074c.651-.5,1.329-1.116,1.953-1.7-.106-.957-.2-1.82-.292-2.285a1,1,0,0,0-.93-.824c0,.558.093,1.089-.332,1.515a12.476,12.476,0,0,1-1.209.771,7.39,7.39,0,0,0-1.1,1.129,17.168,17.168,0,0,1-1.886,2.258C368.929,285.608,359.829,292.1,355.471,293.845Z" transform="translate(-313.197 -1.906)"/><path class="p" d="M378.519,291.723a.491.491,0,0,0,.266-.093.438.438,0,0,0,0-.611,10.389,10.389,0,0,0-7.971-3.135.425.425,0,0,0-.385.465.438.438,0,0,0,.478.385,9.539,9.539,0,0,1,7.214,2.83A.4.4,0,0,0,378.519,291.723Z" transform="translate(-337.202 2.302)"/><path class="p" d="M375.562,289.953a.425.425,0,0,0,.332-.7,10.362,10.362,0,0,0-7.971-3.135.428.428,0,1,0,.093.85,9.619,9.619,0,0,1,7.2,2.83A.425.425,0,0,0,375.562,289.953Z" transform="translate(-330.458 1.721)"/><path class="p" d="M372.709,288.3a.438.438,0,0,0,.332-.7,10.349,10.349,0,0,0-7.971-3.135.425.425,0,0,0-.385.465.438.438,0,0,0,.478.385,9.486,9.486,0,0,1,7.2,2.83.451.451,0,0,0,.345.159Z" transform="translate(-323.792 1.178)"/><path class="p" d="M370.149,286.4a.452.452,0,0,0,.279-.106.425.425,0,0,0,0-.6,10.3,10.3,0,0,0-7.971-3.135.412.412,0,0,0-.385.465.438.438,0,0,0,.478.385,9.552,9.552,0,0,1,7.2,2.83A.425.425,0,0,0,370.149,286.4Z" transform="translate(-317.738 0.554)"/><path class="p" d="M368.2,284.523a.491.491,0,0,0,.266-.093.438.438,0,0,0,.08-.611,10.628,10.628,0,0,0-8.7-3.175.425.425,0,0,0-.385.465.438.438,0,0,0,.478.385,9.831,9.831,0,0,1,7.971,2.856A.439.439,0,0,0,368.2,284.523Z" transform="translate(-312.345 -0.09)"/><path class="b" d="M363.807,150.52c2.657,5.606,10,14.8,12.368,21.1,4.849,12.887,2.524,22.213,1.129,39.165-1.5,18.161-2.936,32.522-2.936,32.522.279,3.228,4.756,9.525,5.314,23.794a287.948,287.948,0,0,1-.917,30.277s-10.07,5.58-17.523,0c0,0-7.187-34.3-9.3-51-1.833-14.614-3.986-26.318-3.986-26.318l-5.58,27.035s.412,7.32,1.01,13.538c.957,9.818-4.53,29.095-4.53,29.095s-10.416,3.109-16.766-2.524c0,0-2.471-28.138-2.205-42.1.292-15.942,3.056-69.083,5.022-91.814Z" transform="translate(-270.876 -42.82)"/><path class="g" d="M363.807,150.52c2.657,5.606,10,14.8,12.368,21.1,4.849,12.887,2.524,22.213,1.129,39.165-1.5,18.161-2.936,32.522-2.936,32.522.279,3.228,4.756,9.525,5.314,23.794a287.948,287.948,0,0,1-.917,30.277s-10.07,5.58-17.523,0c0,0-7.187-34.3-9.3-51-1.833-14.614-3.986-26.318-3.986-26.318l-5.58,27.035s.412,7.32,1.01,13.538c.957,9.818-4.53,29.095-4.53,29.095s-10.416,3.109-16.766-2.524c0,0-2.471-28.138-2.205-42.1.292-15.942,3.056-69.083,5.022-91.814Z" transform="translate(-270.876 -42.82)"/><path class="c" d="M361.665,211.812l-3.441-28.072a23.688,23.688,0,0,1-14.494-8.29s1.913,6.736,11.226,10.349l4.5,24.923-3.467,28.2Z" transform="translate(-284.491 -34.63)"/><path class="p" d="M322.94,303.582a.36.36,0,0,0,.159,0,13.8,13.8,0,0,1,8.981,0,.427.427,0,1,0,.306-.8,14.321,14.321,0,0,0-9.605,0,.438.438,0,0,0,.159.837Z" transform="translate(-227.312 6.93)"/><path class="p" d="M322.53,300.215h.146a17.018,17.018,0,0,1,10.07,0,.429.429,0,1,0,.279-.81,17.47,17.47,0,0,0-10.628,0,.438.438,0,0,0-.252.545A.425.425,0,0,0,322.53,300.215Z" transform="translate(-227.433 5.82)"/><path class="p" d="M332.828,297.076a.452.452,0,0,0,.4-.252.438.438,0,0,0-.213-.571,14.8,14.8,0,0,0-10.628-.066.452.452,0,0,0-.239.558.439.439,0,0,0,.571.239s5.314-2.073,9.924,0A.411.411,0,0,0,332.828,297.076Z" transform="translate(-227.383 4.721)"/><path class="p" d="M332.922,294.14a.425.425,0,0,0,.186-.81,13.285,13.285,0,0,0-10.814-.12.438.438,0,0,0-.2.571.425.425,0,0,0,.571.2,12.847,12.847,0,0,1,10.083.12.41.41,0,0,0,.173.04Z" transform="translate(-227.383 3.698)"/><path class="p" d="M332.943,290.786a.412.412,0,0,0,.385-.239.425.425,0,0,0-.186-.571c-5.141-2.537-10.628-.12-10.907,0a.438.438,0,0,0-.213.571.425.425,0,0,0,.571.213s5.407-2.351,10.163,0Z" transform="translate(-227.311 2.615)"/><path class="o" d="M348.633,117.555c1.5,0,3.029-.186,4.663-.292a23.169,23.169,0,0,0,21.6-23.1A24.71,24.71,0,0,0,342.442,70.7c-1.142.385-2.219,1.036-3.348,1.329s-2.046.319-3.042.624a15.026,15.026,0,0,0-9.393,8.675c-1.873,4.823-1.076,10.269.478,15.212a36.534,36.534,0,0,0,7.759,14.056,23.913,23.913,0,0,0,9.193,6.178A12.607,12.607,0,0,0,348.633,117.555Z" transform="translate(-273.597 -69.453)"/><path class="o" d="M321.428,105.043c.266,2.471.438,6.178,4.809,7.891,0,0-2.059,5.141,3.029,7.134,0,0-1.488,5.062,2.75,6.935a6.111,6.111,0,0,0,2.431,6.722s-2.657,4.942.571,7.8a6.642,6.642,0,0,0-1.661,3.786c-.146,2.205,1.328,5.115,3.454,5.58a2.737,2.737,0,0,1-.252-3.428c1.329-1.634,2.657-3.454.611-5.686,0,0,3.986-2.365.837-8.3,0,0,3.122-4.73-1.475-7.732,0,0,2.657-5.314-2.657-7.519,0,0,2.577-3.667-1.488-7.772a9.193,9.193,0,0,0-3.228-12.86Z" transform="translate(-232.417 -60.209)"/><path class="l" d="M417.652,116.468l-4.783,20.858s-15.4,19.782-19.782,23.3c-2.325,1.86-7.559,4.384-12.435-2.777-5.606-8.263-18.161-32.974-19.2-34.635s-1.78-3.029-2.79-4.517a41.848,41.848,0,0,1-2.949-4.916,17.975,17.975,0,0,1-2.086-8.17,11.027,11.027,0,0,1,3.042-7.732,15.689,15.689,0,0,0,2.484-2.458c.266-.4.452-.837.744-1.2a1.7,1.7,0,0,1,2.817.585,5.767,5.767,0,0,1,.4,1.7A31.034,31.034,0,0,0,367.1,108.2a1.62,1.62,0,0,0,.6.664c.638.319.877-.279.957-.757a10.244,10.244,0,0,1,.89-2.657,5.886,5.886,0,0,1,2.072-2.471,1.9,1.9,0,0,1,.877-.319c1.249,0,.731,1.329.651,2.059-.159,1.329-.292,2.657-.4,3.893a36.785,36.785,0,0,0-.186,8.795c.332,1.979,1.262,4.557,4.544,9.486,2.657,3.986,11.08,16.248,11.08,16.248s1.515-2.657,9.592-14.853,12.953-12.767,19.822-11.824" transform="translate(-353.63 -61.484)"/><path class="n" d="M326.51,150.191c-7.971-7.506-5.766-15.7-2.843-21.735,5.832-12.063,12.076-17.616,14.693-17.616h16.514c7.891.93,13.445,1.329,15.358,1.7,4.862,1.063,5.5,4.676,5.779,9.831.306,5.66-.159,7.015-1.475,16.381l-4.57,10.03c-1.979,4.358-1.661,8.715-.093,13.285a29.615,29.615,0,0,0,3.042,5.925,85.57,85.57,0,0,1,8.795,21.881,16.474,16.474,0,0,1-11.545-5.314s-6.271,9.446-21.814,10.23-23.223-13.033-23.223-13.033l3.335-17.935C327.8,160.593,326.988,154.588,326.51,150.191Z" transform="translate(-274.338 -55.856)"/><path class="h" d="M361.477,137.179a12.9,12.9,0,0,1-12.169,6.948,13.617,13.617,0,0,1-11.638-7.108s.452,9.486,11.664,9.379S361.477,137.179,361.477,137.179Z" transform="translate(-276.252 -47.255)"/><path class="l" d="M335.773,77c-2.737,1.528-6.244,8.237-6.257,22.492,0,12.076,3.826,15.158,5.779,16.062s5.739.478,9.446,0l-.173,7.254s-10.456,10.881-2.019,12.156c4.225.638,9.618-1.9,13.285-4.65a14.76,14.76,0,0,0,4.862-7.493l.306-15.77s2.112,2.165,5.872-.97c3.1-2.577,4.225-7.028,1.913-9.486a5.314,5.314,0,0,0-8.449,1.475s-2.165.133-4.225-3.986a26.438,26.438,0,0,1-11.425-2.126C335,87.628,334.71,80.082,335.773,77Z" transform="translate(-273.956 -66.973)"/><path class="m" d="M345.821,91.662a1.541,1.541,0,0,0,1.4,1.687,1.581,1.581,0,1,0-1.4-1.687Z" transform="translate(-274.571 -62.637)"/><path class="q" d="M353.878,99l-4.955,1.448a2.537,2.537,0,0,0,3.148,1.833A2.657,2.657,0,0,0,353.878,99Z" transform="translate(-283.704 -59.746)"/><path class="m" d="M356.348,88.211l3.122-1.993a1.793,1.793,0,0,0-2.537-.585,1.953,1.953,0,0,0-.584,2.577Z" transform="translate(-298.716 -64.235)"/><path class="m" d="M344.169,86.913l3.454,1.422a1.793,1.793,0,0,0-.943-2.431A1.979,1.979,0,0,0,344.169,86.913Z" transform="translate(-271.206 -64.092)"/><path class="m" d="M355.518,91.182a1.581,1.581,0,1,0,1.093-1.39A1.568,1.568,0,0,0,355.518,91.182Z" transform="translate(-297.156 -62.795)"/><path class="q" d="M357.624,90.3l-.452,9.127-4.783-1.594Z" transform="translate(-291.955 -62.604)"/><path class="q" d="M338.567,107.326c3.893-.412,11.957-2.511,13.285-5.646a8.051,8.051,0,0,1-2.9,3.986c-2.431,1.993-10.416,4.105-10.416,4.105Z" transform="translate(-267.782 -58.865)"/><path class="o" d="M341.182,93.742l-.146,6.35h0a4.318,4.318,0,0,1-4.225-4.424l.133-5.859Z" transform="translate(-254.814 -62.765)"/><g transform="translate(24.341 87.703)"><path class="m" d="M367.151,182.194v10.15a.784.784,0,0,1-.452.624L348.353,203.6a2.285,2.285,0,0,1-1.1.252V170.33l19.45,11.226a.784.784,0,0,1,.452.638Z" transform="translate(-318.995 -124.016)"/><path class="o" d="M383.088,203.781,362.682,192a.784.784,0,0,1-.452-.624V181.209a.784.784,0,0,1,.452-.624l18.347-10.628a2.365,2.365,0,0,1,2.192,0l.956.545v33.492A2.272,2.272,0,0,1,383.088,203.781Z" transform="translate(-355.922 -124.227)"/><path class="n" d="M370.575,193.621l18.347-10.628a.664.664,0,0,0,0-1.262l-20.472-11.744a2.365,2.365,0,0,0-2.192,0L347.91,180.615a.664.664,0,0,0,0,1.329l20.406,11.784a2.444,2.444,0,0,0,2.258-.106Z" transform="translate(-341.217 -124.217)"/><path class="b" d="M355.24,182.9c-.106-.159-.213-.332-.306-.5v-.133c-.066-.146-.133-.292-.186-.438s0-.093,0-.146-.106-.372-.146-.558h0a4.289,4.289,0,0,1,0-.571v-.173a2.036,2.036,0,0,1,0-.4,1.04,1.04,0,0,1,0-.213,2.031,2.031,0,0,1,.093-.385l.066-.186a2.654,2.654,0,0,1,.226-.531.713.713,0,0,1,.093-.173l.066-.385.159-.226.12-.159.186-.226.106-.106c2.431-2.8,6-3.733,9.991-3.733s7.573.943,10,3.733l.08.093.2.239a1.5,1.5,0,0,1,.133.173l.146.2a3.3,3.3,0,0,1,.239.412.7.7,0,0,1,.08.133,4.855,4.855,0,0,1,.239.545v.173a2.085,2.085,0,0,1,.106.412.785.785,0,0,1,0,.186,2.221,2.221,0,0,1,0,.425.553.553,0,0,1,0,.146,3.988,3.988,0,0,1-.186,1.169v.12c-.066.146-.12.306-.2.465v.12a5.63,5.63,0,0,1-.319.531h0c-.133.186-.292.372-.452.558h0c-.146.159-.319.319-.492.478l-.12.106-.518.412-.133.093-.744.478a17.736,17.736,0,0,1-16.022,0c-.266-.159-.5-.306-.731-.465l-.146-.12a5.05,5.05,0,0,1-.5-.385l-.133-.12c-.173-.159-.332-.306-.478-.465h0l-.452-.558Z" transform="translate(-338.543 -122.925)"/><g class="r" transform="translate(16.05 50.725)"><path d="M355.24,182.9c-.106-.159-.213-.332-.306-.5v-.133c-.066-.146-.133-.292-.186-.438s0-.093,0-.146-.106-.372-.146-.558h0a4.289,4.289,0,0,1,0-.571v-.173a2.036,2.036,0,0,1,0-.4,1.04,1.04,0,0,1,0-.213,2.031,2.031,0,0,1,.093-.385l.066-.186a2.654,2.654,0,0,1,.226-.531.713.713,0,0,1,.093-.173l.066-.385.159-.226.12-.159.186-.226.106-.106c2.431-2.8,6-3.733,9.991-3.733s7.573.943,10,3.733l.08.093.2.239a1.5,1.5,0,0,1,.133.173l.146.2a3.3,3.3,0,0,1,.239.412.7.7,0,0,1,.08.133,4.855,4.855,0,0,1,.239.545v.173a2.085,2.085,0,0,1,.106.412.785.785,0,0,1,0,.186,2.221,2.221,0,0,1,0,.425.553.553,0,0,1,0,.146,3.988,3.988,0,0,1-.186,1.169v.12c-.066.146-.12.306-.2.465v.12a5.63,5.63,0,0,1-.319.531h0c-.133.186-.292.372-.452.558h0c-.146.159-.319.319-.492.478l-.12.106-.518.412-.133.093-.744.478a17.736,17.736,0,0,1-16.022,0c-.266-.159-.5-.306-.731-.465l-.146-.12a5.05,5.05,0,0,1-.5-.385l-.133-.12c-.173-.159-.332-.306-.478-.465h0l-.452-.558Z" transform="translate(-354.592 -173.65)"/></g><path class="b" d="M363.956,175.85h.492a.93.93,0,0,1,.917.585,59.86,59.86,0,0,1,2.431,7.227.97.97,0,0,1-.784,1.236,17.7,17.7,0,0,1-6.111,0,.983.983,0,0,1-.784-1.235,64.9,64.9,0,0,1,2.431-7.227.93.93,0,0,1,.917-.585Z" transform="translate(-336.723 -122.202)"/><path class="b" d="M371.577,176.69a50.3,50.3,0,0,0-2.4,6.722,1,1,0,0,1-1.329.691,11.106,11.106,0,0,1-2.949-1.687,1.329,1.329,0,0,1-.173-1.634,20.074,20.074,0,0,1,5.314-4.969,1.7,1.7,0,0,1,1.408-.292C371.789,175.654,371.829,176.172,371.577,176.69Z" transform="translate(-346.523 -122.325)"/><path class="b" d="M371.917,175.707a23.648,23.648,0,0,0-5.314,4.663c-.385.452-.917.425-1.05-.159a2.657,2.657,0,0,1-.093-.824,2.856,2.856,0,0,1,.983-1.78,13.657,13.657,0,0,1,5.208-2.816c.571-.146,1.036-.08,1.076.08S372.409,175.388,371.917,175.707Z" transform="translate(-348.763 -122.577)"/><path class="b" d="M372.149,174.306c.106-.133-.12-.266-.545-.292a5.081,5.081,0,0,0-.771,0,8.7,8.7,0,0,0-3.826,1.634,8.383,8.383,0,0,0-1.5,1.395c-.332.425-.173.492.292.106a12.381,12.381,0,0,1,5.141-2.471A2.883,2.883,0,0,0,372.149,174.306Z" transform="translate(-348.039 -122.81)"/><path class="b" d="M356.208,176.69a52.224,52.224,0,0,1,2.418,6.722.983.983,0,0,0,1.329.691,11.054,11.054,0,0,0,2.936-1.687,1.329,1.329,0,0,0,.173-1.634,19.929,19.929,0,0,0-5.314-4.969,1.687,1.687,0,0,0-1.395-.292C356,175.654,355.956,176.172,356.208,176.69Z" transform="translate(-326.797 -122.325)"/><path class="b" d="M355.884,175.707a23.649,23.649,0,0,1,5.314,4.663c.385.452.93.425,1.063-.159a3.217,3.217,0,0,0,.08-.824,2.856,2.856,0,0,0-.983-1.78,13.656,13.656,0,0,0-5.208-2.816c-.571-.146-1.023-.08-1.076.08S355.393,175.388,355.884,175.707Z" transform="translate(-324.573 -122.577)"/><path class="b" d="M355.543,174.306c-.106-.133.12-.266.545-.292a5.082,5.082,0,0,1,.771,0,8.7,8.7,0,0,1,3.826,1.634,8.381,8.381,0,0,1,1.5,1.395c.332.425.173.492-.292.106a12.381,12.381,0,0,0-5.141-2.471,2.883,2.883,0,0,1-1.209-.372Z" transform="translate(-325.189 -122.81)"/><path class="b" d="M386.244,169.813h.093a2.179,2.179,0,0,0,2.046-2.152c.159-1.5-.2-5.553-7.028-10.96-5.806-4.583-10.628-8.875-10.92-14.84-.093-2.192.717-3.986,2.046-4.424s3.188.638,4.809,2.949a5.314,5.314,0,0,1,1.01,3.866l-.226-.093a.945.945,0,1,0-.824,1.7,1.9,1.9,0,0,0,2.445-.332c1.129-1.329.452-4.331-.864-6.217-3.069-4.384-5.885-3.986-6.961-3.653-2.152.744-3.454,3.215-3.308,6.3.319,6.762,5.447,11.346,11.625,16.221,4.969,3.986,6.536,7.373,6.324,9.3,0,.213-.08.465-.239.478a1.329,1.329,0,0,1-1.023-1.1.943.943,0,1,0-1.847.332A3.109,3.109,0,0,0,386.244,169.813Z" transform="translate(-368.55 -135.468)"/><g class="s" transform="translate(0)"><path d="M386.244,169.813h.093a2.179,2.179,0,0,0,2.046-2.152c.159-1.5-.2-5.553-7.028-10.96-5.806-4.583-10.628-8.875-10.92-14.84-.093-2.192.717-3.986,2.046-4.424s3.188.638,4.809,2.949a5.314,5.314,0,0,1,1.01,3.866l-.226-.093a.945.945,0,1,0-.824,1.7,1.9,1.9,0,0,0,2.445-.332c1.129-1.329.452-4.331-.864-6.217-3.069-4.384-5.885-3.986-6.961-3.653-2.152.744-3.454,3.215-3.308,6.3.319,6.762,5.447,11.346,11.625,16.221,4.969,3.986,6.536,7.373,6.324,9.3,0,.213-.08.465-.239.478a1.329,1.329,0,0,1-1.023-1.1.943.943,0,1,0-1.847.332A3.109,3.109,0,0,0,386.244,169.813Z" transform="translate(-368.55 -135.468)"/></g><path class="b" d="M389.1,144.73c0,10.243-3.534,15.477-7.626,21.681-4.849,7.347-11.306,12.462-11.6,17.63a.8.8,0,0,1-.492.691,2.657,2.657,0,0,1-2.4,0,.85.85,0,0,1-.491-.691h0c-.106-5.168-6.736-10.283-11.585-17.63-4.092-6.2-7.639-11.359-7.639-21.681Z" transform="translate(-340.952 -132.426)"/><path class="h" d="M367.467,144.876c0,10.137-3.56,15.371-7.626,21.535-4.849,7.347-11.306,12.462-11.6,17.629a.8.8,0,0,1-.492.691,2.008,2.008,0,0,1-.492.2,28.536,28.536,0,0,1,5.314-15.623,35.6,35.6,0,0,0,6.922-21.057s4.49-2.657,6.55-3.521h1.329S367.467,144.823,367.467,144.876Z" transform="translate(-319.323 -132.426)"/><path class="b" d="M382.958,156.26c-8.157,4.7-21.4,4.7-29.573,0s-8.17-12.369,0-17.085,21.4-4.716,29.573,0S391.129,151.543,382.958,156.26Z" transform="translate(-340.939 -135.413)"/><path class="t" d="M382.958,156.26c-8.157,4.7-21.4,4.7-29.573,0s-8.17-12.369,0-17.085,21.4-4.716,29.573,0S391.129,151.543,382.958,156.26Z" transform="translate(-340.939 -135.413)"/><path class="b" d="M379.138,154.073c-6.643,3.813-17.351,3.813-23.913,0s-6.643-10.017,0-13.843,17.351-3.826,23.913,0S385.781,150.247,379.138,154.073Z" transform="translate(-339.949 -134.847)"/><path class="c" d="M379.138,154.073c-6.643,3.813-17.351,3.813-23.913,0s-6.643-10.017,0-13.843,17.351-3.826,23.913,0S385.781,150.247,379.138,154.073Z" transform="translate(-339.949 -134.847)"/><path class="c" d="M350.23,138a19.847,19.847,0,0,1,5.115,2.019c6.643,3.826,6.643,10.017,0,13.843a20.313,20.313,0,0,1-3.986,1.7C356.129,147.526,353.392,139.661,350.23,138Z" transform="translate(-316.129 -134.637)"/><path class="b" d="M347.441,175a1.515,1.515,0,0,0,1.475-1.249.943.943,0,0,0-1.687-.757,3.985,3.985,0,0,1-1.408-2.657,1.953,1.953,0,0,1,.531-1.793c.452-.359,1.7-.784,4.889.372,4.291,1.554,8.051,2.657,10.456,1.129a5.314,5.314,0,0,0,2.059-4.49,16.049,16.049,0,0,0-5.195-11.691A5.062,5.062,0,0,0,354,152.652a2.856,2.856,0,0,0-1.886,2.471,4.955,4.955,0,0,0,2.019,4.836.957.957,0,0,0,1.328-.252.97.97,0,0,0-.266-1.329,3.056,3.056,0,0,1-1.209-2.976c.08-.5.292-.877.531-.957a3.242,3.242,0,0,1,2.87.864,14.335,14.335,0,0,1,4.5,10.137,3.64,3.64,0,0,1-1.222,3.016c-1.674,1.1-5.314,0-8.782-1.329-3.069-1.116-5.314-1.156-6.643-.093A3.72,3.72,0,0,0,344,170.507c.2,2.126,1.873,4.318,3.388,4.424Z" transform="translate(-311.214 -129.865)"/><g class="e" transform="translate(32.73 22.659)"><path d="M347.441,175a1.515,1.515,0,0,0,1.475-1.249.943.943,0,0,0-1.687-.757,3.985,3.985,0,0,1-1.408-2.657,1.953,1.953,0,0,1,.531-1.793c.452-.359,1.7-.784,4.889.372,4.291,1.554,8.051,2.657,10.456,1.129a5.314,5.314,0,0,0,2.059-4.49,16.049,16.049,0,0,0-5.195-11.691A5.062,5.062,0,0,0,354,152.652a2.856,2.856,0,0,0-1.886,2.471,4.955,4.955,0,0,0,2.019,4.836.957.957,0,0,0,1.328-.252.97.97,0,0,0-.266-1.329,3.056,3.056,0,0,1-1.209-2.976c.08-.5.292-.877.531-.957a3.215,3.215,0,0,1,2.87.877,14.282,14.282,0,0,1,4.5,10.123,3.64,3.64,0,0,1-1.222,3.016c-1.674,1.1-5.314,0-8.782-1.329-3.069-1.116-5.314-1.156-6.643-.093A3.72,3.72,0,0,0,344,170.507c.2,2.126,1.873,4.318,3.388,4.424Z" transform="translate(-343.944 -152.524)"/></g></g><path class="l" d="M335.559,112c8.343,0,11.12,3.135,13.857,9.9,2.657,6.5,11.319,30.556,13.1,36.641s.412,7.586-3.786,9.911c-2.843,1.568-6.961,3.348-10.535,4.889-1.435.624-9.924,3.986-12.834,5.195a47.746,47.746,0,0,0-7.227,4.145c-2.657,1.634-4.955,4.118-7.971,4.849a7.786,7.786,0,0,1-3.428-.213,10.362,10.362,0,0,1-5.221-2.4c-1.581-1.488-1.74-4.265-1.993-6.337a8.556,8.556,0,0,1,.412-4.6,10,10,0,0,1,1.966-2.657c.239-.266.531-.717.877-.624,0,0,.412.611.545.85s.531.957.784,1.488.292.771.664.917a.983.983,0,0,0,1.222-.531,1.405,1.405,0,0,0-.252-1.328,9.839,9.839,0,0,0-.585-1.116c-.186-.279-.837-1.328-.837-1.328a2.882,2.882,0,0,1,.864-.213,18.029,18.029,0,0,1,5.806.744,7.133,7.133,0,0,0,2.086.385,7.968,7.968,0,0,0,1.329-.372,18.942,18.942,0,0,0,3.454-1.488c4.092-2.112,17.072-10.628,17.072-10.628l-11.106-24.817S329.966,115.893,335.559,112Z" transform="translate(-240.463 -55.475)"/></g></g><g transform="translate(183.163 321.663)"><path class="b" d="M356.719,454.662V373.875L245.92,309.92v80.787Z" transform="translate(-236.036 -243.65)"/><path class="u" d="M356.719,454.662V373.875L245.92,309.92v80.787Z" transform="translate(-236.036 -243.65)"/><path class="b" d="M266.1,322.59v80.774L184.49,450.5V369.713Z" transform="translate(-63.807 -239.488)"/><path class="j" d="M266.1,322.59v80.774L184.49,450.5V369.713Z" transform="translate(-63.807 -239.488)"/><path class="h" d="M184.49,321.887V309.93l110.8,63.955L376.9,326.762v11.957l-78.5,45.329a6.444,6.444,0,0,1-3.109.744,6.364,6.364,0,0,1-3.109-.744Z" transform="translate(-174.606 -243.647)"/><path class="b" d="M177.09,312.85a2.165,2.165,0,0,1,1.328-1.793l87.018-50.271a6.842,6.842,0,0,1,6.217,0l116.246,67.1a2.166,2.166,0,0,1,1.328,1.794V343.14a2.205,2.205,0,0,1-1.328,1.794l-87.058,50.258a6.842,6.842,0,0,1-6.217,0L178.379,328.1a2.165,2.165,0,0,1-1.329-1.793Z" transform="translate(-177.05 -260.038)"/><path class="h" d="M274.434,326.609v13.458a2.205,2.205,0,0,1-1.329,1.794l-87.058,50.258a6.3,6.3,0,0,1-3.109.744L177.08,269.39l96.026,55.426A2.166,2.166,0,0,1,274.434,326.609Z" transform="translate(-62.296 -256.965)"/><path class="v" d="M363.494,395.191,247.249,328.1a2.165,2.165,0,0,1-1.329-1.794V312.85a2.165,2.165,0,0,1,1.329-1.793l87.058-50.271a6.842,6.842,0,0,1,6.218,0l20.22,11.678L366.6,395.935A6.216,6.216,0,0,1,363.494,395.191Z" transform="translate(-245.92 -260.038)"/><path class="b" d="M178.368,311.056l87.058-50.271a6.842,6.842,0,0,1,6.217,0l116.246,67.1c1.714.983,1.714,2.591,0,3.587l-87.058,50.258a6.842,6.842,0,0,1-6.217,0l-116.246-67.09C176.654,313.647,176.654,312.039,178.368,311.056Z" transform="translate(-177.039 -260.038)"/><ellipse class="k" cx="49.58" cy="28.616" rx="49.58" ry="28.616" transform="translate(61.232 35.886)"/></g><g transform="translate(205.285)"><g transform="translate(0)"><path class="w" d="M248.412,95.9c.465-7.971.624-11.864,1.076-15.251a35.938,35.938,0,0,1,1.594-7.2,7.134,7.134,0,0,1,.664-1.647,5.7,5.7,0,0,1,.957-.917,5.779,5.779,0,0,1,2.949-1.329,13.219,13.219,0,0,1,7.48,1.647,5.54,5.54,0,0,1,2.219,2.657,3.986,3.986,0,0,1,.173,2.1,3.122,3.122,0,0,1-1.023,1.621,6.5,6.5,0,0,0-1.86,3.388,14.28,14.28,0,0,1,3.042-2.537,2.79,2.79,0,0,1,3.746.545c.319.5-1.01,1.222-2.312,3.281-1.687,2.657-1.833,4.663-4.331,6.988a4.862,4.862,0,0,0-1.581,3.016c-.7,7.041,2.418,21.15,3.614,27.434,1.807,9.459,18.148,30.277,24.378,33.439,5.075,8.2-6.31,19.928-13.91,19.861-5.221-11.372-16.912-23.608-24.644-41.184a28.152,28.152,0,0,1-2.245-9.937,198.669,198.669,0,0,1,.013-25.973Z" transform="translate(-194.636 -0.964)"/><path class="x" d="M267.9,71.222a1.328,1.328,0,0,0-1.049.571c-.279.5-.093.943-.12,1.461s-.319,1.2-.385,1.78c-.173,1.329-.319,3.4.81,4.318.345.279.8.4,1.142.664s.638.757,1.01,1.089a3.985,3.985,0,0,0,1.979.771c.638.12,1.329.213,1.94.359s1.05.412,1.607.531a6.058,6.058,0,0,0,3.627-.306,5,5,0,0,0,2.883-5.141c-.093-.757-.359-1.488-.492-2.245a8.907,8.907,0,0,0-.159-1.886c-.332-.864-1.687-1.143-2.471-1.329a28.082,28.082,0,0,0-4.464-.558c-1.329-.08-2.657-.106-3.986-.106A13.058,13.058,0,0,0,267.9,71.222Z" transform="translate(-209.788 -0.421)"/><path class="m" d="M323.832,95.647,314.16,104.4a.97.97,0,0,1-1,.106l-26-8.3a2.91,2.91,0,0,1-1.2-.81L317.853,66.38l6.231,28.284a.983.983,0,0,1-.253.983Z" transform="translate(-278.77 -1.996)"/><path class="o" d="M297.178,97.079l-6.457-29.613a.983.983,0,0,1,.213-.983l9.672-8.795a.97.97,0,0,1,1-.106l25.986,8.3a3.109,3.109,0,0,1,1.9,2.086l.292,1.329L297.9,98.315a2.817,2.817,0,0,1-.717-1.236Z" transform="translate(-290.67 -4.916)"/><path class="n" d="M294.389,90.374l26,8.3c.85.279,1.395-.213,1.2-1.089l-6.443-29.639a3.109,3.109,0,0,0-1.9-2.086l-25.986-8.3c-.864-.279-1.395.213-1.209,1.089L292.5,88.288a3.1,3.1,0,0,0,1.886,2.086Z" transform="translate(-276.323 -4.919)"/><path class="b" d="M290.634,68.013a6.649,6.649,0,0,1,.213-.731.765.765,0,0,0,0-.186c.08-.186.173-.372.266-.558a1.106,1.106,0,0,1,.093-.173,3.789,3.789,0,0,1,.412-.611h0a3.266,3.266,0,0,1,.5-.545l.159-.146c.133-.12.279-.213.412-.319l.226-.146.452-.239.226-.106a4.159,4.159,0,0,1,.717-.252l.305.027.545-.106h1.182c4.769-.106,8.755,2.484,12.209,6.3s5.673,7.971,5.1,12.754a.757.757,0,0,1,0,.173v.385a2.114,2.114,0,0,1-.066.279,2.061,2.061,0,0,1-.066.306,3.752,3.752,0,0,1-.173.585,1.1,1.1,0,0,1,0,.2,5.47,5.47,0,0,1-.319.691l-.12.2a5.319,5.319,0,0,1-.306.452l-.146.186c-.12.146-.252.279-.385.412l-.133.12a4.57,4.57,0,0,1-1.329.824h-.146l-.624.226h-.159a7.44,7.44,0,0,1-.784.159h0a7.135,7.135,0,0,1-.93,0H307.9a6.8,6.8,0,0,1-.89,0H306.8a4.959,4.959,0,0,1-.837-.133h-.2c-.359-.08-.717-.173-1.089-.292a22.837,22.837,0,0,1-13.883-15.278c-.08-.385-.146-.744-.186-1.1a1.476,1.476,0,0,1,0-.239v-1.9a.227.227,0,0,1,0-.093,5.076,5.076,0,0,1,.133-.917A.344.344,0,0,1,290.634,68.013Z" transform="translate(-274.548 -2.805)"/><g class="r" transform="translate(16.055 61.113)"><path d="M290.634,68.013a6.649,6.649,0,0,1,.213-.731.765.765,0,0,0,0-.186c.08-.186.173-.372.266-.558a1.106,1.106,0,0,1,.093-.173,3.789,3.789,0,0,1,.412-.611h0a3.266,3.266,0,0,1,.5-.545l.159-.146c.133-.12.279-.213.412-.319l.226-.146.452-.239.226-.106a4.159,4.159,0,0,1,.717-.252l.305.027.545-.106h1.182c4.769-.106,8.755,2.484,12.209,6.3s5.673,7.971,5.1,12.754a.757.757,0,0,1,0,.173v.385a2.114,2.114,0,0,1-.066.279,2.061,2.061,0,0,1-.066.306,3.752,3.752,0,0,1-.173.585,1.1,1.1,0,0,1,0,.2,5.47,5.47,0,0,1-.319.691l-.12.2a5.319,5.319,0,0,1-.306.452l-.146.186c-.12.146-.252.279-.385.412l-.133.12a4.57,4.57,0,0,1-1.329.824h-.146l-.624.226h-.159a7.44,7.44,0,0,1-.784.159h0a7.135,7.135,0,0,1-.93,0H307.9a6.8,6.8,0,0,1-.89,0H306.8a4.959,4.959,0,0,1-.837-.133h-.2c-.359-.08-.717-.173-1.089-.292a22.837,22.837,0,0,1-13.883-15.278c-.08-.385-.146-.744-.186-1.1a1.476,1.476,0,0,1,0-.239v-1.9a.227.227,0,0,1,0-.093,5.076,5.076,0,0,1,.133-.917A.344.344,0,0,1,290.634,68.013Z" transform="translate(-290.603 -63.918)"/></g><path class="b" d="M307.419,70.694l.438.452a1.169,1.169,0,0,1,.252,1.329,80.257,80.257,0,0,1-4.783,8.582,1.328,1.328,0,0,1-1.86.332,20.418,20.418,0,0,1-2.9-2.657,19.925,19.925,0,0,1-2.4-3.149,1.328,1.328,0,0,1,.5-1.82,80.909,80.909,0,0,1,8.994-3.986,1.2,1.2,0,0,1,1.329.372A6.234,6.234,0,0,0,307.419,70.694Z" transform="translate(-276.174 -0.902)"/><path class="b" d="M308.955,70.125a63.134,63.134,0,0,0-8.5,3.521,1.329,1.329,0,0,1-1.794-.638,14.84,14.84,0,0,1-.943-4.278,1.647,1.647,0,0,1,1.408-1.581,26.3,26.3,0,0,1,9.379.8,2.245,2.245,0,0,1,1.5,1.089C310.125,69.421,309.646,69.886,308.955,70.125Z" transform="translate(-280.275 -1.782)"/><path class="b" d="M307.761,68.088a30.8,30.8,0,0,0-9.074-1.063c-.757,0-1.2-.5-.757-1.129a3.587,3.587,0,0,1,.7-.81,3.706,3.706,0,0,1,2.551-.6,17.6,17.6,0,0,1,7.187,2.524c.638.412.97.917.863,1.089S308.491,68.274,307.761,68.088Z" transform="translate(-279.558 -2.628)"/><path class="b" d="M305.865,67.79c.213,0,.159-.359-.186-.784a6.641,6.641,0,0,0-.678-.717,11.319,11.319,0,0,0-4.876-2.232,11.957,11.957,0,0,0-2.657-.226c-.691.066-.611.266.146.372a15.942,15.942,0,0,1,6.815,2.777A3.986,3.986,0,0,0,305.865,67.79Z" transform="translate(-275.284 -2.834)"/><path class="b" d="M298.3,72.723A63.543,63.543,0,0,1,294,80.84a1.328,1.328,0,0,0,.465,1.847,14.015,14.015,0,0,0,4.158,1.329,1.634,1.634,0,0,0,1.714-1.249,25.946,25.946,0,0,0,.093-9.406,2.206,2.206,0,0,0-.943-1.594C299.113,71.621,298.608,72.086,298.3,72.723Z" transform="translate(-265.862 -0.235)"/><path class="b" d="M291.393,73.368a30.183,30.183,0,0,1,.186,9.127c-.106.744.4,1.236,1.063.864a4.9,4.9,0,0,0,.877-.624,3.826,3.826,0,0,0,.837-2.484,17.83,17.83,0,0,0-1.833-7.4c-.359-.678-.824-1.05-1.01-.957S291.273,72.664,291.393,73.368Z" transform="translate(-256.123 -0.189)"/><path class="b" d="M290.548,71.305c0-.2.372-.106.757.279a5.312,5.312,0,0,1,.664.744,11.239,11.239,0,0,1,1.754,5.062,10.841,10.841,0,0,1,0,2.657c-.12.691-.319.585-.359-.173a15.81,15.81,0,0,0-2.112-7.041,3.877,3.877,0,0,1-.7-1.528Z" transform="translate(-254.534 -0.411)"/><path class="b" d="M272.522,61.869l.08.08a2.8,2.8,0,0,0,3.826.08c1.554-1.129,5.115-5,4.344-16.181-.651-9.512-.757-17.815,4.69-23.249,1.993-2.006,4.411-2.763,5.978-1.9s2.165,3.587,1.329,7.147a6.723,6.723,0,0,1-2.8,4.3,1.592,1.592,0,0,1-.106-.292,1.211,1.211,0,0,0-2.325.678,2.418,2.418,0,0,0,2.418,2.046c2.245-.066,4.53-3.321,5.181-6.2,1.528-6.736-1.329-9.1-2.551-9.8-2.564-1.408-6.045-.5-8.861,2.312-6.164,6.151-6.085,15.026-5.394,25.122.558,8.157-1.329,12.621-3.361,14.069-.213.173-.518.332-.664.186a1.661,1.661,0,0,1,.173-1.926,1.213,1.213,0,1,0-1.926-1.475,3.986,3.986,0,0,0-.027,5.009Z" transform="translate(-231.193 -17.917)"/><g class="s" transform="translate(40.457)"><path d="M272.522,61.869l.08.08a2.8,2.8,0,0,0,3.826.08c1.554-1.129,5.115-5,4.344-16.181-.651-9.512-.757-17.815,4.69-23.249,1.993-2.006,4.411-2.763,5.978-1.9s2.165,3.587,1.329,7.147a6.723,6.723,0,0,1-2.8,4.3,1.592,1.592,0,0,1-.106-.292,1.211,1.211,0,0,0-2.325.678,2.418,2.418,0,0,0,2.418,2.046c2.245-.066,4.53-3.321,5.181-6.2,1.528-6.736-1.329-9.1-2.551-9.8-2.564-1.408-6.045-.5-8.861,2.312-6.164,6.151-6.085,15.026-5.394,25.122.558,8.157-1.329,12.621-3.361,14.069-.213.173-.518.332-.664.186a1.661,1.661,0,0,1,.173-1.926,1.213,1.213,0,1,0-1.926-1.475,3.986,3.986,0,0,0-.027,5.009Z" transform="translate(-271.65 -17.917)"/></g><path class="b" d="M310.642,68.336c-9.751,8.875-17.815,10.044-27.275,11.518-11.2,1.754-21.668,0-26.836,4.238a1.1,1.1,0,0,1-1.089.133,3.441,3.441,0,0,1-2.086-2.3,1.063,1.063,0,0,1,.226-1.063h0c4.836-4.6,3.986-15.344,6.762-26.318,2.365-9.3,4.211-17.125,14.056-26.066Z" transform="translate(-221.886 -14.447)"/><path class="h" d="M309,59.723c-9.685,8.755-17.723,9.924-27.128,11.385-11.2,1.754-21.668,0-26.836,4.238a1.1,1.1,0,0,1-1.089.133,2.469,2.469,0,0,1-.624-.306,36.72,36.72,0,0,1,19.542-8.423A45.781,45.781,0,0,0,298.915,55.1s6.43,1.966,9.034,3.188l1.169,1.329Z" transform="translate(-220.388 -5.701)"/><path class="b" d="M276.913,70.54c-11.558-3.693-23.037-16.314-25.614-28.178s4.69-18.493,16.261-14.8,23.05,16.314,25.627,28.178S288.484,74.234,276.913,70.54Z" transform="translate(-201.601 -15.084)"/><path class="t" d="M276.913,70.54c-11.558-3.693-23.037-16.314-25.614-28.178s4.69-18.493,16.261-14.8,23.05,16.314,25.627,28.178S288.484,74.234,276.913,70.54Z" transform="translate(-201.601 -15.084)"/><path class="b" d="M275.025,65.4c-9.379-2.989-18.679-13.285-20.765-22.837s3.8-14.986,13.179-11.957S286.1,43.893,288.2,53.445,284.431,68.4,275.025,65.4Z" transform="translate(-200.59 -14.024)"/><path class="c" d="M275.025,65.4c-9.379-2.989-18.679-13.285-20.765-22.837s3.8-14.986,13.179-11.957S286.1,43.893,288.2,53.445,284.431,68.4,275.025,65.4Z" transform="translate(-200.59 -14.024)"/><path class="c" d="M269.531,42.58a25.921,25.921,0,0,1,2.5,6.643c2.1,9.605-3.813,14.986-13.179,11.957a25.151,25.151,0,0,1-5.048-2.3C265.546,56.423,270.634,47.031,269.531,42.58Z" transform="translate(-184.361 -9.814)"/><path class="b" d="M262.976,74.672a1.94,1.94,0,0,0,2.471.306,1.2,1.2,0,0,0,.465-1.647,1.222,1.222,0,0,0-1.209-.611,5.141,5.141,0,0,1,1.249-3.587,2.657,2.657,0,0,1,2.179-1.063c.744.133,2.232.957,3.893,4.982,2.232,5.447,4.371,10.044,7.971,10.947,1.887.478,3.986-.173,6.058-1.926A20.605,20.605,0,0,0,292.7,66.993a6.47,6.47,0,0,0-2.79-5.314,3.653,3.653,0,0,0-3.986.332,6.4,6.4,0,0,0-2.856,6.124,1.209,1.209,0,1,0,2.391-.359,3.985,3.985,0,0,1,1.794-3.733c.545-.359,1.1-.492,1.329-.319a4.119,4.119,0,0,1,1.661,3.481A18.44,18.44,0,0,1,284.5,80.265c-1.528,1.262-2.816,1.74-3.986,1.448-2.511-.624-4.5-5.048-6.337-9.512-1.594-3.893-3.507-6.071-5.7-6.443a4.809,4.809,0,0,0-4.318,1.807c-1.847,2.046-2.484,5.54-1.329,7.068a.36.36,0,0,1,.146.04Z" transform="translate(-215.829 -3.685)"/><g class="e" transform="translate(46.421 57.554)"><path d="M262.976,74.672a1.94,1.94,0,0,0,2.471.306,1.2,1.2,0,0,0,.465-1.647,1.222,1.222,0,0,0-1.209-.611,5.141,5.141,0,0,1,1.249-3.587,2.657,2.657,0,0,1,2.179-1.063c.744.133,2.232.957,3.893,4.982,2.232,5.447,4.371,10.044,7.971,10.947,1.887.478,3.986-.173,6.058-1.926A20.605,20.605,0,0,0,292.7,66.993a6.47,6.47,0,0,0-2.79-5.314,3.653,3.653,0,0,0-3.986.332,6.4,6.4,0,0,0-2.856,6.124,1.209,1.209,0,1,0,2.391-.359,3.985,3.985,0,0,1,1.794-3.733c.545-.359,1.1-.492,1.329-.319a4.119,4.119,0,0,1,1.661,3.481A18.44,18.44,0,0,1,284.5,80.265c-1.528,1.262-2.816,1.74-3.986,1.448-2.5-.624-4.5-5.048-6.337-9.512-1.594-3.893-3.507-6.071-5.7-6.443a4.809,4.809,0,0,0-4.318,1.807c-1.847,2.046-2.484,5.54-1.329,7.068Z" transform="translate(-262.25 -61.239)"/></g><path class="m" d="M231.231,105.8c2.258,4.862,3.122,10.243,4.358,15.424a18.241,18.241,0,0,0,8.091,11.957c2.511,1.634,5.314,2.843,7.825,4.424a15.132,15.132,0,0,1,6.151,6.377,7.387,7.387,0,0,1-4.676,10.349,11.956,11.956,0,0,1,1.793,9.738,14.149,14.149,0,0,1-9.419,9.951,26.039,26.039,0,0,1-11.718.611A37.982,37.982,0,0,1,201.5,140.778a37.371,37.371,0,0,1,.133-9.3c.465-3.188.266-6.39.757-9.619a37.769,37.769,0,0,1,5.434-15.331,26.8,26.8,0,0,1,8.423-8.117c5.673-3.56,11.824,1.329,14.4,6.231C230.859,105.028,231.045,105.413,231.231,105.8Z" transform="translate(-100.519 8.127)"/><path class="w" d="M250.4,180.06c-3.4,14.919-4.477,19.024-7.161,27.9a413.426,413.426,0,0,0-9.565,46.073c-.571,3.919,2.657,13.591,4.105,17.271,8.383,21.509,22.239,55.8,22.239,55.8a18.479,18.479,0,0,1,1.182,9.18,48.718,48.718,0,0,1-3.986,13.418,36.176,36.176,0,0,1-2.179,4.371c-1.913,4.251.784,5,5.1,3.082,4.544-2.006,7.426-6.829,8.675-10.309,1.847-5.208,5.394-13.391,5.314-16.035h0l-.08-.292h0l-.664-5.221s-3.441-16.128-6.085-34.621c-2.351-16.447-3.76-21.867-11.253-33.731L286.007,193.8Z" transform="translate(-171.092 35.351)"/><path class="o" d="M269.827,296.511a5.672,5.672,0,0,1,.983,3.1c-.757,3.839-4.916,6.523-6.576,8.928s-3.4,7.679-4.49,10.814a10.944,10.944,0,0,1-.93,1.953,17.9,17.9,0,0,1-.93,1.634,10.628,10.628,0,0,1-3.8,2.564,18.414,18.414,0,0,1-9.007,1.541,10.628,10.628,0,0,1-6.443-2.312,2.763,2.763,0,0,1-1.089-2.577c.279-1.036,1.422-1.541,2.431-1.873,2.139-.7,4.3-1.329,6.4-2.126a19.527,19.527,0,0,0,4.876-2.657,27.567,27.567,0,0,0,3.68-3.786c2.391-2.657,4.809-5.38,7.254-7.971C262.666,303.18,269.216,295.846,269.827,296.511Z" transform="translate(-161.089 73.593)"/><path class="n" d="M267.887,292.786c1.329,1.953,4.3,4.982,2.9,8.383-1.222,2.963-4.265,5.779-6.284,8.117a15.159,15.159,0,0,0-2.179,4.251c-1.1,2.458-1.767,5.088-2.883,7.533-1.329,3.029-4.849,4.836-7.971,5.54a22.067,22.067,0,0,1-9.5-.226,5.314,5.314,0,0,1-3.268-1.621,3.746,3.746,0,0,1-.412-3.494,8.09,8.09,0,0,1,2.112-2.976c1.395-1.329,2.989-2.471,4.411-3.786,2.657-2.418,3.56-5.473,4.6-8.781.731-2.325,1.807-5.673,1.461-7.227a8.236,8.236,0,0,1-.345-2.351,1.475,1.475,0,0,1,.9-1.076,7.573,7.573,0,0,1,3.786-.306c1.116,0,2.205.372,3.308.478a5.567,5.567,0,0,0,5.806-5.567l-.292-1.089C265.163,287.738,266.452,290.581,267.887,292.786Z" transform="translate(-162.112 70.954)"/><path class="n" d="M237.445,227.119s9.937-40.148,13.033-48.119l36.68,14.122L256.6,257.37c2.5,2.418,8.21,13.046,9.565,23.674s5.434,35.87,5.434,35.87a12.355,12.355,0,0,1-6.722,5.314c-5.035,1.913-7.24,0-7.24,0S241.7,284.059,237.71,274.149s-6-13.219-4.769-21.947S235.306,238.465,237.445,227.119Z" transform="translate(-170.875 35.002)"/><path class="o" d="M258.308,207.027A21.655,21.655,0,0,1,247.68,193.21a23.913,23.913,0,0,0,12.249,9.725l3.986,27.527-10.562,22.173,7.971-22.053Z" transform="translate(-167.692 39.671)"/><path class="o" d="M187.7,200.518a7.493,7.493,0,0,1,3.388-3.281,8.383,8.383,0,0,1,8.476,2.657c2.657,3.135,3.162,7.533,4.823,9.937s6.111,5.659,8.662,7.772a15.65,15.65,0,0,1,4.623,12.448,6.643,6.643,0,0,1-3.986,5.885Z" transform="translate(-41.817 40.905)"/><path class="n" d="M194.25,198.773c2.112-1,5.952-.4,8.649,2.112,2.338,2.179,3.986,6,5.407,8.715a15.106,15.106,0,0,0,3.215,3.534c1.329,1.329,4.862,3.986,6.125,5.394a15.664,15.664,0,0,1,2.418,3.986,14.948,14.948,0,0,1,1.329,4.889c.173,2.657-.531,6.523-2.5,8.29a4.8,4.8,0,0,1-7.453-.837c-.624-.9-1.249-1.78-1.82-2.723a28.77,28.77,0,0,0-3.866-4.862,33.291,33.291,0,0,0-6.324-4.849c-.252-.146-.5-.319-.757-.438-2.8-1.329-5.673-2.484-6.071-3.494s-1.076-9.844-3.295-11.744c-.585-.492-.279-1.329.252-2.126S192.178,199.783,194.25,198.773Z" transform="translate(-47.225 41.348)"/><path class="w" d="M252.386,176.32c4.065,12.183,5.314,19.038,5.075,33.452-.173,9.459-1.621,31.738-2.484,42.579s-.957,18.918-5.075,22.346-12.98,2.365-16.168-4.769-5.62-15.73-7.759-28.922a101.353,101.353,0,0,1-1.488-21.575l-1.329-35.644Z" transform="translate(-128.69 34.122)"/><path class="w" d="M205.206,267.835c4.756.372,7.865-1.328,14.919-12.355s21.788-40.387,21.788-40.387,2.046-5.606-1.847-9.539c-4.384-4.424-7.227-2.046-7.227-2.046s-3.746,4.716-7.971,9.3c-3.853,4.225-8.768,8.317-12.116,12.289C210.427,227.873,205.206,267.835,205.206,267.835Z" transform="translate(-89.799 42.844)"/><path class="n" d="M261.121,228.65s2.165-17.4,1.475-29.546a70.051,70.051,0,0,0-5.713-22.784l-46.113,9.167c.385,14.986,14.614,23,14.614,23l5.46,37.106c4.676,22.944,7.028,30.264,16.421,31.884s14.733-9.977,18.6-15.849,12.581-24.471,12.581-24.471a14.282,14.282,0,0,0-4.756-9.127,16.407,16.407,0,0,0-7.971-3.786Z" transform="translate(-133.186 34.122)"/><path class="o" d="M224.187,216.42s-1.461,26.77-2.657,36.229a92.639,92.639,0,0,0,4.265-19.768,157.217,157.217,0,0,0,1.422-19.33Z" transform="translate(-96.252 46.353)"/><path class="b" d="M227.752,181.987c-.186-3.162,0-8.423,0-9.99-7.891-7.546-5.553-15.663-2.577-21.628,5.938-11.957,11.625-18.6,16.872-18.387l14.348,1.236c7.838,1.023,13.179,1.979,15.079,2.418,4.809,1.1,4.637,4.61,4.849,9.738a54.563,54.563,0,0,1-.7,15.863l-6.775,14.2-1.328,7.214c1.475,3.2,7.971,12.913,9.021,27.633,0,0-11.16,3.813-28.47,3.986-18.134.159-25.707-7.745-25.707-7.745Z" transform="translate(-146.74 19.554)"/><path class="h" d="M258.021,159.208a12.834,12.834,0,0,1-12.183,6.762,13.524,13.524,0,0,1-11.478-7.2s.345,9.433,11.478,9.459S258.021,159.208,258.021,159.208Z" transform="translate(-144.102 28.356)"/><path class="m" d="M224.137,107.441c-2.033-4.916-3.162-14.507,2.657-17.111,2.258-1.01,4.862-.345,7.254.226a81.759,81.759,0,0,0,10.123,1.714c10.628,1.1,17.7,2.79,21.509,14,2.418,7.108,6.124,16.912,1.926,23.13-4.411,6.536-11.864,10.176-22.412,9.193,0,.691-5.819-.531-6.39-.7-2.963-.837-5.659-4.331-7.387-6.736a41.92,41.92,0,0,1-2.352-3.733c-.611-1.076-1-2.205-1.528-3.281a32.432,32.432,0,0,0-2.551-3.361,17.189,17.189,0,0,1-2.046-3.8c-.97-2.657-1.236-7.2,1.435-9.061A3.985,3.985,0,0,1,224.137,107.441Z" transform="translate(-139.512 5.7)"/><path class="w" d="M233.458,98.51c-2.816,1.329-6.749,7.745-7.745,21.881-.837,11.957,2.763,15.291,4.623,16.314s5.673.864,9.379.6l-.678,7.174s-11.106,10.07-2.83,11.957c4.145.917,9.658-1.236,13.485-3.707a14.733,14.733,0,0,0,5.314-7.108l1.329-15.6s1.953,2.285,5.9-.558c3.242-2.351,4.663-6.643,2.551-9.3a5.314,5.314,0,0,0-8.489.877s-2.152,0-3.919-4.2a16.314,16.314,0,0,1-10.044-3.255A22.479,22.479,0,0,1,233.458,98.51Z" transform="translate(-140.211 8.56)"/><path class="m" d="M241.619,113.582a1.515,1.515,0,1,0,.909-1.3,1.514,1.514,0,0,0-.909,1.3Z" transform="translate(-140.321 13.044)"/><path class="y" d="M251.189,120l-6.643,1.461a3.361,3.361,0,0,0,3.986,2.657A3.587,3.587,0,0,0,251.189,120Z" transform="translate(-150.861 15.62)"/><path class="x" d="M246.2,123.85a3.228,3.228,0,0,1-1.594,0,3.255,3.255,0,0,1,3.228-2.87,2.908,2.908,0,0,1,1.022.186,3.507,3.507,0,0,1-2.656,2.684Z" transform="translate(-148.56 15.942)"/><path class="m" d="M251.53,109.455l3.242-1.82a1.793,1.793,0,0,0-2.484-.757A1.966,1.966,0,0,0,251.53,109.455Z" transform="translate(-163.385 11.232)"/><path class="m" d="M239.242,109.662l3.321,1.647a1.794,1.794,0,0,0-.771-2.471,1.94,1.94,0,0,0-2.551.824Z" transform="translate(-135.354 11.889)"/><path class="m" d="M251.177,112.421a1.514,1.514,0,1,0,1.714-1.329,1.541,1.541,0,0,0-1.714,1.329Z" transform="translate(-162.607 12.69)"/><path class="x" d="M253.663,111.95l-1.089,9.021-4.623-1.913Z" transform="translate(-157.799 12.975)"/><path class="x" d="M235.282,128.87c3.879-.146,11.957-1.674,13.524-4.69a8.17,8.17,0,0,1-3.149,3.746c-2.551,1.807-10.628,3.348-10.628,3.348Z" transform="translate(-135.778 16.993)"/><path class="m" d="M237.163,116.508l-.585,6.284h0a4.291,4.291,0,0,1-3.879-4.676l.545-5.806Z" transform="translate(-121.012 13.093)"/><path class="w" d="M235.209,139.536c-10.814,22.027-18.892,28.191-26.265,42.008-12.262.571-13.179-18.413-7.546-26.225,0,0,17.908-17.656,20.924-26.81,2.777-8.436,6.8-23.156,6.643-30.224a4.942,4.942,0,0,0-1.329-3.135c-2.325-2.5-2.338-4.5-3.826-7.267-1.169-2.152-2.431-2.963-2.072-3.441a2.777,2.777,0,0,1,3.773-.279,14.615,14.615,0,0,1,2.856,2.737,32.03,32.03,0,0,0-2.219-9.526c-2.577-5.819-1.953-8.782,5.9-6.643,4.929,1.329,9.207,5.141,9.951,16.965a124.176,124.176,0,0,1-.08,15.039c-.85,9.1-1.98,17.43-3.1,24.963a49.329,49.329,0,0,1-3.614,11.837Z" transform="translate(-80.066 -0.794)"/><path class="w" d="M267.9,73.066a3.042,3.042,0,0,1,0,.492c-.066.784-.332,1.488-1.2,1.674l-.332-.638a5.9,5.9,0,0,0-.651,2.258,3.175,3.175,0,0,0,.7,2.192,9.462,9.462,0,0,0,1.568,1.209c.5.385.957.877,1.5,1.222a2.391,2.391,0,0,0,.943.4,5.262,5.262,0,0,0,1.023,0c.731,0,1.435.691,2.126.93a4.7,4.7,0,0,0,4.57-1.063,8.2,8.2,0,0,0,2.351-4.238,4.277,4.277,0,0,0,.2-1.913c-.146-.731-.252-1.488-.452-2.219a4.663,4.663,0,0,0-1.328-2.4,6.138,6.138,0,0,0-2.073-1.01,24.02,24.02,0,0,0-4.69-1.329,9.22,9.22,0,0,0-2.9,0,6.5,6.5,0,0,0-1.395.425c-.146,0-.97.478-.864.717a9.578,9.578,0,0,1,.89,3.295Z" transform="translate(-208.478 -1.295)"/></g></g><g transform="translate(308.337 424.221)"><path class="b" d="M268.811,491.685V444.563l-110.32-63.7v47.123Z" transform="translate(-157.148 -322.903)"/><path class="i" d="M268.811,491.685V444.563l-110.32-63.7v47.123Z" transform="translate(-157.148 -322.903)"/><path class="b" d="M177.232,395.87v47.123L101.44,486.754V439.632Z" transform="translate(10.222 -317.972)"/><path class="z" d="M177.232,395.87v47.123L101.44,486.754V439.632Z" transform="translate(10.222 -317.972)"/><path class="j" d="M101.48,392.827V380.87l110.267,63.7,75.792-43.762v11.957l-72.683,41.955a6.868,6.868,0,0,1-6.217,0Z" transform="translate(-100.138 -322.9)"/><path class="b" d="M94.053,386.676a2.179,2.179,0,0,1,1.328-1.794l81.239-46.91a6.921,6.921,0,0,1,6.217,0L290.01,399.881a2.192,2.192,0,0,1,1.328,1.794v13.458a2.192,2.192,0,0,1-1.329,1.793l-81.239,46.9a6.843,6.843,0,0,1-6.217,0l-107.225-61.9A2.179,2.179,0,0,1,94,400.134Z" transform="translate(-94 -337.235)"/><path class="c" d="M267.08,463.823l-107.212-61.9a2.165,2.165,0,0,1-1.329-1.793V386.676a2.166,2.166,0,0,1,1.329-1.794l81.226-46.91a6.921,6.921,0,0,1,6.217,0l17.5,10.1,5.314,116.5A6.258,6.258,0,0,1,267.08,463.823Z" transform="translate(-158.527 -337.235)"/><path class="i" d="M184.99,399v13.458a2.192,2.192,0,0,1-1.329,1.794l-81.239,46.9a6.258,6.258,0,0,1-3.109.744L94,345.39,183.662,397.2A2.192,2.192,0,0,1,184.99,399Z" transform="translate(12.348 -334.556)"/><path class="b" d="M95.328,384.882l81.226-46.91a6.921,6.921,0,0,1,6.217,0L290,399.881c1.714.983,1.714,2.591,0,3.587l-81.239,46.9a6.842,6.842,0,0,1-6.217,0l-107.212-61.9C93.6,387.473,93.6,385.866,95.328,384.882Z" transform="translate(-93.986 -337.235)"/><path class="aa" d="M95.328,384.882l81.226-46.91a6.921,6.921,0,0,1,6.217,0L290,399.881c1.714.983,1.714,2.591,0,3.587l-81.239,46.9a6.842,6.842,0,0,1-6.217,0l-107.212-61.9C93.6,387.473,93.6,385.866,95.328,384.882Z" transform="translate(-93.986 -337.235)"/><ellipse class="k" cx="52.795" cy="30.476" rx="52.795" ry="30.476" transform="translate(57.538 28.583)"/></g><g transform="translate(375.895 129.999)"><g transform="translate(0)"><path class="y" d="M159.334,190.127c7.48,16.447,18.294,28.364,24.538,42.725,12.2,1.541,16.593-13.657,11.6-21.894,0,0-20.127-21.442-22.4-30.808-2.112-8.622-4.942-23.621-4.172-30.649a4.9,4.9,0,0,1,1.608-3.016c2.524-2.312,2.657-4.3,4.384-6.948,1.329-2.046,2.657-2.75,2.352-3.268a2.8,2.8,0,0,0-3.746-.571,14.612,14.612,0,0,0-3.069,2.511,31.885,31.885,0,0,1,2.976-9.3c3.029-5.593,2.657-8.6-5.314-7.161-5.009.9-9.579,4.4-11.253,16.128a122.474,122.474,0,0,0-1.129,14.986c.133,9.14.585,17.536,1.1,25.136A42.951,42.951,0,0,0,159.334,190.127Z" transform="translate(-149.692 -113.922)"/><path class="b" d="M191.905,194.524s-7.745-7.36-11.664-11.439S169.174,169.8,169.174,169.8s-13.02,1.953-14.149,16.952c0,0,6.3,8.263,12.608,18.2,5.46,8.582,5.314,15.052,5.314,15.052S193.832,211.383,191.905,194.524Z" transform="translate(-143.324 -98.019)"/><path class="i" d="M191.905,194.524s-7.745-7.36-11.664-11.439S169.174,169.8,169.174,169.8s-13.02,1.953-14.149,16.952c0,0,6.3,8.263,12.608,18.2,5.46,8.582,5.314,15.052,5.314,15.052S193.832,211.383,191.905,194.524Z" transform="translate(-143.324 -98.019)"/><path class="m" d="M165.195,379.77c.531,2.524.345,3.188-1.329,4.65s-5.128,3.893-5.925,6.829-1.661,7.705-6.536,10.854a26.145,26.145,0,0,1-16.527,3.919c-4.982-.691-6.2-2.245-6.4-3.693a8.9,8.9,0,0,1,2.963-7.134C134.187,392.67,165.195,379.77,165.195,379.77Z" transform="translate(-81.461 -29.039)"/><path class="y" d="M143.932,382.858h-11.9L130.58,361.19l13.352.438Z" transform="translate(-62.749 -35.143)"/><path class="y" d="M172.169,372.081l-12.382-2.511-1.727-23.342,14.109-.478Z" transform="translate(-127.494 -40.215)"/><path class="o" d="M185.418,235.11c2.378,27.9,0,96.118,0,96.118.252,3.016,3.534,15.3,2.949,26.876-.8,15.716-3.454,54.31-3.454,54.31s-7,3.149-13.617.279c0,0-7.705-57.791-9.592-73.361-1.647-13.591-4.783-52.556-4.783-52.556l-5.713,42.008a64.751,64.751,0,0,1,1.329,17.417c-.492,7.2-4.052,49.687-4.052,49.687a18.506,18.506,0,0,1-13.83,1.1s-6.8-61.75-6.922-68.366c-.146-7.533,2.657-77.612,2.657-77.612Z" transform="translate(-103.464 -76.563)"/><path class="o" d="M150.629,371.756a2.258,2.258,0,0,0-1.993.465,3,3,0,0,0-.6,1.329,35.578,35.578,0,0,1-8.25,14.534c-3.547,3.786-9.8,9.3-11.106,13.285s5.314,6.3,12.169,5.407c4.105-.545,11.492-4.3,13.285-7.081s2.657-6.855,4.052-8.888,6.244-5.952,7.015-8.3c.438-1.329-.08-4.118-.678-6.51-.239-.957-.6-4.145-1.82-4.424.239,0-.12,1.727-.173,1.9a3.641,3.641,0,0,1-.651,1.328,4.225,4.225,0,0,1-3.746,1.647c-1.329-.279-2.219-1.554-3.215-2.511a7.971,7.971,0,0,0-3.986-2.072Z" transform="translate(-81.443 -31.733)"/><path class="m" d="M203.134,373.67c.093,1.953,0,2.365-.983,3s-6.736,1.329-9.5,1.249a23.3,23.3,0,0,0-10.827,2.923,22.372,22.372,0,0,1-14.614,3.295c-6.5-.89-8.582-1.847-9.791-3.215s-1.687-5.314.97-6.058S203.134,373.67,203.134,373.67Z" transform="translate(-156.347 -31.043)"/><path class="o" d="M187.451,360.7l-.359-.159a2.3,2.3,0,0,0-1.5-.213c-.678.213-1.023.917-1.329,1.541a17.933,17.933,0,0,1-3.826,5.035,25.24,25.24,0,0,1-5.394,3.281c-4.637,2.418-13.657,6.138-17.736,8.051-2.551,1.2-2.431,4.4.213,6.231s8.994,3.135,16.633,1.328c4.158-.97,9.3-3.986,13.006-4.756,3.361-.731,12.581-1.089,15.119-2.909a12.236,12.236,0,0,0,.8-9.021c-.784-3.64-1.754-9.3-2.909-9.074.133,0-.159,1.408-.2,1.528a6.975,6.975,0,0,1-2.219,3.122,4.185,4.185,0,0,1-3.653.784,9.671,9.671,0,0,1-3.388-2.657,11.958,11.958,0,0,0-3.255-2.112Z" transform="translate(-155.463 -35.526)"/><path class="m" d="M180.718,366.372c-3.388,2.763-9.592,7.187-13.524,7.891s-4.544-.837-4.544-.837h0c2.657-1.182,5.208-2.351,7.054-3.308a25.241,25.241,0,0,0,5.394-3.281,17.935,17.935,0,0,0,3.826-5.035c.332-.624.678-1.328,1.328-1.541a2.3,2.3,0,0,1,1.5.213l.359.159a11.956,11.956,0,0,1,3.228,2.152,9.671,9.671,0,0,0,3.388,2.657C186.138,364.592,184.119,363.609,180.718,366.372Z" transform="translate(-150.152 -35.463)"/><path class="m" d="M165.855,270.19a44.518,44.518,0,0,1-14.375-9.3s1.329,6.443,11.425,11.744l-1.687,43.841,5.234-38.168Z" transform="translate(-113.036 -68.094)"/><path class="n" d="M186.7,216.47c-3.8,11-7.36,30.29-7.36,30.29l1.727,31.579c-15.437,7.227-41.981,6.789-57.5-5.713,0,0,.266-49.82,4.823-65.616,3.242-11.266,10.695-18.878,18.692-18.6,8.436.266,19.277,1.461,19.277,1.461l16.274,2.777S190.5,205.47,186.7,216.47Z" transform="translate(-97.241 -91.907)"/><path class="b" d="M110.178,177.84c1.063-.531,7.626,4.5,10.628,8.675s3.162,10,2.205,11.2-12.767-4.185-12.767-4.185Z" transform="translate(-15.245 -95.39)"/><path class="ab" d="M110.178,177.84c1.063-.531,7.626,4.5,10.628,8.675s3.162,10,2.205,11.2-12.767-4.185-12.767-4.185Z" transform="translate(-15.245 -95.39)"/><path class="y" d="M135.156,195.119c-10.827,22.04-18.892,28.191-26.265,41.968-7.652-.6-11.4-16.367-8.077-24.644,0,0,18.427-19.25,21.456-28.391,2.777-8.436,6.8-23.156,6.643-30.224a4.836,4.836,0,0,0-1.329-3.135c-2.312-2.5-2.325-4.5-3.813-7.267-1.169-2.152-2.444-2.963-2.073-3.441a2.777,2.777,0,0,1,3.773-.279,14.175,14.175,0,0,1,2.856,2.737,31.178,31.178,0,0,0-.97-5.859c-.385-1.475-1.182-2.843-.97-4.358a5.726,5.726,0,0,1,1.754-3.826,5.062,5.062,0,0,1,3.627-.784,10.336,10.336,0,0,1,7.971,5.314,29.015,29.015,0,0,1,2.165,10.23,124.044,124.044,0,0,1,0,15.039c-.85,9.1-1.979,17.43-3.1,24.963a49.939,49.939,0,0,1-3.653,11.957Z" transform="translate(-19.79 -111.899)"/><path class="b" d="M112,196.044,126.51,177.83s.266,15.942,12.78,19.861l-18.6,23.595c-2.152,3.6-8.064-1.076-9.393-9.18C109.412,200.813,112,196.044,112,196.044Z" transform="translate(-31.576 -95.381)"/><path class="i" d="M112,196.044,126.51,177.83s.266,15.942,12.78,19.861l-18.6,23.595c-2.152,3.6-8.064-1.076-9.393-9.18C109.412,200.813,112,196.044,112,196.044Z" transform="translate(-31.576 -95.381)"/><path class="m" d="M171.911,162.458A13.79,13.79,0,1,1,158.786,148a13.79,13.79,0,0,1,13.126,14.454Z" transform="translate(-109.035 -105.184)"/><path class="m" d="M140.206,158.159a4.344,4.344,0,0,0-1.793-1.634c-.89-.425-2.126-1.329-2.79-.213-.412.691-.2,1.86-.306,2.657-.372,2.657-.731,5.314-1.1,7.971a9.832,9.832,0,0,0-.359,2.551l-2.657-2.365-.571,22.014a2.856,2.856,0,0,0,2.484-1.993c1.01-2.431,1.528-5.009,2.272-7.227s2.006-5.314,2.87-7.679c1.329-3.534,3.029-6.111,2.936-9.871a9.3,9.3,0,0,0-.6-3.321A5.023,5.023,0,0,0,140.206,158.159Z" transform="translate(-60.072 -102.626)"/><path class="y" d="M163.148,175.4c.917.6,2.351-1.143,3.587-2.312s5.1-2.657,6.815,1.435-2.192,9.167-5.168,10.19c-3.786,1.329-4.756-1.329-4.756-1.329l-1,21.655h0c-6.8,7.971-25.986,4.583-18.161-3.667l.279-6.988a32.3,32.3,0,0,1-6.975,0c-3.773-.771-6.018-3.879-6.975-7.971-1.541-6.643-1.993-12.063.186-24.976,2.391-14.149,18.958-13.524,27.633-7.466S163.148,175.4,163.148,175.4Z" transform="translate(-91.344 -104.554)"/><path class="m" d="M140.441,160.862a22.585,22.585,0,0,0,8.383,2.657,19.715,19.715,0,0,0,13.033-3.056,6.815,6.815,0,0,0,7.533,6.244,17.935,17.935,0,0,0-.2,10.628,2.909,2.909,0,0,0,.585,1.222c1.329,1.395,3.175-2.165,4.105-2.936.624-.531.651-1.807.717-2.551a38.911,38.911,0,0,0,.066-4.49c-.146-4.73,1.661-9.7-.425-14.242-1.767-3.866-5.885-6.2-10.044-7.121s-8.449-.651-12.7-.8-8.675-.757-12.2-3.149c-.731-.492-1.594-1.089-2.431-.771a2.3,2.3,0,0,0-1.169,1.833,9.911,9.911,0,0,0,1.767,7.732,2.086,2.086,0,0,0-3,.319,3.215,3.215,0,0,0-.2,3.242,7.706,7.706,0,0,0,2.179,2.591,25.372,25.372,0,0,0,4,2.644Z" transform="translate(-98.503 -107.016)"/><path class="ac" d="M140.013,185.125s7.612-.93,10.628-2.365a12.634,12.634,0,0,0,4.8-4.61,9.871,9.871,0,0,1-2.112,5.035c-2.3,2.657-13.445,4.2-13.445,4.2Z" transform="translate(-86.609 -95.276)"/><path class="m" d="M146.61,167.417a1.7,1.7,0,1,0,1.78-1.687,1.727,1.727,0,0,0-1.78,1.687Z" transform="translate(-90.124 -99.356)"/><path class="m" d="M144.7,162.45l3.534,2.179a2.166,2.166,0,0,0-.7-2.936,2.033,2.033,0,0,0-2.83.757Z" transform="translate(-86.116 -100.778)"/><path class="ac" d="M155.459,174.51l-6.31,1.98a3.242,3.242,0,0,0,4.105,2.245A3.454,3.454,0,0,0,155.459,174.51Z" transform="translate(-99.079 -96.471)"/><path class="m" d="M158.166,163.476l3.428-2.391a2.006,2.006,0,0,0-2.856-.585A2.205,2.205,0,0,0,158.166,163.476Z" transform="translate(-116.6 -101.194)"/><path class="m" d="M157.243,166.525a1.7,1.7,0,1,0,.875-1.545,1.7,1.7,0,0,0-.875,1.545Z" transform="translate(-114.866 -99.672)"/><path class="ac" d="M159.517,165.18l-1.036,10.19L153.22,173.3Z" transform="translate(-108.412 -99.537)"/><path class="m" d="M141.368,390.614c-4.211,3.627-7.426,1.98-7.347.744a7.756,7.756,0,0,1,.571-1.74c.558-.571,1.089-1.116,1.554-1.621a35.458,35.458,0,0,0,8.263-14.468,3,3,0,0,1,.6-1.329,2.259,2.259,0,0,1,1.993-.465h.226a7.971,7.971,0,0,1,3.986,2.073c1,.957,1.86,2.232,3.215,2.511C151.8,376.253,145.58,386.974,141.368,390.614Z" transform="translate(-77.815 -31.7)"/><g transform="translate(95.232)"><path class="m" d="M88.07,157.073l4.225,10.482a.85.85,0,0,1-.2.837L77.654,186.924a2.417,2.417,0,0,1-1.023.717L62.682,153.18l24.657,3.428a.863.863,0,0,1,.731.465Z" transform="translate(-16.177 -103.479)"/><path class="o" d="M105.359,187.837l-25.866-3.6a.85.85,0,0,1-.731-.465l-4.225-10.429a.85.85,0,0,1,.2-.837l14.441-18.6a2.657,2.657,0,0,1,2.245-.9l1.222.173,13.949,34.409a2.391,2.391,0,0,1-1.236.252Z" transform="translate(-46.14 -103.541)"/><path class="n" d="M94.753,176.494l14.441-18.533a.76.76,0,0,0-.518-1.329l-25.88-3.6a2.657,2.657,0,0,0-2.245.9l-14.441,18.6c-.478.611-.239,1.2.531,1.329l25.866,3.6a2.657,2.657,0,0,0,2.245-.97Z" transform="translate(-37.514 -103.531)"/><path class="b" d="M75.331,171.171a5.311,5.311,0,0,1-.518-.4l-.133-.106a5.308,5.308,0,0,1-.385-.385l-.106-.12a6.274,6.274,0,0,1-.372-.518h0c-.106-.186-.2-.372-.292-.571V168.9a1.612,1.612,0,0,0-.146-.425v-.226a1.01,1.01,0,0,0-.066-.438c-.066-.146,0-.146,0-.226v-.638a1.17,1.17,0,0,0,0-.213l.08-.478.08-.292a1.247,1.247,0,0,1,0-.213.383.383,0,0,1,.093-.306c.093-.093,0-.12,0-.173,1.329-3.879,4.61-6.324,8.715-7.971s8.17-2.192,11.824-.332l.133.066.306.159.2.12.239.146.425.319.133.106a5.117,5.117,0,0,1,.465.465l.12.146c.106.133.186.252.279.385l.106.173c.08.146.146.279.213.425a.81.81,0,0,1,.066.159,4.464,4.464,0,0,1,.292,1.329v.133a3.9,3.9,0,0,1,0,.558.652.652,0,0,0,0,.159,6.033,6.033,0,0,1-.12.678h0a4.277,4.277,0,0,1-.239.77h0c-.093.239-.186.465-.306.7l-.08.159c-.12.213-.239.425-.372.638a.544.544,0,0,1-.093.146,9.665,9.665,0,0,1-.558.8,19.662,19.662,0,0,1-16.474,6.643,4.384,4.384,0,0,1-.943-.173h-.2l-.678-.186-.186-.066c-.239-.093-.465-.173-.678-.279h-.08a5.784,5.784,0,0,1-.691-.385Z" transform="translate(-35.017 -102.618)"/><g class="r" transform="translate(38.265 53.182)"><path d="M75.331,171.171a5.311,5.311,0,0,1-.518-.4l-.133-.106a5.308,5.308,0,0,1-.385-.385l-.106-.12a6.274,6.274,0,0,1-.372-.518h0c-.106-.186-.2-.372-.292-.571V168.9a1.612,1.612,0,0,0-.146-.425v-.226a1.01,1.01,0,0,0-.066-.438c-.066-.146,0-.146,0-.226v-.638a1.17,1.17,0,0,0,0-.213l.08-.478.08-.292a1.247,1.247,0,0,1,0-.213.383.383,0,0,1,.093-.306c.093-.093,0-.12,0-.173,1.329-3.879,4.61-6.324,8.715-7.971s8.17-2.192,11.824-.332l.133.066.306.159.2.12.239.146.425.319.133.106a5.117,5.117,0,0,1,.465.465l.12.146c.106.133.186.252.279.385l.106.173c.08.146.146.279.213.425a.81.81,0,0,1,.066.159,4.464,4.464,0,0,1,.292,1.329v.133a3.9,3.9,0,0,1,0,.558.652.652,0,0,0,0,.159,6.033,6.033,0,0,1-.12.678h0a4.277,4.277,0,0,1-.239.77h0c-.093.239-.186.465-.306.7l-.08.159c-.12.213-.239.425-.372.638a.544.544,0,0,1-.093.146,9.665,9.665,0,0,1-.558.8,19.662,19.662,0,0,1-16.474,6.643,4.384,4.384,0,0,1-.943-.173h-.2l-.678-.186-.186-.066c-.239-.093-.465-.173-.678-.279h-.08a5.784,5.784,0,0,1-.691-.385Z" transform="translate(-73.282 -155.8)"/></g><path class="b" d="M79.133,159.253l.5-.226a1.01,1.01,0,0,1,1.182.2,70.949,70.949,0,0,1,5.5,6.443,1.089,1.089,0,0,1-.279,1.608,17.684,17.684,0,0,1-3.029,1.541,17.4,17.4,0,0,1-3.255,1.01,1.076,1.076,0,0,1-1.329-.957,68.415,68.415,0,0,1-.518-8.436,1.023,1.023,0,0,1,.7-.983Z" transform="translate(-30.635 -101.594)"/><path class="b" d="M90.112,160.677a54.124,54.124,0,0,0,.319,7.971,1.1,1.1,0,0,1-1.05,1.249,11.956,11.956,0,0,1-3.733-.5,1.408,1.408,0,0,1-.864-1.607,22.412,22.412,0,0,1,3.428-7.333,1.966,1.966,0,0,1,1.329-.89C89.952,159.521,90.2,160.026,90.112,160.677Z" transform="translate(-43.607 -101.383)"/><path class="b" d="M91.677,160.358a25.772,25.772,0,0,0-3.547,7c-.213.624-.771.824-1.156.292a3.985,3.985,0,0,1-.438-.824A3.268,3.268,0,0,1,86.8,164.6a15.278,15.278,0,0,1,4.185-5.062c.531-.4,1.036-.5,1.143-.359S92.049,159.813,91.677,160.358Z" transform="translate(-47.577 -101.53)"/><path class="b" d="M92.328,158.517c0-.173-.239-.226-.691,0a4.758,4.758,0,0,0-.784.332,9.711,9.711,0,0,0-3.255,3.268,9.578,9.578,0,0,0-.957,2.059c-.159.585,0,.571.332,0a13.8,13.8,0,0,1,4.265-4.676C91.77,159.062,92.289,158.7,92.328,158.517Z" transform="translate(-47.923 -101.775)"/><path class="b" d="M75.051,159.389a55.28,55.28,0,0,1,5.314,5.9,1.089,1.089,0,0,0,1.621.173A12.422,12.422,0,0,0,84.31,162.5a1.408,1.408,0,0,0-.5-1.754,22.107,22.107,0,0,0-7.573-2.87,1.926,1.926,0,0,0-1.568.279C74.4,158.459,74.506,158.991,75.051,159.389Z" transform="translate(-24.015 -101.956)"/><path class="b" d="M75.286,157.775a26.252,26.252,0,0,1,7.426,2.564c.585.306,1.129,0,1.023-.6a3.481,3.481,0,0,0-.252-.89,3.228,3.228,0,0,0-1.754-1.422,15.185,15.185,0,0,0-6.523-.717c-.651.08-1.089.345-1.076.531S74.622,157.642,75.286,157.775Z" transform="translate(-22.803 -102.348)"/><path class="b" d="M75.567,156.8c-.146-.093,0-.332.452-.531a4.807,4.807,0,0,1,.784-.319,9.831,9.831,0,0,1,4.623.093,9.658,9.658,0,0,1,2.126.81c.518.306.372.425-.252.226a13.763,13.763,0,0,0-6.324-.385A3.561,3.561,0,0,1,75.567,156.8Z" transform="translate(-24.758 -102.646)"/><path class="b" d="M126.494,154.693h.08a2.431,2.431,0,0,0,1.209-3.069c-.452-1.594-2.524-5.62-11.784-8.33-7.878-2.3-14.614-4.69-17.4-10.708-1.01-2.205-.917-4.384.252-5.394s3.547-.678,6.178,1.036a5.806,5.806,0,0,1,2.657,3.534.745.745,0,0,1-.266,0,1.05,1.05,0,0,0-1.116.97,1.036,1.036,0,0,0,.97,1.1,2.086,2.086,0,0,0,2.378-1.329c.611-1.833-1.329-4.65-3.467-6.031-4.982-3.242-7.732-1.674-8.675-.864-1.913,1.661-2.219,4.743-.784,7.852,3.149,6.815,10.323,9.393,18.706,11.837,6.749,1.966,9.778,4.849,10.362,6.9,0,.226.106.518,0,.6a1.435,1.435,0,0,1-1.5-.717,1.05,1.05,0,0,0-1.767,1.129A3.481,3.481,0,0,0,126.494,154.693Z" transform="translate(-95.826 -112.897)"/><g class="s" transform="translate(0 11.616)"><path d="M126.494,154.693h.08a2.431,2.431,0,0,0,1.209-3.069c-.452-1.594-2.524-5.62-11.784-8.33-7.878-2.3-14.614-4.69-17.4-10.708-1.01-2.205-.917-4.384.252-5.394s3.547-.678,6.178,1.036a5.806,5.806,0,0,1,2.657,3.534.745.745,0,0,1-.266,0,1.05,1.05,0,0,0-1.116.97,1.036,1.036,0,0,0,.97,1.1,2.086,2.086,0,0,0,2.378-1.329c.611-1.833-1.329-4.65-3.467-6.031-4.982-3.242-7.732-1.674-8.675-.864-1.913,1.661-2.219,4.743-.784,7.852,3.149,6.815,10.323,9.393,18.706,11.837,6.749,1.966,9.778,4.849,10.362,6.9,0,.226.106.518,0,.6a1.435,1.435,0,0,1-1.5-.717,1.05,1.05,0,0,0-1.767,1.129A3.481,3.481,0,0,0,126.494,154.693Z" transform="translate(-95.826 -124.513)"/></g><path class="b" d="M121.16,120.63c4.265,10.522,2.816,17.39,1.182,25.468-1.913,9.552-6.43,17.51-4.557,22.944a.917.917,0,0,1-.226.917,2.936,2.936,0,0,1-2.471,1,.943.943,0,0,1-.8-.5h0c-2.272-5.314-11.213-7.759-19.25-13.285-6.789-4.676-12.581-8.5-16.872-19.117Z" transform="translate(-68.385 -114.172)"/><path class="h" d="M84.894,120.776c4.2,10.442,2.75,17.271,1.129,25.322-1.913,9.552-6.43,17.51-4.557,22.944a.917.917,0,0,1-.226.917,2.432,2.432,0,0,1-.425.4,31.632,31.632,0,0,1-.983-18.28,39.59,39.59,0,0,0-1.661-24.538,76,76,0,0,1,5.314-6.337l1.329-.571Z" transform="translate(-32.065 -114.172)"/><path class="b" d="M120.675,133.546c-6.43,8.25-20.034,13.764-30.4,12.329s-13.538-9.3-7.121-17.55,20.047-13.763,30.4-12.329S127.105,125.3,120.675,133.546Z" transform="translate(-70.637 -115.769)"/><path class="t" d="M120.675,133.546c-6.43,8.25-20.034,13.764-30.4,12.329s-13.538-9.3-7.121-17.55,20.047-13.763,30.4-12.329S127.105,125.3,120.675,133.546Z" transform="translate(-70.637 -115.769)"/><path class="b" d="M116.071,132.342c-5.208,6.643-16.235,11.146-24.631,9.977s-10.974-7.533-5.766-14.215,16.235-11.16,24.631-9.977S121.252,125.66,116.071,132.342Z" transform="translate(-69.566 -115.057)"/><path class="c" d="M116.071,132.342c-5.208,6.643-16.235,11.146-24.631,9.977s-10.974-7.533-5.766-14.215,16.235-11.16,24.631-9.977S121.252,125.66,116.071,132.342Z" transform="translate(-69.566 -115.057)"/><path class="c" d="M82.981,118.162a22.359,22.359,0,0,1,6.1,0c8.516,1.182,11.04,7.493,5.859,14.175a21.259,21.259,0,0,1-3.361,3.388C93.078,125.5,86.967,118.547,82.981,118.162Z" transform="translate(-48.433 -115.052)"/><path class="b" d="M75.153,156.341a1.674,1.674,0,0,0,1-1.9,1.05,1.05,0,0,0-2.046-.08,4.384,4.384,0,0,1-2.537-2.073,2.259,2.259,0,0,1-.213-2.072c.332-.558,1.435-1.528,5.181-1.661,5.075-.186,9.419-.545,11.226-3.188a5.952,5.952,0,0,0,.252-5.474,17.776,17.776,0,0,0-10.216-9.8,5.58,5.58,0,0,0-5.181.651,3.162,3.162,0,0,0-.917,3.321,5.513,5.513,0,0,0,4.105,4.132,1.05,1.05,0,0,0,.412-2.046,3.4,3.4,0,0,1-2.484-2.551,1.514,1.514,0,0,1,.159-1.209,3.587,3.587,0,0,1,3.308-.306,15.942,15.942,0,0,1,8.861,8.489,3.985,3.985,0,0,1,0,3.614c-1.249,1.833-5.42,2.139-9.565,2.285-3.627.133-5.952,1.036-6.908,2.657a4.092,4.092,0,0,0,.159,4.079c1.089,2.112,3.733,3.667,5.314,3.135Z" transform="translate(-20.956 -111.183)"/><g class="e" transform="translate(48.162 18.545)"><path d="M75.153,156.341a1.674,1.674,0,0,0,1-1.9,1.05,1.05,0,0,0-2.046-.08,4.384,4.384,0,0,1-2.537-2.073,2.259,2.259,0,0,1-.213-2.072c.332-.558,1.435-1.528,5.181-1.661,5.075-.186,9.419-.545,11.226-3.188a5.952,5.952,0,0,0,.252-5.474,17.776,17.776,0,0,0-10.216-9.8,5.58,5.58,0,0,0-5.181.651,3.162,3.162,0,0,0-.917,3.321,5.513,5.513,0,0,0,4.105,4.132,1.05,1.05,0,0,0,.412-2.046,3.4,3.4,0,0,1-2.484-2.551,1.514,1.514,0,0,1,.159-1.209,3.587,3.587,0,0,1,3.308-.306,15.942,15.942,0,0,1,8.861,8.489,3.985,3.985,0,0,1,0,3.614c-1.249,1.833-5.42,2.139-9.565,2.285-3.627.133-5.952,1.036-6.908,2.657a4.092,4.092,0,0,0,.159,4.079c1.089,2.112,3.733,3.667,5.314,3.135Z" transform="translate(-69.118 -129.728)"/></g></g></g></g><g transform="translate(0 2.515)"><path class="b" d="M323.313,28.749c4.743,4.065,3.056,17.271-4.743,16.341-4.318-.518-8.542-6.643-4.756-10.176a.678.678,0,0,1,.8,0c4.185,2.75,6.018,7.692,1.329,11.027a10.947,10.947,0,0,1-13.591-1.2c-.213-.2.239-.492.425-.359,3.587,2.458,8.277,3.534,12.129.983a5.766,5.766,0,0,0,2.763-3.906,4.623,4.623,0,0,0-.465-2.657c-.332-.691-1.847-2.87-2.657-2.87-1.661,0-.943,3.627-.531,4.517a6.642,6.642,0,0,0,4.265,3.68c3.069.624,5.088-2.192,5.965-4.756,1.182-3.454,1.063-7.426-1.475-10.256-.226-.266.359-.571.558-.4Z" transform="translate(-96.999 -16.899)"/><path class="b" d="M310.356,149.482c-1.953-4.4-1.754-8.954-7.44-10.4-2.5-.638-8.41-1.222-10.283,1.01a2.657,2.657,0,0,0,.492,3.414c1.475,1.329,2.591-.266,2.963-1.674a6.4,6.4,0,0,0-2.843-6.882,11.412,11.412,0,0,0-15.238,2.458c-.213.252-.438-.066-.345-.306,4.358-10.03,25.242-3.056,18.6,6.643-2.033,2.909-5.62.332-4.942-2.737.744-3.414,6.643-3.242,9.14-3.082a10.628,10.628,0,0,1,7.068,2.657c2.285,2.245,2.577,5.779,3.056,8.768,0,.133-.12.332-.2.133Z" transform="translate(-48.877 17.114)"/><path class="b" d="M436.285,32.187c-4.079-1.2-9.685-.864-13.1,1.887-2.657,2.126-4.145,6.736-.252,8.317,1.528.611,6.563.611,7.161-1.461.425-1.448-1.129-2.312-2.378-2.5-3.654-.571-7.081,3.281-6.988,6.722.12,5.168,6.138,6.882,10.389,6.922.279,0,.213.531,0,.545-7.24.7-15.318-6-8.874-12.727,1.727-1.807,4.437-3.1,6.935-2.1,1.408.571,2.524,1.847,1.82,3.374-1.129,2.458-5.673,2.883-7.878,2.258a4.424,4.424,0,0,1-3.056-5.686C421.844,31.2,431,29.769,436.418,31.8c.159,0,.093.438-.093.385Z" transform="translate(-363.707 -16.152)"/><path class="b" d="M212.576,164.867c-4.079-1.2-9.685-.864-13.113,1.886-2.657,2.126-4.145,6.736-.239,8.317,1.514.611,6.55.611,7.161-1.461.412-1.448-1.143-2.312-2.378-2.5-3.667-.571-7.081,3.281-7,6.722.12,5.168,6.138,6.882,10.389,6.922.292,0,.213.531,0,.558-7.24.691-15.318-6.018-8.888-12.74,1.74-1.807,4.437-3.1,6.935-2.1,1.422.571,2.537,1.847,1.833,3.374-1.129,2.458-5.686,2.883-7.891,2.258a4.424,4.424,0,0,1-3.056-5.686c1.78-6.536,10.934-7.971,16.367-5.939.146,0,.093.438-.093.385Z" transform="translate(157.258 27.436)"/><path class="b" d="M461.317,157.867c-4.079-1.182-9.685-.864-13.113,1.9-2.657,2.112-4.145,6.722-.239,8.3,1.528.624,6.55.624,7.161-1.461.412-1.448-1.143-2.312-2.378-2.5-3.667-.558-7.081,3.295-7,6.736.12,5.168,6.138,6.868,10.389,6.922.292,0,.212.518,0,.545-7.241.691-15.318-6.018-8.888-12.727,1.74-1.82,4.437-3.1,6.935-2.1,1.422.558,2.538,1.833,1.833,3.374-1.129,2.458-5.686,2.87-7.891,2.245a4.4,4.4,0,0,1-3.042-5.686c1.767-6.536,10.92-7.891,16.354-5.925.159,0,.093.425-.093.372Z" transform="translate(-421.953 25.15)"/><path class="b" d="M444.491,88.791c4.862,1.448,9.379,10,4.862,13.9-3.839,3.308-11.6,2.564-10.309-3.746a.412.412,0,0,1,.266-.319c5.1-1.222,6.789,4.73,5.713,8.662-1.661,6.111-7.825,6.031-12.276,2.843-.146-.106-.08-.531.133-.425,3.64,1.82,8.742,3.441,10.96-1.209,1.182-2.484,1.222-6.643-1.063-8.516a3.162,3.162,0,0,0-2.192-.85c-1.7.2-1.408,2.033-.452,3.2,1.528,1.86,4.6,1.661,6.643.943,7-2.484,2.192-11.558-2.378-14.109-.133-.08-.106-.425.093-.372Z" transform="translate(-395.468 2.85)"/><path class="b" d="M408.015,132.7c5.726-.731,18.068,4.105,14.866,11.957-1.714,4.172-9.366,6.855-11.89,2.059a.558.558,0,0,1,.279-.7c11.957-6.762,24.564,12.794,11.864,19.928-.4.226-.385-.452-.146-.624a9.977,9.977,0,0,0,2.484-14.042,13.113,13.113,0,0,0-5.314-4.809c-1.634-.771-5.739-1.86-7.254-.252-.7.731-.678-.2-.319.664.213.531.943.837,1.461,1.036a5.925,5.925,0,0,0,3.919-.146c2.657-.917,4.756-3.361,4.052-6.31-1.408-5.885-8.9-7.971-14.135-8.064-.372,0-.133-.678.146-.717Z" transform="translate(-339.503 17.252)"/><path class="n" d="M385.415,32.83s.345,6.43-4.424,10l-5-1.528s3.335-1.594,5-8.476Z" transform="translate(-254.383 -15.533)"/><path class="n" d="M290.575,157.73s.359,6.417-4.424,9.99l-5-1.514s3.335-1.608,5-8.476Z" transform="translate(-33.546 25.5)"/><path class="n" d="M451.92,57.625s2.923,5.739,8.835,6.443l3.574-3.826s-3.693.292-8.582-4.823Z" transform="translate(-434.158 -8.111)"/><path class="n" d="M421.39,198.639s2.909,5.726,8.835,6.43l3.56-3.813s-3.693.279-8.569-4.836Z" transform="translate(-363.055 38.21)"/><path class="b" d="M299.52,179.865s2.909,5.739,8.835,6.443l3.574-3.826s-3.707.292-8.582-4.823Z" transform="translate(-79.291 32.047)"/><path class="b" d="M409.26,76.181s6.39.8,10.283-3.733L418.36,67.36s-1.82,3.228-8.795,4.411Z" transform="translate(-332.697 -4.189)"/><path class="b" d="M339.53,52.568s6.377.8,10.269-3.72L348.63,43.76s-1.833,3.215-8.808,4.411Z" transform="translate(-170.316 -11.942)"/><path class="b" d="M392.7,180.441s6.39.8,10.283-3.72l-1.182-5.1s-1.833,3.228-8.795,4.411Z" transform="translate(-294.137 30.063)"/><path class="b" d="M299.95,115.971s6.39.784,10.283-3.733l-1.169-5.088s-1.833,3.228-8.808,4.411Z" transform="translate(-78.167 8.883)"/><path class="b" d="M460.09,142.4s6.39.784,10.27-3.733l-1.169-5.088s-1.833,3.228-8.795,4.411Z" transform="translate(-451.043 17.566)"/><path class="b" d="M29.51,133.021s6.377.784,10.269-3.733L38.61,124.2s-1.833,3.215-8.808,4.411Z" transform="translate(551.572 14.484)"/><path class="n" d="M374.73,73.44s2.923,5.739,8.835,6.443l3.574-3.786s-4.371.678-9.3-4.437Z" transform="translate(-254.419 -2.776)"/><path class="b" d="M467.752,211.652s6.417-.558,9.3-5.779l-2.205-4.743s-1.01,4.3-7.586,6.908Z" transform="translate(-467.26 39.758)"/><path class="o" d="M380.51,79.587s1.143,6.324,6.643,8.7l4.517-2.657a16.54,16.54,0,0,1-7.586-6.922Z" transform="translate(-266.629 -0.46)"/><path class="b" d="M228.185,36.856c-6.217-.611-14.614,9.738-8.529,14.72,3.361,2.777,10.721,1.568,10.628-3.6a.664.664,0,0,0-.545-.571c-4.889-1.116-9.712.97-8.888,6.643a10.934,10.934,0,0,0,10.256,8.981c.306,0,.2-.5,0-.545-4.251-.9-8.263-3.547-9.087-8.091a5.752,5.752,0,0,1,.917-4.69,4.556,4.556,0,0,1,2.219-1.488c.717-.226,3.348-.638,3.919,0,1.156,1.2-1.966,3.188-2.9,3.507a6.55,6.55,0,0,1-5.606-.531c-2.577-1.794-1.94-5.195-.691-7.612,1.674-3.242,4.637-5.9,8.436-6.018.332,0,.159-.651-.106-.678Z" transform="translate(110.243 -14.218)"/><path class="b" d="M26.043,184.4C28,180,27.8,175.446,33.469,174c2.5-.638,8.41-1.222,10.3,1a2.723,2.723,0,0,1-.492,3.428c-1.488,1.329-2.591-.266-2.976-1.674a6.443,6.443,0,0,1,2.843-6.882,11.439,11.439,0,0,1,15.251,2.418c.2.266.425-.066.332-.292-4.358-10.03-25.242-3.056-18.6,6.563,2.033,2.91,5.633.345,4.955-2.723-.757-3.428-6.643-3.255-9.14-3.082a10.628,10.628,0,0,0-7.081,2.657c-2.272,2.232-2.577,5.766-3.056,8.768,0,.133.12.332.213.133Z" transform="translate(537.529 28.575)"/><path class="b" d="M77.339,32.187c4.079-1.2,9.685-.864,13.113,1.887,2.657,2.126,4.132,6.736.239,8.317C89.163,43,84.128,43,83.53,40.929c-.425-1.448,1.129-2.312,2.378-2.5,3.653-.571,7.081,3.281,7,6.722-.133,5.168-6.151,6.882-10.4,6.922-.279,0-.213.531,0,.545,7.24.7,15.318-6,8.888-12.727-1.74-1.807-4.451-3.1-6.948-2.1-1.408.571-2.524,1.847-1.82,3.374,1.129,2.458,5.673,2.883,7.878,2.258A4.424,4.424,0,0,0,93.56,37.74C91.78,31.2,82.64,29.769,77.206,31.8c-.159,0-.093.438.093.385Z" transform="translate(434.315 -16.152)"/><path class="b" d="M78.663,271.547c4.079-1.182,9.685-.864,13.113,1.9,2.657,2.112,4.132,6.722.239,8.3-1.528.624-6.563.624-7.161-1.461-.425-1.448,1.129-2.3,2.378-2.5,3.653-.558,7.081,3.295,7,6.736-.133,5.168-6.151,6.882-10.4,6.922-.279,0-.2.518,0,.545,7.24.7,15.318-6,8.888-12.727-1.74-1.82-4.451-3.1-6.948-2.1-1.408.558-2.524,1.833-1.82,3.374,1.129,2.458,5.673,2.883,7.878,2.245a4.4,4.4,0,0,0,3.056-5.686c-1.78-6.536-10.92-7.891-16.354-5.925-.159,0-.093.438.093.372Z" transform="translate(431.224 62.496)"/><path class="b" d="M59.486,90.641c-4.862,1.448-9.379,10-4.862,13.9,3.839,3.321,11.6,2.564,10.309-3.746a.438.438,0,0,0-.266-.319c-5.1-1.209-6.789,4.743-5.713,8.675,1.661,6.1,7.825,6.031,12.276,2.83.146-.106.08-.518-.133-.412-3.64,1.82-8.742,3.428-10.96-1.222-1.182-2.484-1.222-6.643,1.063-8.5a3.175,3.175,0,0,1,2.192-.864c1.7.2,1.408,2.046.452,3.2-1.528,1.86-4.6,1.661-6.643.943-7-2.471-2.192-11.558,2.378-14.109C59.712,90.934,59.685,90.588,59.486,90.641Z" transform="translate(489.154 3.458)"/><path class="b" d="M74.657,207.866c8.277.664,6.775,16.381.093,18.493a3.189,3.189,0,0,1-2.537-.133,3.667,3.667,0,0,1-1.5-3.188c.8-2.657,5.314.717,5.832,1.767a7.719,7.719,0,0,1-.624,9.034c-3.414,3.746-9.911,3.879-14.175,1.727-.226-.106-.266.306-.106.412,4.57,2.936,12.262,2.511,15.65-2.139,2.657-3.733.85-13.591-5.088-12.714-5.527.81-1.7,7.108,2.484,6.271s5.7-6.39,6.1-9.831c.518-4.331-.784-10.19-6.151-10.083-.173,0-.146.372,0,.385Z" transform="translate(467.911 41.843)"/><path class="b" d="M163.358,74.888c-5.726-.731-18.068,4.105-14.866,11.957,1.714,4.172,9.366,6.855,11.957,2.059a.558.558,0,0,0-.279-.7c-11.957-6.762-24.564,12.794-11.864,19.928.4.226.385-.452.146-.624a9.977,9.977,0,0,1-2.484-14.042,13.112,13.112,0,0,1,5.314-4.809c1.634-.771,5.739-1.86,7.254-.266.7.744.678-.186.319.678-.213.531-.943.837-1.461,1.023a5.885,5.885,0,0,1-3.986-.133c-2.657-.917-4.743-3.361-3.986-6.31,1.408-5.885,8.9-7.971,14.135-8.064.372,0,.133-.678-.146-.717Z" transform="translate(276.821 -1.74)"/><path class="n" d="M126.916,41.633s-.359,6.43,4.424,10l5-1.541s-3.335-1.594-5-8.476Z" transform="translate(325.618 -12.645)"/><path class="n" d="M59.085,57.625s-2.923,5.739-8.835,6.443l-3.64-3.826s3.693.292,8.582-4.823Z" transform="translate(509.549 -8.111)"/><path class="n" d="M109.6,227.929s-2.923,5.739-8.835,6.443l-3.574-3.826s3.693.279,8.582-4.836Z" transform="translate(391.839 47.833)"/><path class="n" d="M45.928,291.625s-2.923,5.739-8.835,6.443l-3.574-3.826s3.693.292,8.582-4.822Z" transform="translate(540.096 68.763)"/><path class="b" d="M152.885,126.955s-2.909,5.739-8.835,6.443l-3.56-3.826s3.693.292,8.569-4.822Z" transform="translate(291.027 14.665)"/><path class="n" d="M188.135,72.536s-2.909,5.739-8.821,6.443l-3.574-3.786s3.693.292,8.582-4.823Z" transform="translate(208.947 -3.2)"/><path class="b" d="M101.143,76.181s-6.39.8-10.283-3.733l1.182-5.088s1.82,3.228,8.795,4.411Z" transform="translate(408.704 -4.189)"/><path class="b" d="M183.283,38.728s-6.39.8-10.283-3.72l1.169-5.088s1.833,3.215,8.808,4.411Z" transform="translate(217.439 -16.489)"/><path class="b" d="M185.953,104.721s-6.39.8-10.283-3.72l1.182-5.1s1.82,3.228,8.795,4.411Z" transform="translate(211.222 5.187)"/><path class="b" d="M43.269,249.971s-6.39.8-10.269-3.72l1.169-5.1s1.833,3.228,8.795,4.424Z" transform="translate(543.445 52.905)"/><path class="b" d="M119.053,310.918s-6.39.8-10.283-3.72l1.169-5.088s1.833,3.215,8.808,4.411Z" transform="translate(367 72.932)"/><path class="n" d="M127.965,94.37s-2.909,5.739-8.835,6.443L115.57,97s4.358.664,9.3-4.451Z" transform="translate(349.054 4.087)"/><path class="o" d="M121.89,100.51s-1.143,6.337-6.643,8.715l-4.517-2.657A16.567,16.567,0,0,0,118.3,99.66Z" transform="translate(361.559 6.422)"/><path class="n" d="M240.05,21.63s2.923,5.739,8.835,6.443l3.574-3.826s-4.371.678-9.3-4.437Z" transform="translate(59.186 -19.81)"/><path class="o" d="M234.73,70.627s1.143,6.337,6.643,8.7l4.517-2.657a16.553,16.553,0,0,1-7.573-6.922Z" transform="translate(72.823 -3.404)"/></g></svg>